<svg xmlns="http://www.w3.org/2000/svg" enable-background="new 0 0 298.799 297.56" viewBox="0 0 298.799 297.56"><g><rect width="298.799" height="297.56" fill="none"/><g><g><path d="M80.105,236.184c10.508,1.625,23.929-3.448,29.976-11.331c6.048-7.882,2.432-15.589-8.076-17.214
				c-10.508-1.625-23.929,3.448-29.976,11.331C65.982,226.853,69.597,234.56,80.105,236.184z" opacity=".09"/><g><g><path fill="#fdc896" d="M107.091,145.9c0.726-2.716-0.358-3.39-1.231-7.364l-1.25-14.737c-0.041-1.66-2.452-4.202-4.318-4.479
						c-1.972-0.293-3.146,0.813-3.103,2.537l2.856,16.174c-1.976,0.57-2.261,4.853-2.657,5.804
						c-0.467,1.124,0.523,2.006,0.947,0.668c0.424-1.338,0.615-2.804,1.358-2.131c1.272,1.151-0.033,6.199,2.977,6.561l1.319-0.049
						C105.788,148.648,106.536,147.979,107.091,145.9z"/><path fill="#81ba43" d="M93.605,67.917c-3.161,0.321-5.444,3.173-5.097,6.332c1.728,15.687,5.025,46.334,5.312,49.452l0.464,5.382
						c0.262,2.857,2.952,4.527,6.008,3.729c3.055-0.798,5.32-3.76,5.057-6.618c-0.434-5.041-3.989-37.703-5.332-53.073
						c-0.276-3.16-3.061-5.531-6.218-5.224C93.734,67.904,93.67,67.91,93.605,67.917z"/><path fill="#fff" d="M94.155,130.638c0.262,2.858,4.556,2.984,7.612,2.186c3.055-0.798,5.063-1.612,4.8-4.47l-0.435-2.193
						c-3.684,0.851-8.891,0.997-12.629,0.546L94.155,130.638z"/></g><g><g><path fill="#f6b18a" d="M97.279,214.109c0,0,1.228-0.746,0.646-1.963l-0.551-2.99c0.046-1.498-0.462-2.877-1.955-2.94
							c-0.011-0.001-0.022-0.001-0.032-0.001c-1.509-0.046-2.716,0.683-2.762,2.191l-0.108,2.693
							C92.472,212.597,95.786,214.046,97.279,214.109z"/><path fill="#6c747f" d="M91.633,215.709c2.508,2.182,9.67,5.805,12.738,3.855c0.151-0.096,0.329-0.537,0.393-0.666
							c0.117,0.427-0.043,1.109-0.422,1.349c-3.068,1.95-10.23-1.673-12.738-3.855c-0.497-0.433-0.617-1.121-0.506-1.857
							C91.134,214.999,91.295,215.414,91.633,215.709z"/><path fill="#424a4d" d="M97.925,212.146c0.037,1.578-1.093,1.846-5.408-1.048c-1.141,1.147-2.058,3.588-0.884,4.61
							c2.508,2.182,9.67,5.805,12.738,3.856C106.718,218.073,97.925,212.146,97.925,212.146z"/></g><path fill="#814f2c" d="M100.008,128.518c-3.135,0.162-13.153,1.326-13.046,3.855l3.109,77.347
						c0.11,2.571,2.178,2.621,4.714,2.505c2.556-0.109,4.653-0.345,4.543-2.901L100.008,128.518z"/></g><g><g><path fill="#f6b18a" d="M80.189,223.636c0,0,1.228-0.746,0.646-1.963l-0.551-2.99c0.046-1.498-0.462-2.877-1.955-2.94
							c-0.011-0.001-0.022-0.001-0.032-0.001c-1.508-0.046-2.716,0.683-2.762,2.191l-0.108,2.693
							C75.381,222.124,78.696,223.573,80.189,223.636z"/><path fill="#6c747f" d="M74.543,225.236c2.508,2.182,9.67,5.805,12.738,3.855c0.151-0.096,0.329-0.537,0.393-0.666
							c0.117,0.427-0.043,1.109-0.422,1.349c-3.068,1.949-10.23-1.673-12.738-3.855c-0.497-0.433-0.617-1.121-0.506-1.857
							C74.044,224.526,74.204,224.941,74.543,225.236z"/><path fill="#424a4d" d="M80.834,221.673c0.037,1.578-1.093,1.846-5.408-1.048c-1.141,1.147-2.058,3.587-0.884,4.61
							c2.508,2.182,9.67,5.805,12.738,3.856C89.627,227.6,80.834,221.673,80.834,221.673z"/></g><path fill="#a46031" d="M82.237,218.851l2.963-76.209l2.868-1.092c3.727-1.122,11.743-7.434,11.94-9.986
						c0.197-2.551-2.736-2.348-5.292-2.548c-15.889-1.227-22.358,2.921-23.974,3.764c-1.616,0.843-0.944,7.388-0.87,9.118
						l3.109,77.347c0.11,2.571,2.178,2.621,4.714,2.506C80.249,221.643,82.346,221.408,82.237,218.851z"/></g><path fill="#96d94e" d="M97.522,70.589c4.185,2.681,1.03,56.391,3.054,59.752c1.653,2.746-25.48,11.572-30.876,8.457
					c-4.582-2.645-5.498-37.129-3.571-50.565c0.461-3.211,2.307-6.048,5.049-7.78C79.983,74.89,91.544,66.758,97.522,70.589z"/><path fill="#fff" d="M88.629,83.105c-7.539,3.77-11.866-2.813-12.507-5.801c0.459-0.29,0.919-0.643,1.383-0.931
					c2.31,9.628,14.815,5.97,13.811-1.507c-0.226-1.684-1.617-2.961-2.711-4.206c0.592-0.212,1.174-0.393,1.743-0.546
					C94.027,74.038,93.33,81.016,88.629,83.105z"/><path fill="#0b6184" d="M68.395,137.039c2.799,1.616,13.365,2.719,19.151-2.405c7.448-6.596,1.099-32.243-1.336-45.21
					c-0.072-0.382-0.164-0.79-0.453-1.05c-0.244-0.219-0.581-0.29-0.897-0.376c-5.561-1.524-8.869-9.814-8.869-10.611
					c-1.823,1.147-3.133,2.004-4.812,3.065c-2.742,1.732-4.589,4.569-5.049,7.78C64.202,101.668,63.813,134.394,68.395,137.039z"/><path fill="#0b6184" d="M100.574,127.029c-0.798-4.402,1.133-54.794-3.052-57.475c-1.168-0.748-1.831-1.034-3.363-0.977
					c-1.409,1.308-1.551,3.616-1.18,5.279c1.736,7.772-1.607,11.877-1.607,11.877s1.092,3.066,1.962,19.743
					c0.243,4.662-2.682,25.559,0.09,26.781C95.196,133.037,101.107,129.969,100.574,127.029z"/><path fill="#f2c090" d="M87.786,66.478c-2.219,3.22,3.069,4.961,3.529,8.388c1.004,7.477-11.502,11.199-13.811,1.57
					c0,0,2.884-1.564,2.917-3.104c0.044-2.061-1.164-4.875,0.818-6.854C83.049,64.673,87.786,66.478,87.786,66.478z"/><path fill="#fdc896" d="M97.522,50.623c0,0-0.548,16.585-3.348,19.391c-2.8,2.806-12.907,4.439-15.64,0
					c-4.706-7.643-9.151-12.706-3.224-22.498c3.963-6.547,9.871-8.043,15.344-5.319C94.119,43.921,96.657,45.099,97.522,50.623z"/><g><path fill="#1a1a29" d="M86.843,62.99c0,0.699,0.491,0.983,1.097,0.633c0.606-0.35,1.097-1.2,1.097-1.899
						c0-0.699-0.491-0.983-1.097-0.633C87.334,61.44,86.843,62.291,86.843,62.99z"/><path fill="#362829" d="M90.269,57.453c0-1.122-1.941-1.14-5.276,1.412L90.269,57.453z"/><path fill="#362829" d="M93.884,55.979c-0.777-0.809-0.535-1.536,3.638-2.006L93.884,55.979z"/><path fill="#1a1a29" d="M96.704,58.147c0,0.637-0.413,1.411-0.922,1.729c-0.509,0.318-0.922,0.06-0.922-0.576
						c0-0.637,0.413-1.411,0.922-1.729C96.291,57.253,96.704,57.511,96.704,58.147z"/></g><path fill="#80574d" d="M85.314,68.925c1.445,0.508,2.317-1.688,4.954-2.781c1.935-0.802,5.513-2.743,6.019,0
					c0.827,3.587-2.486,8.639-6.019,9.673c-3.533,1.034-5.83-0.23-9.102-2.302c-0.875-0.554-0.877-1.704-1.655-2.388
					c-1.882-1.655-3.952-3.285-5.426-5.333c-1.294-1.798-2.183-3.939-2.75-6.07c-1.164-4.379-1.001-9.295,1.066-13.387
					c1.935-3.83,5.74-6.658,9.965-7.405c4.225-0.747,9.648,0.245,12.778,3.18c0.999,0.936,4.429,4.607,6.391,4.124
					c-1.921,5.412-3.697,5.913-6.987,6.9c-4.618,1.385-9.24-3.556-11.287-2.468c-2.057,1.093-2.285,5.746-2.517,8.057
					C80.268,63.487,80.227,67.134,85.314,68.925z"/><path fill="#fff" d="M94.159,65.348c0,0.686-0.969,2.726-2.272,3.479c-1.303,0.753-2.448-0.067-2.448-0.754L94.159,65.348z"/><path fill="#f6b18a" d="M76.456,62.519c0,1.268,0.684,2.691,1.528,3.178c0.844,0.487,1.528-0.146,1.528-1.414
					c0-1.268-0.684-2.691-1.528-3.178C77.14,60.618,76.456,61.251,76.456,62.519z"/><g><path fill="#fd7565" d="M81.206,141.865c-0.045,0.077-0.101,0.117-0.155,0.127l-23.685,3.205c0.055-0.01,0.11-0.05,0.155-0.127
						l0.087-0.148l23.684-3.205L81.206,141.865z"/><g><polygon fill="#42427d" points="80.516 141.663 56.831 144.868 64.869 158.634 88.554 155.429"/></g><g><polygon fill="#b3b3b3" points="79.202 141.83 55.517 145.035 55.043 145.847 78.728 142.642"/></g><g><path fill="#666" d="M79.874,141.28l-23.684,3.205c0.239-0.032,0.472,0.093,0.641,0.383l23.685-3.205
							C80.346,141.372,80.113,141.247,79.874,141.28z"/></g><g><polygon fill="#b3b3b3" points="78.632 144.894 54.947 148.099 62.985 161.865 86.67 158.66"/></g><g><polygon fill="#fd7565" points="78.662 146.228 54.977 149.433 62.611 162.507 86.296 159.301"/></g><path fill="#636e72" d="M78.77,145.563c0.076,0.131,0.068,0.362-0.022,0.516l-0.087,0.148l-23.685,3.205l0.086-0.148
						c0.09-0.155,0.098-0.386,0.022-0.516c-0.039-0.067-0.092-0.096-0.147-0.089l23.685-3.205
						C78.678,145.467,78.731,145.496,78.77,145.563z"/><g><path fill="#b3b3b3" d="M78.728,142.642l-23.685,3.205c-0.012,0.021-0.024,0.042-0.035,0.064
							c-0.356,0.666-0.388,1.628-0.061,2.188l23.684-3.205c-0.327-0.56-0.295-1.522,0.061-2.188
							C78.704,142.684,78.716,142.663,78.728,142.642z"/></g><g><path fill="#ecedee" d="M80.516,141.663c-0.338-0.578-0.925-0.501-1.314,0.167l-0.474,0.813
							c-0.012,0.021-0.024,0.042-0.036,0.064c-0.356,0.666-0.388,1.628-0.061,2.188l7.948,13.611l1.884-3.231L80.516,141.663z"/></g><g><path fill="#b2b7bb" d="M78.928,143.316c0.128-0.186,0.273-0.314,0.421-0.381l2.982,5.675L78.928,143.316z"/><path fill="#b2b7bb" d="M78.883,144.383c0.019-0.135,0.048-0.269,0.086-0.398l2.146,3.96L78.883,144.383z"/><polygon fill="#9ea5aa" points="79.666 141.855 79.842 141.551 83.591 148.282"/><polygon fill="#b2b7bb" points="86.879 158.005 83.157 151.168 87.144 157.546"/><polygon fill="#b2b7bb" points="87.746 156.505 86.235 153.424 88.025 156.026"/><polygon fill="#b2b7bb" points="88.157 155.801 87.226 153.812 88.348 155.48"/><polygon fill="#b2b7bb" points="87.433 157.047 85.2 152.8 87.71 156.566"/></g><g><path fill="#636e72" d="M79.202,141.829l-0.474,0.813c-0.012,0.021-0.024,0.042-0.036,0.063
							c-0.356,0.666-0.388,1.628-0.061,2.188l0.128,0.219l1.879-3.241l-0.123-0.209C80.178,141.085,79.591,141.162,79.202,141.829z"/></g><g><path fill="#ef4136" d="M80.877,141.005c-0.506-0.867-1.4-0.754-1.987,0.252l-0.498,0.855c-0.587,1.006-0.652,2.537-0.146,3.405
							l0.136,0.233l0.086-0.148c0.09-0.155,0.223-0.172,0.301-0.038c0.076,0.131,0.068,0.362-0.022,0.516l-0.087,0.148l7.634,13.074
							l0.374-0.642l-8.038-13.766c-0.327-0.56-0.295-1.522,0.061-2.188c0.012-0.022,0.023-0.043,0.036-0.064l0.474-0.813
							c0.389-0.668,0.976-0.745,1.314-0.167l8.038,13.766l0.372-0.638l-7.634-13.074l-0.087,0.148
							c-0.045,0.077-0.101,0.117-0.155,0.127c-0.054,0.004-0.107-0.022-0.146-0.089c-0.078-0.133-0.068-0.362,0.022-0.516
							l0.086-0.148L80.877,141.005z"/></g><path fill="#f65b4e" d="M78.89,141.257l-0.498,0.855c-0.587,1.006-0.652,2.537-0.146,3.405l0.136,0.233l-23.685,3.205
						l-0.136-0.233c-0.507-0.867-0.441-2.398,0.146-3.405l0.498-0.855c0.291-0.5,0.659-0.779,1.016-0.828l23.685-3.205
						C79.549,140.478,79.182,140.757,78.89,141.257z"/></g><g><path fill="#fdc896" d="M64.922,147.239c-1.844-2.311-2.834-4.126-2.186-7.114l-5.442-13.915c-0.7-1.541,0.292-4.522,1.809-5.272
						c1.604-0.793,3.127-0.084,3.855,1.516l4.667,15.665c1.991,0.002,4.468,2.491,5.238,3.263l-1.25,0.169
						c-1.124-0.503-1.681-0.088-2.036,0.729c-0.607,1.398,3.065,5.453,0.579,6.583l-1.181,0.304
						C67.288,149.427,66.334,149.008,64.922,147.239z"/><path fill="#81ba43" d="M53.485,112.774c0.265-1.111,0.647-2.21,1.145-3.282l9.544-23.32c1.215-2.612,6.702-6.08,9.314-4.866
						c2.612,1.215,3.742,4.315,2.531,6.929L64.09,113.892c-0.688,1.482-0.809,3.039-0.337,4.382l1.768,5.122
						c0.955,2.719-0.476,5.694-3.193,6.649c-2.718,0.955-5.695-0.475-6.649-3.194l-1.768-5.122
						C52.903,118.864,52.768,115.775,53.485,112.774z"/><path fill="#fff" d="M56.036,128.433c0.954,2.718,4.982,2.486,7.7,1.531c2.718-0.955,3.451-2.531,2.496-5.25l-0.713-1.319
						c-3.305,1.044-7.489,2.256-11.165,2.058L56.036,128.433z"/></g></g></g><g><polygon points="245.765 250.963 137.925 188.701 124.908 196.118 232.748 258.38" opacity=".09"/><g><g><polygon fill="#fff" points="146.662 206.358 139.376 202.151 146.624 197.974 153.949 202.151"/><polygon fill="#ecedee" points="143.024 26.425 143.033 202.122 146.662 204.225 146.662 28.625"/><polygon fill="#b6babd" points="150.262 26.547 150.253 202.122 146.624 204.225 146.662 28.625"/><polygon fill="#ecedee" points="146.658 206.356 139.376 202.158 139.376 204.207 146.658 208.489"/><polygon fill="#b6babd" points="153.949 202.158 153.949 204.269 146.662 208.489 146.662 206.356"/></g><g><polygon fill="#fff" points="211.961 244.314 204.674 240.107 211.922 235.931 219.247 240.107"/><polygon fill="#ecedee" points="208.323 64.381 208.331 240.078 211.961 242.182 211.961 66.581"/><polygon fill="#b6babd" points="215.56 64.503 215.551 240.078 211.922 242.182 211.961 66.581"/><polygon fill="#ecedee" points="211.956 244.313 204.674 240.114 204.674 242.163 211.956 246.445"/><polygon fill="#b6babd" points="219.247 240.114 219.247 242.226 211.961 246.445 211.961 244.313"/></g></g><g><polygon fill="#b3bdc4" points="128.921 93.931 125.651 95.566 233.491 157.828 233.491 236.994 236.761 235.359 236.761 156.193"/><polygon fill="#f2f2f2" points="233.491 236.994 125.651 174.733 125.651 95.566 233.491 157.828"/><g><path fill="#fec104" d="M156.973,133.046c0,3.914-2.748,5.501-6.138,3.544c-3.39-1.957-6.138-6.717-6.138-10.631
						c0-3.914,2.748-5.501,6.138-3.544C154.225,124.372,156.973,129.132,156.973,133.046z"/><polygon fill="#01a3e4" points="214.445 173.314 160.507 142.173 160.507 127.999 214.445 159.14"/><path fill="#fec104" d="M156.973,153.233c0,3.914-2.748,5.501-6.138,3.544c-3.39-1.957-6.138-6.717-6.138-10.631
						c0-3.914,2.748-5.501,6.138-3.544C154.225,144.56,156.973,149.319,156.973,153.233z"/><polygon fill="#01a3e4" points="214.445 193.501 160.507 162.361 160.507 148.186 214.445 179.327"/><path fill="#fec104" d="M156.973,173.421c0,3.914-2.748,5.501-6.138,3.544c-3.39-1.957-6.138-6.717-6.138-10.631
						c0-3.914,2.748-5.5,6.138-3.543C154.225,164.747,156.973,169.507,156.973,173.421z"/><polygon fill="#01a3e4" points="214.445 213.689 160.507 182.548 160.507 168.374 214.445 199.515"/></g></g><g><polygon fill="#b3bdc4" points="128.921 6.593 125.651 8.228 233.491 70.49 233.491 149.656 236.761 148.021 236.761 68.855"/><polygon fill="#f2f2f2" points="233.491 149.656 125.651 87.394 125.651 8.228 233.491 70.49"/><g><g><polygon fill="#0c8ebe" points="221.971 128.436 221.6 128.224 221.604 129.331 215.496 125.84 215.492 124.733 215.12 124.521 215.124 125.628 209.017 122.137 209.013 121.03 208.641 120.817 208.645 121.924 202.537 118.434 202.533 117.327 202.161 117.114 202.166 118.221 196.058 114.73 196.054 113.623 195.682 113.411 195.686 114.518 189.579 111.027 189.574 109.92 189.202 109.707 189.207 110.815 183.099 107.324 183.095 106.217 182.723 106.004 182.727 107.111 176.62 103.621 176.615 102.513 176.244 102.301 176.248 103.408 170.14 99.917 170.136 98.81 169.764 98.598 169.768 99.705 163.661 96.214 163.656 95.107 163.285 94.894 163.289 96.002 157.181 92.511 157.177 91.404 156.805 91.191 156.81 92.298 150.702 88.807 150.698 87.7 150.326 87.488 150.33 88.595 144.223 85.104 144.218 83.997 143.846 83.785 143.851 84.892 139.663 82.498 137.743 81.401 137.739 80.294 137.704 71.192 139.623 72.289 139.622 71.839 137.702 70.741 137.662 60.532 139.582 61.629 139.581 61.179 137.661 60.081 137.621 49.872 139.541 50.97 139.539 50.519 137.619 49.422 137.58 39.213 139.5 40.31 139.498 39.859 137.578 38.762 137.538 28.553 139.458 29.65 139.457 29.199 137.351 27.996 137.352 28.221 137.166 28.115 137.367 80.081 137.372 81.414 137.558 81.52 137.559 81.745 139.665 82.949 221.792 129.888 221.791 129.663 221.977 129.769"/><g><g><g><path fill="#f65b4e" d="M140.794,82.468c-0.095-0.054-0.184-0.176-0.219-0.31c-0.044-0.171,0.017-0.297,0.138-0.282
										l6.468,0.847c0.12,0.016,0.254,0.167,0.298,0.339c0.044,0.171-0.017,0.297-0.138,0.282l-6.468-0.847
										C140.847,82.493,140.821,82.483,140.794,82.468z"/></g><g><path fill="#f65b4e" d="M147.263,83.316c-0.019-0.011-0.038-0.025-0.057-0.042c-0.124-0.109-0.2-0.306-0.169-0.438
										l6.36-27.21c0.031-0.133,0.157-0.152,0.282-0.042c0.125,0.109,0.2,0.306,0.169,0.438l-6.36,27.21
										C147.461,83.344,147.367,83.375,147.263,83.316z"/></g><g><path fill="#f65b4e" d="M160.222,90.928c-0.104-0.059-0.199-0.199-0.226-0.341l-6.6-34.823
										c-0.032-0.169,0.043-0.279,0.167-0.246c0.124,0.033,0.251,0.197,0.283,0.365l6.6,34.823
										c0.032,0.169-0.043,0.279-0.167,0.246C160.26,90.947,160.241,90.939,160.222,90.928z"/></g><g><path fill="#f65b4e" d="M160.222,90.928c-0.026-0.015-0.053-0.036-0.079-0.062c-0.121-0.122-0.184-0.319-0.141-0.44
										l6.395-17.986c0.043-0.121,0.176-0.121,0.297,0.001c0.121,0.122,0.184,0.319,0.141,0.44l-6.395,17.986
										C160.406,90.962,160.317,90.983,160.222,90.928z"/></g><g><path fill="#f65b4e" d="M166.618,72.942c-0.072-0.041-0.143-0.122-0.189-0.224c-0.076-0.169-0.053-0.332,0.051-0.364
										l6.457-1.98c0.104-0.032,0.249,0.079,0.325,0.248c0.076,0.169,0.053,0.332-0.051,0.364l-6.458,1.98
										C166.713,72.979,166.665,72.969,166.618,72.942z"/></g><g><path fill="#f65b4e" d="M179.638,96.204c-0.095-0.054-0.184-0.176-0.219-0.31l-6.563-25.242
										c-0.044-0.171,0.017-0.298,0.137-0.282c0.12,0.015,0.254,0.167,0.299,0.338l6.563,25.242
										c0.044,0.171-0.017,0.298-0.137,0.282C179.691,96.229,179.664,96.219,179.638,96.204z"/></g><g><path fill="#f65b4e" d="M186.151,108.672c-0.064-0.036-0.127-0.104-0.173-0.193l-6.513-12.468
										c-0.086-0.165-0.079-0.338,0.016-0.387c0.095-0.049,0.242,0.044,0.328,0.209l6.513,12.468
										c0.086,0.165,0.079,0.338-0.016,0.387C186.262,108.711,186.207,108.703,186.151,108.672z"/></g><g><path fill="#f65b4e" d="M186.152,108.672c-0.014-0.008-0.029-0.018-0.043-0.03c-0.126-0.101-0.21-0.296-0.187-0.435
										l6.318-37.932c0.023-0.139,0.145-0.17,0.271-0.069c0.126,0.101,0.21,0.296,0.187,0.435l-6.318,37.932
										C186.358,108.696,186.261,108.734,186.152,108.672z"/></g><g><path fill="#f65b4e" d="M199.111,116.376c-0.11-0.063-0.208-0.213-0.229-0.36L192.24,70.38
										c-0.024-0.167,0.058-0.266,0.184-0.223c0.126,0.044,0.248,0.214,0.272,0.38l6.642,45.636
										c0.024,0.166-0.058,0.266-0.184,0.223C199.14,116.391,199.125,116.384,199.111,116.376z"/></g><g><path fill="#f65b4e" d="M199.112,116.376c-0.012-0.007-0.024-0.015-0.036-0.024c-0.127-0.096-0.214-0.29-0.195-0.432
										l6.285-46.513c0.019-0.142,0.138-0.179,0.265-0.083c0.127,0.096,0.214,0.29,0.195,0.432l-6.285,46.513
										C199.323,116.398,199.224,116.44,199.112,116.376z"/></g><g><path fill="#f65b4e" d="M211.986,101.981c-0.102-0.058-0.196-0.193-0.225-0.334l-6.589-32.118
										c-0.035-0.169,0.037-0.283,0.161-0.254c0.124,0.029,0.252,0.19,0.287,0.36l6.59,32.118c0.035,0.17-0.037,0.283-0.161,0.254
										C212.027,102.001,212.006,101.992,211.986,101.981z"/></g><g><path fill="#f65b4e" d="M218.503,115.354c-0.068-0.039-0.135-0.112-0.181-0.207l-6.517-13.373
										c-0.081-0.167-0.067-0.336,0.032-0.377c0.099-0.041,0.246,0.061,0.327,0.228l6.517,13.373
										c0.081,0.167,0.067,0.336-0.032,0.377C218.606,115.392,218.554,115.383,218.503,115.354z"/></g></g></g><g><g><g><path fill="#d4a0b3" d="M140.797,83.09c-0.064-0.036-0.127-0.104-0.173-0.192c-0.086-0.165-0.079-0.338,0.016-0.388
										l6.452-3.338c0.095-0.049,0.242,0.044,0.328,0.209c0.086,0.165,0.079,0.338-0.016,0.387l-6.452,3.338
										C140.907,83.129,140.852,83.121,140.797,83.09z"/></g><g><path fill="#d4a0b3" d="M153.751,89.355c-0.049-0.028-0.098-0.074-0.14-0.136l-6.502-9.603
										c-0.103-0.152-0.125-0.34-0.048-0.421c0.077-0.08,0.222-0.022,0.325,0.13l6.502,9.603c0.103,0.152,0.124,0.34,0.048,0.421
										C153.891,89.396,153.822,89.396,153.751,89.355z"/></g><g><path fill="#d4a0b3" d="M153.751,89.355c-0.02-0.011-0.04-0.026-0.06-0.044c-0.124-0.111-0.199-0.307-0.166-0.439
										l6.365-25.841c0.032-0.131,0.16-0.148,0.284-0.037c0.124,0.111,0.199,0.307,0.166,0.439l-6.365,25.841
										C153.948,89.385,153.854,89.414,153.751,89.355z"/></g><g><path fill="#d4a0b3" d="M166.629,75.829c-0.063-0.036-0.126-0.103-0.172-0.19l-6.513-12.315
										c-0.087-0.164-0.081-0.339,0.014-0.389c0.094-0.051,0.242,0.042,0.328,0.206l6.513,12.315
										c0.087,0.164,0.081,0.339-0.014,0.389C166.741,75.869,166.685,75.861,166.629,75.829z"/></g><g><path fill="#d4a0b3" d="M173.179,97.714c-0.09-0.051-0.176-0.164-0.214-0.292l-6.55-21.885
										c-0.051-0.172,0.002-0.307,0.12-0.301c0.118,0.006,0.255,0.15,0.306,0.322l6.55,21.885c0.051,0.172-0.002,0.307-0.12,0.301
										C173.241,97.742,173.21,97.732,173.179,97.714z"/></g><g><path fill="#d4a0b3" d="M173.179,97.714c-0.044-0.025-0.088-0.065-0.128-0.119c-0.107-0.147-0.138-0.338-0.068-0.428
										l6.433-8.233c0.07-0.09,0.214-0.043,0.322,0.104c0.107,0.147,0.138,0.339,0.068,0.428l-6.433,8.233
										C173.328,97.755,173.254,97.757,173.179,97.714z"/></g><g><path fill="#d4a0b3" d="M186.149,107.951c-0.083-0.048-0.164-0.148-0.206-0.267l-6.537-18.47
										c-0.061-0.172-0.019-0.318,0.094-0.326c0.113-0.008,0.254,0.124,0.315,0.296l6.537,18.47
										c0.061,0.172,0.019,0.318-0.094,0.326C186.223,107.983,186.186,107.972,186.149,107.951z"/></g><g><path fill="#d4a0b3" d="M186.148,107.951c-0.121-0.069-0.224-0.241-0.232-0.395c-0.009-0.16,0.087-0.239,0.215-0.177
										l6.477,3.167c0.128,0.063,0.239,0.243,0.249,0.403c0.009,0.16-0.087,0.239-0.215,0.177l-6.477-3.167
										C186.159,107.957,186.154,107.954,186.148,107.951z"/></g><g><path fill="#d4a0b3" d="M192.626,111.118c-0.082-0.047-0.161-0.145-0.204-0.262c-0.063-0.172-0.023-0.32,0.089-0.331
										l6.463-0.64c0.112-0.011,0.253,0.119,0.316,0.291c0.063,0.172,0.023,0.32-0.089,0.331l-6.463,0.64
										C192.703,111.151,192.664,111.14,192.626,111.118z"/></g><g><path fill="#d4a0b3" d="M199.089,110.479c-0.025-0.015-0.051-0.034-0.076-0.059c-0.121-0.12-0.186-0.318-0.144-0.44
										l6.392-18.871c0.042-0.123,0.174-0.125,0.295-0.004c0.122,0.12,0.186,0.318,0.144,0.44l-6.392,18.871
										C199.274,110.512,199.185,110.534,199.089,110.479z"/></g><g><path fill="#d4a0b3" d="M212.058,120.614c-0.099-0.057-0.191-0.187-0.223-0.325l-6.577-29.006
										c-0.039-0.17,0.029-0.289,0.152-0.265c0.122,0.024,0.253,0.181,0.291,0.352l6.577,29.006
										c0.038,0.17-0.029,0.289-0.152,0.265C212.104,120.636,212.081,120.627,212.058,120.614z"/></g><g><path fill="#d4a0b3" d="M218.542,125.373c-0.01-0.006-0.021-0.013-0.031-0.02l-6.484-4.759
										c-0.127-0.094-0.217-0.286-0.201-0.431c0.017-0.144,0.133-0.185,0.26-0.092l6.484,4.759
										c0.127,0.094,0.217,0.286,0.201,0.431C218.756,125.393,218.656,125.439,218.542,125.373z"/></g></g></g><g><g><g><path fill="#0c8ebe" d="M140.797,83.09c-0.02-0.011-0.04-0.026-0.06-0.044c-0.124-0.111-0.199-0.307-0.166-0.439
										l6.365-25.932c0.032-0.132,0.159-0.148,0.284-0.038c0.124,0.111,0.199,0.307,0.166,0.439l-6.365,25.931
										C140.993,83.119,140.9,83.149,140.797,83.09z"/></g><g><path fill="#0c8ebe" d="M153.713,79.421c-0.091-0.052-0.177-0.165-0.215-0.294l-6.551-22.262
										c-0.051-0.172,0.004-0.306,0.122-0.299c0.118,0.007,0.255,0.152,0.305,0.324l6.551,22.262
										c0.051,0.172-0.004,0.306-0.122,0.299C153.774,79.448,153.743,79.438,153.713,79.421z"/></g><g><path fill="#0c8ebe" d="M160.232,93.385c-0.07-0.04-0.139-0.117-0.185-0.216l-6.519-13.965
										c-0.078-0.168-0.06-0.334,0.042-0.37c0.101-0.036,0.247,0.07,0.326,0.239l6.519,13.965c0.079,0.168,0.06,0.334-0.042,0.37
										C160.331,93.423,160.281,93.413,160.232,93.385z"/></g><g><path fill="#0c8ebe" d="M160.232,93.385c-0.107-0.061-0.203-0.206-0.228-0.352c-0.028-0.168,0.051-0.272,0.176-0.234
										l6.473,1.993c0.125,0.039,0.249,0.206,0.277,0.373c0.028,0.168-0.051,0.272-0.176,0.234l-6.473-1.993
										C160.265,93.402,160.248,93.394,160.232,93.385z"/></g><g><path fill="#0c8ebe" d="M173.192,100.99c-0.018-0.01-0.037-0.023-0.055-0.039l-6.487-5.612
										c-0.125-0.108-0.202-0.304-0.172-0.438c0.03-0.134,0.155-0.155,0.28-0.047l6.487,5.612
										c0.125,0.108,0.202,0.304,0.172,0.438C173.391,101.018,173.296,101.05,173.192,100.99z"/></g><g><path fill="#0c8ebe" d="M173.192,100.99c-0.019-0.01-0.037-0.024-0.056-0.04c-0.125-0.108-0.201-0.305-0.171-0.438
										l6.357-28.065c0.03-0.133,0.156-0.153,0.281-0.045c0.125,0.109,0.201,0.305,0.171,0.438l-6.356,28.065
										C173.391,101.018,173.296,101.05,173.192,100.99z"/></g><g><path fill="#0c8ebe" d="M186.151,108.615c-0.104-0.06-0.2-0.2-0.226-0.344l-6.603-35.691
										c-0.031-0.169,0.044-0.278,0.169-0.243c0.125,0.034,0.251,0.198,0.282,0.367l6.603,35.691
										c0.031,0.169-0.044,0.278-0.169,0.243C186.188,108.634,186.169,108.626,186.151,108.615z"/></g><g><path fill="#0c8ebe" d="M186.151,108.615c-0.033-0.019-0.067-0.047-0.1-0.084c-0.116-0.133-0.166-0.329-0.112-0.438
										l6.415-12.862c0.054-0.109,0.193-0.09,0.309,0.043c0.116,0.133,0.166,0.329,0.112,0.438l-6.415,12.862
										C186.321,108.653,186.238,108.665,186.151,108.615z"/></g><g><path fill="#0c8ebe" d="M199.094,111.817c-0.077-0.044-0.152-0.133-0.197-0.243L192.37,95.51
										c-0.069-0.171-0.038-0.326,0.07-0.348c0.108-0.021,0.252,0.099,0.321,0.27l6.527,16.063
										c0.069,0.171,0.038,0.326-0.07,0.348C199.18,111.852,199.137,111.841,199.094,111.817z"/></g><g><path fill="#0c8ebe" d="M205.586,118.862c-0.03-0.017-0.061-0.042-0.091-0.074l-6.493-7.046
										c-0.118-0.128-0.174-0.325-0.124-0.44c0.05-0.114,0.186-0.103,0.304,0.025l6.492,7.046c0.118,0.128,0.174,0.325,0.124,0.44
										C205.762,118.899,205.676,118.914,205.586,118.862z"/></g><g><path fill="#0c8ebe" d="M212.068,123.145c-0.006-0.003-0.011-0.007-0.017-0.011l-6.482-4.283
										c-0.128-0.085-0.225-0.275-0.216-0.424c0.009-0.15,0.119-0.203,0.248-0.118l6.482,4.283
										c0.128,0.085,0.225,0.275,0.216,0.424C212.29,123.159,212.189,123.214,212.068,123.145z"/></g><g><path fill="#0c8ebe" d="M212.068,123.145c-0.027-0.015-0.055-0.037-0.081-0.064c-0.12-0.123-0.182-0.32-0.138-0.44
										l6.398-17.304c0.044-0.12,0.178-0.117,0.298,0.006s0.182,0.32,0.138,0.44l-6.398,17.304
										C212.25,123.179,212.162,123.199,212.068,123.145z"/></g></g></g><g><g><g><g><polygon fill="#ef4136" points="140.7 82.021 140.886 82.127 140.887 82.352 140.701 82.246"/><polygon fill="#ef4136" points="141.353 83.181 140.238 82.544 140.233 81.192 141.348 81.829"/></g><g><polygon fill="#ef4136" points="147.168 82.868 147.354 82.974 147.355 83.2 147.169 83.093"/><polygon fill="#ef4136" points="147.822 84.029 146.706 83.391 146.701 82.039 147.817 82.676"/></g><g><polygon fill="#ef4136" points="153.528 55.658 153.714 55.764 153.715 55.989 153.529 55.883"/><polygon fill="#ef4136" points="154.182 56.818 153.066 56.181 153.061 54.829 154.176 55.466"/></g><g><polygon fill="#ef4136" points="160.128 90.481 160.314 90.587 160.315 90.812 160.129 90.706"/><polygon fill="#ef4136" points="160.781 91.641 159.666 91.004 159.661 89.652 160.776 90.289"/></g><g><polygon fill="#ef4136" points="166.523 72.495 166.709 72.601 166.71 72.826 166.524 72.72"/><polygon fill="#ef4136" points="167.177 73.655 166.062 73.018 166.057 71.666 167.172 72.303"/></g><g><polygon fill="#ef4136" points="172.981 70.514 173.167 70.621 173.167 70.846 172.982 70.74"/><polygon fill="#ef4136" points="173.634 71.675 172.519 71.037 172.514 69.685 173.629 70.323"/></g><g><polygon fill="#ef4136" points="179.544 95.756 179.729 95.863 179.73 96.088 179.544 95.982"/><polygon fill="#ef4136" points="180.197 96.917 179.082 96.28 179.077 94.927 180.192 95.565"/></g><g><polygon fill="#ef4136" points="186.057 108.224 186.243 108.33 186.244 108.556 186.058 108.45"/><polygon fill="#ef4136" points="186.71 109.385 185.595 108.747 185.59 107.395 186.705 108.033"/></g><g><polygon fill="#ef4136" points="192.375 70.292 192.561 70.398 192.562 70.624 192.376 70.518"/><polygon fill="#ef4136" points="193.029 71.453 191.913 70.815 191.908 69.463 193.023 70.101"/></g><g><polygon fill="#ef4136" points="199.017 115.928 199.203 116.035 199.204 116.26 199.018 116.154"/><polygon fill="#ef4136" points="199.671 117.089 198.555 116.452 198.55 115.1 199.665 115.737"/></g><g><polygon fill="#ef4136" points="205.302 69.415 205.488 69.521 205.489 69.747 205.303 69.641"/><polygon fill="#ef4136" points="205.956 70.576 204.84 69.938 204.835 68.586 205.95 69.224"/></g><g><polygon fill="#ef4136" points="211.891 101.533 212.077 101.639 212.078 101.865 211.892 101.758"/><polygon fill="#ef4136" points="212.545 102.694 211.43 102.056 211.424 100.704 212.54 101.341"/></g><g><polygon fill="#ef4136" points="218.408 114.906 218.594 115.012 218.595 115.238 218.409 115.132"/><polygon fill="#ef4136" points="219.062 116.067 217.947 115.429 217.941 114.077 219.057 114.715"/></g></g></g><g><g><g><polygon fill="#ef4136" points="140.702 82.642 140.888 82.749 140.889 82.974 140.703 82.868"/><polygon fill="#ef4136" points="141.356 83.803 140.241 83.165 140.235 81.813 141.351 82.451"/></g><g><polygon fill="#ef4136" points="147.154 79.305 147.34 79.411 147.341 79.636 147.155 79.53"/><polygon fill="#ef4136" points="147.808 80.465 146.693 79.828 146.688 78.476 147.803 79.113"/></g><g><polygon fill="#ef4136" points="153.657 88.908 153.842 89.014 153.843 89.239 153.658 89.133"/><polygon fill="#ef4136" points="154.31 90.068 153.195 89.431 153.19 88.079 154.305 88.716"/></g><g><polygon fill="#ef4136" points="160.022 63.067 160.208 63.173 160.208 63.398 160.023 63.292"/><polygon fill="#ef4136" points="160.675 64.227 159.56 63.59 159.555 62.237 160.67 62.875"/></g><g><polygon fill="#ef4136" points="166.535 75.382 166.721 75.488 166.721 75.713 166.535 75.607"/><polygon fill="#ef4136" points="167.188 76.542 166.073 75.905 166.068 74.553 167.183 75.19"/></g><g><polygon fill="#ef4136" points="173.084 97.267 173.27 97.373 173.271 97.598 173.085 97.492"/><polygon fill="#ef4136" points="173.738 98.427 172.623 97.79 172.617 96.438 173.733 97.075"/></g><g><polygon fill="#ef4136" points="179.518 89.034 179.703 89.14 179.704 89.365 179.518 89.259"/><polygon fill="#ef4136" points="180.171 90.194 179.056 89.557 179.051 88.205 180.166 88.842"/></g><g><polygon fill="#ef4136" points="186.054 107.504 186.24 107.61 186.241 107.835 186.055 107.729"/><polygon fill="#ef4136" points="186.708 108.664 185.592 108.027 185.587 106.675 186.702 107.312"/></g><g><polygon fill="#ef4136" points="192.531 110.671 192.717 110.777 192.718 111.002 192.532 110.896"/><polygon fill="#ef4136" points="193.185 111.831 192.07 111.194 192.065 109.842 193.18 110.479"/></g><g><polygon fill="#ef4136" points="198.994 110.031 199.18 110.137 199.181 110.363 198.995 110.256"/><polygon fill="#ef4136" points="199.648 111.192 198.532 110.554 198.527 109.202 199.643 109.84"/></g><g><polygon fill="#ef4136" points="205.386 91.16 205.572 91.266 205.573 91.492 205.387 91.385"/><polygon fill="#ef4136" points="206.04 92.321 204.924 91.683 204.919 90.331 206.035 90.968"/></g><g><polygon fill="#ef4136" points="211.964 120.166 212.149 120.272 212.15 120.498 211.964 120.392"/><polygon fill="#ef4136" points="212.617 121.327 211.502 120.689 211.497 119.337 212.612 119.975"/></g><g><polygon fill="#ef4136" points="218.447 124.925 218.633 125.032 218.634 125.257 218.448 125.151"/><polygon fill="#ef4136" points="219.101 126.086 217.985 125.449 217.98 124.096 219.095 124.734"/></g></g></g><g><g><g><polygon fill="#ef4136" points="140.702 82.642 140.888 82.749 140.889 82.974 140.703 82.868"/><polygon fill="#ef4136" points="141.356 83.803 140.241 83.165 140.235 81.813 141.351 82.451"/></g><g><polygon fill="#ef4136" points="147.067 56.711 147.253 56.817 147.254 57.042 147.068 56.936"/><polygon fill="#ef4136" points="147.721 57.871 146.605 57.234 146.6 55.882 147.715 56.519"/></g><g><polygon fill="#ef4136" points="153.618 78.973 153.804 79.079 153.805 79.304 153.619 79.198"/><polygon fill="#ef4136" points="154.272 80.133 153.156 79.496 153.151 78.144 154.267 78.781"/></g><g><polygon fill="#ef4136" points="160.137 92.938 160.323 93.044 160.324 93.269 160.138 93.163"/><polygon fill="#ef4136" points="160.791 94.098 159.676 93.461 159.671 92.108 160.786 92.746"/></g><g><polygon fill="#ef4136" points="166.61 94.93 166.796 95.036 166.797 95.262 166.611 95.155"/><polygon fill="#ef4136" points="167.264 96.091 166.149 95.453 166.143 94.101 167.259 94.738"/></g><g><polygon fill="#ef4136" points="173.097 100.542 173.283 100.649 173.284 100.874 173.098 100.768"/><polygon fill="#ef4136" points="173.751 101.703 172.635 101.066 172.63 99.713 173.745 100.351"/></g><g><polygon fill="#ef4136" points="179.453 72.477 179.639 72.583 179.64 72.809 179.454 72.702"/><polygon fill="#ef4136" points="180.107 73.638 178.992 73 178.986 71.648 180.102 72.285"/></g><g><polygon fill="#ef4136" points="186.057 108.168 186.242 108.274 186.243 108.499 186.057 108.393"/><polygon fill="#ef4136" points="186.71 109.328 185.595 108.691 185.59 107.339 186.705 107.976"/></g><g><polygon fill="#ef4136" points="192.472 95.306 192.658 95.412 192.659 95.637 192.473 95.531"/><polygon fill="#ef4136" points="193.126 96.466 192.01 95.829 192.005 94.477 193.12 95.114"/></g><g><polygon fill="#ef4136" points="198.999 111.369 199.185 111.475 199.186 111.701 199 111.594"/><polygon fill="#ef4136" points="199.653 112.53 198.538 111.892 198.532 110.54 199.648 111.177"/></g><g><polygon fill="#ef4136" points="205.492 118.415 205.678 118.521 205.678 118.746 205.493 118.64"/><polygon fill="#ef4136" points="206.145 119.575 205.03 118.938 205.025 117.586 206.14 118.223"/></g><g><polygon fill="#ef4136" points="211.973 122.697 212.159 122.803 212.16 123.029 211.974 122.923"/><polygon fill="#ef4136" points="212.627 123.858 211.512 123.22 211.506 121.868 212.622 122.506"/></g><g><polygon fill="#ef4136" points="218.372 105.393 218.557 105.499 218.558 105.725 218.372 105.618"/><polygon fill="#ef4136" points="219.025 106.554 217.91 105.916 217.904 104.564 219.02 105.201"/></g></g></g></g></g></g></g></g><g><path fill="#582d91" d="M208.447,109.903l-1.157-2.184c-1.139-0.789-0.426,6.345-1.782,6.474c-0.191,0.018-1.834-3.725-2.072-4.837
				c-0.059-0.278-0.447-0.299-0.536-0.03c-0.56,1.706-0.172,6.968,0.772,8.025l-1.267,2.206c-0.066,0.002-0.132,0.002-0.199,0.007
				c-0.252,0.019-0.439,0.237-0.42,0.488c0.01,0.125,0.069,0.234,0.157,0.31l-4.218,7.346c-0.624,0.041-1.184,0.351-1.632,1.071
				l-0.35,0.567l0,0l-0.79,1.278l0,0l-2.249,3.638c-0.522,0.84-1.743,1.549-3.265,1.897l-19.637,3.472
				c-1.018-0.745-2.429-1.452-3.94-2.088c-0.123-1.714-0.267-3.701-0.407-6.026c1.547-0.215,2.843-0.692,3.591-1.442
				c1.874-1.877,2.747-9.872,3.122-15.038c1.181-0.786,2.076-1.829,2.222-3.474c0.348-3.897-3.428-9.956-9.821-11.556v140.264
				c0.727-0.191,1.43-0.486,2.097-0.923c2.349-1.535,2.323-18.788,2.268-20.407c-0.271-8.01-0.601-16.021-0.719-24.036
				c-0.034-2.31-0.053-4.62-0.045-6.93c0.008-2.216,0.022-4.435,0.08-6.652c0.023-0.002,0.046-0.004,0.069-0.006
				c0.346-0.029,0.604-0.332,0.576-0.679c-0.026-0.32-0.289-0.56-0.603-0.574c0.116-3.346,0.346-6.686,0.832-10.003
				c0.565-3.857,4.858-9.006,5.984-12.712c0.053-0.175,0.104-0.346,0.152-0.514c0.017-0.059,0.032-0.117,0.049-0.175
				c0.03-0.108,0.061-0.215,0.088-0.32c0.019-0.068,0.035-0.135,0.053-0.203c0.024-0.091,0.047-0.183,0.069-0.272
				c0.018-0.073,0.034-0.144,0.051-0.215c0.019-0.082,0.038-0.163,0.056-0.243c0.016-0.074,0.031-0.147,0.046-0.221
				c0.015-0.074,0.03-0.148,0.045-0.221c0.014-0.076,0.028-0.15,0.041-0.225c0.012-0.069,0.024-0.137,0.035-0.205
				c0.012-0.076,0.023-0.151,0.034-0.225c0.009-0.065,0.018-0.129,0.026-0.193c0.01-0.076,0.019-0.152,0.026-0.227
				c0.007-0.061,0.012-0.122,0.018-0.182c0.007-0.076,0.013-0.153,0.019-0.228c0.004-0.057,0.007-0.113,0.009-0.17
				c0.004-0.078,0.008-0.156,0.01-0.233c0.001-0.053,0.002-0.105,0.002-0.158c0.001-0.08,0.002-0.16,0.001-0.24
				c-0.001-0.047-0.003-0.093-0.004-0.139c-0.002-0.085-0.005-0.17-0.01-0.254c-0.002-0.035-0.005-0.071-0.008-0.106
				c-0.031-0.449-0.095-0.896-0.194-1.354c-0.001-0.004-0.001-0.007-0.002-0.011c0.062-0.031,0.127-0.062,0.189-0.093
				c0.112-0.055,0.226-0.112,0.34-0.168c0.165-0.081,0.331-0.163,0.499-0.246c0.118-0.058,0.236-0.117,0.356-0.176
				c0.17-0.084,0.341-0.168,0.513-0.253c0.163-0.08,0.327-0.161,0.491-0.243c0.071-0.035,0.142-0.07,0.213-0.105
				c0.182-0.09,0.365-0.181,0.549-0.271c0.096-0.048,0.191-0.095,0.288-0.142c0.23-0.114,0.46-0.228,0.692-0.342
				c0.049-0.024,0.098-0.048,0.147-0.072c0.253-0.125,0.506-0.25,0.759-0.376c0.017-0.008,0.033-0.016,0.05-0.024
				c0.287-0.142,0.575-0.285,0.861-0.427l0.002-0.001c0.29-0.144,0.579-0.287,0.867-0.43c0.304-0.151,0.605-0.301,0.904-0.449
				c0.448-0.223,0.889-0.442,1.321-0.657c0.288-0.143,0.571-0.284,0.848-0.423c0.416-0.208,0.82-0.41,1.209-0.604
				c0.259-0.13,0.511-0.256,0.755-0.378c1.585-0.796,2.833-1.43,3.467-1.768c3.914-2.088,6.209-2.601,7.767-5.106
				c1.064-1.71,1.811-2.909,2.388-3.843c0.017,0.06,0.036,0.118,0.051,0.18c0.38-0.353,0.62-0.83,0.678-1.346
				c-0.001-0.005-0.004-0.01-0.005-0.015c0.108-0.178,0.211-0.348,0.309-0.511c0.059-0.098,0.109-0.194,0.154-0.288
				c0.015-0.031,0.026-0.062,0.04-0.093c0.027-0.062,0.053-0.124,0.073-0.185c0.012-0.036,0.023-0.071,0.033-0.107
				c0.016-0.054,0.03-0.108,0.041-0.161c0.008-0.036,0.015-0.073,0.02-0.109c0.008-0.051,0.013-0.101,0.017-0.151
				c0.003-0.036,0.006-0.071,0.006-0.106c0.001-0.049-0.002-0.098-0.005-0.147c-0.002-0.033-0.003-0.067-0.007-0.1
				c-0.007-0.055-0.019-0.109-0.031-0.163c-0.011-0.051-0.025-0.101-0.041-0.151c-0.014-0.046-0.028-0.092-0.047-0.137
				c-0.016-0.04-0.035-0.078-0.054-0.117c-0.016-0.034-0.032-0.068-0.05-0.101c-0.022-0.041-0.047-0.082-0.072-0.122
				c-0.018-0.029-0.037-0.059-0.057-0.088c-0.029-0.042-0.059-0.084-0.09-0.125c-0.02-0.025-0.04-0.05-0.06-0.075
				c-0.036-0.044-0.073-0.088-0.112-0.131c-0.016-0.018-0.033-0.035-0.05-0.053c-0.052-0.056-0.106-0.111-0.164-0.165l4.177-6.955
				c0.085,0.013,0.174,0.011,0.258-0.027c0.036-0.017,0.069-0.037,0.098-0.062c0.156-0.127,0.214-0.349,0.126-0.542
				c-0.015-0.032-0.032-0.063-0.048-0.094l1.536-2.557c1.081-0.685,1.773-1.493,1.739-4.135
				C209.638,113.676,209.624,110.871,208.447,109.903z" opacity=".1"/><path d="M136.859,259.469c-8.663,3.76-11.067,17.25-4.226,23.76c7.315,6.962,21.117,9.62,30.399,6.347
				c7.8-2.75,9.828-10.594,5.332-17.319C162.4,263.336,147.469,254.864,136.859,259.469z" opacity=".09"/><g><path fill="#f6b18a" d="M150.702,223.384c0,0-3.827,35.632-3.995,38.457c-0.263,4.438,0.262,8.597,2.447,8.061
					c0.674-0.165-0.358,1.701-1.154,2.828c-0.846,1.198-1.903-5.304-3.638-5.533c-2.087-0.275-1.588-3.197-1.372-5.353
					c0.217-2.156-1.846-32.545-1.846-40.996C141.145,210.938,150.702,223.384,150.702,223.384z"/><path fill="#5c3937" d="M150.617,269.388c-0.346-0.076-2.099,0.531-2.099,0.531l0.697,0.082c0,0-1.527,1.951-1.587,1.707
					c-0.467-1.916-1.99-6.091-2.578-7.679c-0.145-0.392-0.677-0.862-1.089-0.93c-0.688-0.113-1.205-0.104-1.625,0.692
					c-0.248,0.47-0.658,1.388-0.531,1.871c0.16,0.612,0.353,0.851,0.576,0.993l0.201,7.188l0.736,0.398l-0.201-7.205
					c0.264,0.19,0.556,0.52,0.873,1.217c0.672,1.474,1.714,3.194,1.531,4.411c-0.085,0.565,0.24,1.114,0.785,1.287
					c0.627,0.2,1.485,0.307,2.328-0.122C150.245,273.011,150.963,269.465,150.617,269.388z"/></g><g><path fill="#f6b18a" d="M166.672,222.858c0,0-9.952,41.699-10.198,44.518c-0.387,4.428,0.022,8.601,2.221,8.126
					c0.679-0.147-0.406,1.69-1.233,2.794c-0.879,1.174-1.754-5.355-3.482-5.632c-2.078-0.333-1.499-3.24-1.222-5.389
					c0.277-2.149-0.069-33.648,5.292-41.984C163.411,216.956,166.672,222.858,166.672,222.858z"/><path fill="#5c3937" d="M160.171,275.029c-0.344-0.086-2.113,0.472-2.113,0.472l0.695,0.101c0,0-1.581,1.908-1.634,1.663
					c-0.413-1.928-1.819-6.144-2.363-7.748c-0.134-0.395-0.688-0.991-1.098-1.07c-0.688-0.132-1.166-0.026-1.607,0.758
					c-0.261,0.463-0.696,1.369-0.583,1.855c0.143,0.616,0.329,0.86,0.548,1.008v7.191l0.725,0.418v-7.208
					c0.259,0.197,0.541,0.535,0.839,1.241c0.631,1.493,1.624,3.241,1.407,4.452c-0.101,0.563,0.208,1.12,0.748,1.309
					c0.621,0.217,1.476,0.348,2.331-0.057C159.698,278.641,160.515,275.115,160.171,275.029z"/></g><g><path fill="#f6b18a" d="M150.67,194.355c-1.938-1.796-3.056-3.267-2.882-5.993l-6.669-11.567c-0.825-1.268-0.347-4.035,0.894-4.9
					c1.312-0.915,2.752-0.492,3.609,0.825l6.218,13.217c1.759-0.264,4.536,2.032,5.32,2.611c0.926,0.684,0.646,1.699-0.358,0.838
					c-1.005-0.861-2.477-0.801-2.681-0.033c-0.35,1.316,3.437,4.408,1.391,5.739l-1.003,0.427
					C153.053,195.972,152.154,195.73,150.67,194.355z"/><path fill="#7369b5" d="M135.676,165.557c0.086-1.018,0.276-2.039,0.573-3.053l7.11-24.263c0.724-2.47,3.313-3.886,5.784-3.162
					c2.47,0.724,3.883,3.313,3.162,5.784l-7.109,24.263c-0.41,1.401-0.309,2.793,0.287,3.917l2.247,4.289
					c1.208,2.275,0.341,5.095-1.932,6.302c-2.274,1.207-5.096,0.342-6.302-1.933l-2.247-4.289
					C135.976,171.015,135.444,168.304,135.676,165.557z"/><path fill="#582d91" d="M145.285,179.864c0.173-0.067,0.344-0.141,0.512-0.23c2.273-1.207,3.14-4.027,1.932-6.302l-2.247-4.289
					c-0.596-1.124-0.697-2.516-0.288-3.917l7.11-24.263c0.65-2.229-0.439-4.549-2.471-5.514c-4.573,8.232-5.801,16.807-7.916,25.975
					C140.531,167.703,141.897,174.449,145.285,179.864z" opacity=".1"/></g><path fill="#2b3d68" d="M138.896,184.238c-0.288,0.558-0.534,1.126-0.709,1.707c-0.781,2.596-0.881,5.332-0.865,8.034
				c0.061,10.303,1.812,19.151,3.479,29.329c0.196,1.196-1.001,4.044-0.311,5.059c0.79,1.162,2.848,2.731,4.155,3.328
				c6.372,2.912,14.863,9.413,20.765,5.557c2.349-1.535,2.323-18.788,2.268-20.407c-0.271-8.01-0.601-16.021-0.719-24.036
				C156.737,193.107,145.665,191.582,138.896,184.238z"/><path fill="#f78693" d="M167.867,167.964c0.565-3.857,4.858-9.006,5.984-12.712c1.769-5.821,0.827-7.608-3.957-16.329
				c-1.477-2.693-9.882-5.184-12.792-6.066c-2.613-0.793-6.76-4.266-9.37-4.567c-6.45-0.744-6.801,5.317-6.182,9.799
				c0.846,6.123,2.378,12.353,3.275,18.551c0.849,5.86,3.398,13.471,0.326,18.877c-1.639,2.886-4.671,5.652-6.255,8.72
				c6.769,7.344,17.841,8.869,28.062,8.571c-0.034-2.31-0.053-4.62-0.045-6.93C166.933,179.899,166.998,173.895,167.867,167.964z"/><path fill="#582d91" d="M170.86,140.689c-4.942,2.154-9.906,4.906-10.905,10.567c-1.678,9.229,2.097,17.199,0.419,26.428
				c-0.839,7.131-5.034,12.165-7.131,18.877c-2.937,10.068,3.356,19.297,2.097,29.365c-0.894,5.96-6.445,5.78-11.991,5.026
				c0.462,0.308,0.911,0.568,1.294,0.743c6.372,2.912,14.863,9.413,20.765,5.557c2.349-1.535,2.323-18.788,2.268-20.407
				c-0.271-8.01-0.601-16.021-0.719-24.036c-0.034-2.31-0.053-4.62-0.045-6.93c0.021-5.979,0.085-11.983,0.954-17.914
				c0.565-3.857,4.858-9.006,5.984-12.712C175.493,149.848,174.796,147.917,170.86,140.689z" opacity=".1"/><path fill="#e0a17e" d="M151.766,124.86c-0.202,3.523-1.307,3.574-0.548,5.648c1.539,4.206,7.292,5.212,10.512,3.209
				c0,0-1.275-3.035-1.304-4.01c-0.039-1.304,1.046-3.086-0.735-4.339C158.067,124.225,151.766,124.86,151.766,124.86z"/><path fill="#f6b18a" d="M171.163,108.43c0,0-0.552,16.72-3.375,19.548c-2.823,2.829-13.389,1.801-16.144-2.674
				c-4.744-7.705-8.847-10.135-2.872-20.006c3.995-6.6,9.951-8.108,15.468-5.362C167.732,101.674,170.291,102.861,171.163,108.43z"/><g><path fill="#f6b18a" d="M208.401,113.18c0.035,2.642-0.658,3.45-1.739,4.134l-8.617,14.346c-0.609,1.384-0.924,1.529-2.328,0.965
					c-1.484-0.596-1.919-2.033-1.287-3.471l7.983-13.902c-0.944-1.057-0.913-5.06-0.352-6.767c0.089-0.27,0.477-0.249,0.536,0.029
					c0.237,1.111,1.461,3.597,1.652,3.579c1.356-0.129,2.205-5.935,3.344-5.146v2.578C208.77,110.495,208.38,111.579,208.401,113.18
					z"/><path fill="#7369b5" d="M200.967,130.426c-0.697,1.163-1.592,2.597-3.42,5.535c-1.559,2.505-3.853,3.018-7.767,5.106
					c-3.122,1.666-21.105,10.496-21.105,10.496c-1.935,0.442-4.831-2.563-4.774-6.883c0.026-1.985,1.739-6.535,3.672-6.976
					l20.607-3.643c1.521-0.348,2.742-1.056,3.265-1.896l3.389-5.483c1.049-1.685,2.705-1.14,4.39-0.092
					C200.891,127.628,201.973,128.748,200.967,130.426z"/><path fill="#b4a3cf" d="M199.895,127.042c-6.488,13.766-21.354,14.534-35.595,15.481c-0.245,0.824-0.392,1.595-0.4,2.158
					c-0.057,4.321,2.839,7.325,4.774,6.883c0,0,17.982-8.83,21.105-10.496c3.914-2.088,6.209-2.601,7.767-5.106
					c1.828-2.938,2.723-4.372,3.42-5.535C201.829,128.988,201.155,127.96,199.895,127.042z" opacity=".4"/><path fill="#fff" d="M194.483,127.249c2.73-0.684,5.497,0.975,6.18,3.704c-0.057,0.515-0.298,0.993-0.678,1.346
					c-1.101-4.517-6.292-3.772-6.292-3.772L194.483,127.249z"/></g><path fill="#f6b18a" d="M160.156,116.903c0,1.38,0.744,2.927,1.662,3.458c0.918,0.53,1.662-0.159,1.662-1.538
				s-0.744-2.927-1.662-3.458C160.9,114.835,160.156,115.524,160.156,116.903z"/><path fill="#5c3937" d="M173.133,109.466c-0.497,5.568-9.536,4.261-9.398,9.311c0.761,27.959,4.048,25.145-5.069,33.95
				c-8.02,7.746-23.092-0.521-21.328-11.531c2.678-16.717,3.42-37.006,16.429-42.366
				C165.716,93.905,173.629,103.898,173.133,109.466z"/><g><path fill="#2b3d68" d="M205.048,120.507c-0.029,0.024-0.063,0.045-0.098,0.061c-0.229,0.104-0.499,0.004-0.603-0.225
					c-0.586-1.283-1.925-2.074-3.331-1.969c-0.25,0.019-0.469-0.17-0.488-0.42c-0.018-0.25,0.169-0.469,0.42-0.488
					c1.785-0.134,3.483,0.87,4.227,2.498C205.262,120.158,205.204,120.38,205.048,120.507z"/><path fill="#7369b5" d="M204.13,117.63c0.517,0.343,0.691,0.992,0.387,1.451c-0.304,0.458-0.969,0.552-1.486,0.21
					c-0.517-0.343-0.691-0.992-0.387-1.451C202.947,117.381,203.612,117.287,204.13,117.63z"/><path fill="#fff" d="M204.031,117.779c0.424,0.281,0.567,0.814,0.318,1.19c-0.249,0.376-0.795,0.453-1.219,0.172
					c-0.424-0.281-0.567-0.814-0.318-1.19C203.06,117.575,203.606,117.498,204.031,117.779z"/></g><path fill="#2b3d68" d="M158.859,179.736c-5.085,0-10.029-1.015-13.481-5.436c-0.214-0.274-0.165-0.669,0.109-0.883
				c0.273-0.214,0.669-0.165,0.883,0.109c4.556,5.833,12.273,5.162,19.081,4.568c0.508-0.044,1.011-0.088,1.508-0.129
				c0.347-0.026,0.65,0.229,0.679,0.576c0.028,0.347-0.229,0.65-0.576,0.679c-0.495,0.041-0.996,0.084-1.502,0.128
				C163.377,179.538,161.104,179.736,158.859,179.736z"/></g></g></g></svg>