<svg xmlns="http://www.w3.org/2000/svg" enable-background="new 0 0 2000 2000" viewBox="56.376 430.114 1887.248 1414.732" class="d-none"><g opacity=".41" fill="#000000" class="color000 svgShape"><path fill="#abcbff" d="M142.16,932.37L142.16,932.37c0-101.28,88.06-183.38,196.68-183.38h41.03    c-19.19-15.49-31.35-38.35-31.35-63.87v0c0-46.65,40.56-84.47,90.59-84.47h136.55c-13.81-11.08-22.59-27.47-22.59-45.79    c0-33.38,29.02-60.44,64.82-60.44h342.87c35.8,0,64.82,27.06,64.82,60.44c0,33.38-29.02,60.44-64.82,60.44H832.38    c-23.9,15.21-39.6,40.8-39.6,69.82v0c0,25.52,12.16,48.38,31.35,63.87h211.14c108.62,0,196.68,82.1,196.68,183.38l0,0    c0,101.28-88.06,183.38-196.68,183.38h279.71c50.03,0,90.59,37.82,90.59,84.47c0,46.65-40.56,84.47-90.59,84.47h113.97    c124.52,0,227.88,84.17,248.4,194.8h39.91c77.64,0,140.58,58.68,140.58,131.07v13.28c0,72.39-62.94,131.07-140.58,131.07h-288.31    H485.4h-91.07c-139.27,0-252.17-105.26-252.17-235.11v0c0-129.85,112.9-235.11,252.17-235.11h441.46    c-50.03,0-90.59-37.82-90.59-84.47c0-46.65,40.56-84.47,90.59-84.47H338.84C230.22,1115.75,142.16,1033.65,142.16,932.37z" class="colorabe9ff svgShape"/><ellipse cx="1144.48" cy="554.86" fill="#abcbff" rx="58.89" ry="60.44" class="colorabe9ff svgShape"/></g><path fill="#1f2320" d="M1857.84,1753.58c0,22.45-392.68,26.96-866.46,26.96c-473.77,0-849.22-4.51-849.22-26.96   c0-22.45,383.91-21.75,857.68-21.75C1473.61,1731.83,1857.84,1731.13,1857.84,1753.58z" opacity=".15" class="color231f20 svgShape"/><path fill="#4887f0" d="M515.1,1751.81l487.95-0.46c25.36-0.02,45.9-20.19,45.88-45.05L1048,774.09     c-0.03-25.51-21.15-46.17-47.18-46.15L515.3,728.4c-26.03,0.02-47.11,20.73-47.09,46.24l0.92,932.21     C469.15,1731.7,489.73,1751.83,515.1,1751.81z" class="color48c1f0 svgShape"/><path fill="#11469e" d="M521.54,1742.66l475.03-0.45c24.75-0.02,44.8-19.63,44.77-43.8l-0.89-908.54     c-0.02-24.81-20.64-44.9-46.04-44.87l-472.66,0.44c-25.41,0.02-45.98,20.15-45.96,44.96l0.89,908.54     C476.71,1723.11,496.79,1742.69,521.54,1742.66z" class="color11499e svgShape"/><linearGradient id="a" x1="-3435.633" x2="-3435.633" y1="799.579" y2="1680.96" gradientTransform="matrix(-1 0 0 1 -2677.065 0)" gradientUnits="userSpaceOnUse"><stop offset="0" stop-color="#ffffff" class="stopColorfff svgShape"/><stop offset=".1" stop-color="#f0f5fd" class="stopColorf0f9fd svgShape"/><stop offset=".299" stop-color="#d7e5fb" class="stopColord7f0fb svgShape"/><stop offset=".509" stop-color="#c6d9f9" class="stopColorc6e9f9 svgShape"/><stop offset=".734" stop-color="#bbd2f7" class="stopColorbbe5f7 svgShape"/><stop offset="1" stop-color="#b8d0f7" class="stopColorb8e4f7 svgShape"/></linearGradient><polygon fill="url(#a)" points="520.25 1680.96 997.66 1680.46 996.89 799.58 519.47 800.08"/><rect width="190.49" height="13.6" x="663.81" y="766.63" fill="#ffffff" class="colorfff svgShape"/><path fill="#ffffff" d="M702.79,1726.81l112.57-0.11c4.7,0,8.51-3.14,8.51-7.01l-0.01-11.79c0-3.87-3.82-7-8.52-7l-112.56,0.11     c-4.7,0.01-8.51,3.14-8.51,7.01l0.01,11.79C694.27,1723.68,698.08,1726.82,702.79,1726.81z" class="colorfff svgShape"/><polygon fill="#ffffff" points="519.52 858.44 997.52 1567.92 997.61 1680.42 520.2 1680.96" opacity=".34" class="colorfff svgShape"/><rect width="477.42" height="41.01" x="520.35" y="799.81" fill="#c0d1ed" class="colorc0dced svgShape"/><path fill="#4285f4" d="M822.57,1227.67H672.86c-5.53,0-10.02,4.49-10.02,10.02v104.6c0,5.53,4.49,10.02,10.02,10.02h149.71     c5.53,0,10.02-4.49,10.02-10.02v-104.6C832.58,1232.16,828.1,1227.67,822.57,1227.67z" class="color3c9ef1 svgShape"/><path fill="#ffffff" d="M712.97 1286.93c6.49-.09 7.23-3.61 7.23-6.58 0-2.41-.28-4.91-.56-7.41-.37-2.6-.65-5.1-.65-7.51 0-8.71 5.56-12.42 13.81-12.42h2.69v6.67h-1.67c-4.82 0-6.49 2.69-6.49 7.23 0 1.85.28 3.8.65 5.84.19 2.04.56 4.26.56 6.67.09 6.49-2.69 9.27-7.41 10.38v.19c4.73 1.11 7.51 3.98 7.41 10.47 0 2.5-.37 4.72-.56 6.76-.37 2.04-.65 3.98-.65 5.84 0 4.63 1.85 7.32 6.49 7.32h1.67v6.58h-2.69c-8.06 0-13.81-3.34-13.81-12.69 0-2.32.28-4.91.65-7.41.28-2.5.56-4.91.56-7.32 0-2.69-.74-6.49-7.23-6.58V1286.93zM782.45 1292.95c-6.39.09-7.23 3.89-7.23 6.58 0 2.41.37 4.82.65 7.32.28 2.5.65 5.1.65 7.41 0 9.36-5.74 12.69-13.81 12.69h-2.69v-6.58h1.67c4.63-.09 6.4-2.69 6.4-7.32 0-1.85-.28-3.8-.56-5.84-.28-2.04-.56-4.26-.56-6.76-.09-6.49 2.69-9.36 7.32-10.47v-.19c-4.63-1.11-7.41-3.89-7.32-10.38 0-2.41.28-4.63.56-6.67.28-2.04.56-3.99.56-5.84 0-4.54-1.67-7.13-6.4-7.23h-1.67v-6.67h2.69c8.25 0 13.81 3.71 13.81 12.42 0 2.41-.37 4.91-.65 7.51-.28 2.5-.65 5-.65 7.41 0 2.97.83 6.49 7.23 6.58V1292.95z" class="colorfff svgShape"/><rect width="88.9" height="13.49" x="656.97" y="1404.16" fill="#94b4ea" class="color94bbea svgShape"/><rect width="194.07" height="13.49" x="756.19" y="1404.16" fill="#94b4ea" class="color94bbea svgShape"/><rect width="44.45" height="13.49" x="656.97" y="1462.37" fill="#94b4ea" class="color94bbea svgShape"/><rect width="162.32" height="13.49" x="726.03" y="1462.37" fill="#94b4ea" class="color94bbea svgShape"/><rect width="146.84" height="13.49" x="656.97" y="1433.27" fill="#94b4ea" class="color94bbea svgShape"/><rect width="95.02" height="13.49" x="824.06" y="1433.27" fill="#94b4ea" class="color94bbea svgShape"/><rect width="57.28" height="57.28" x="568.87" y="1404.16" fill="#6d99e2" class="color6da8e2 svgShape"/><g fill="#000000" class="color000 svgShape"><rect width="88.9" height="13.49" x="657.17" y="1527.72" fill="#94b4ea" class="color94bbea svgShape"/><rect width="194.07" height="13.49" x="756.39" y="1527.72" fill="#94b4ea" class="color94bbea svgShape"/><rect width="148.22" height="13.49" x="657.17" y="1585.93" fill="#94b4ea" class="color94bbea svgShape"/><rect width="72.83" height="13.49" x="815.72" y="1585.93" fill="#94b4ea" class="color94bbea svgShape"/><rect width="26" height="13.49" x="657.17" y="1556.83" fill="#94b4ea" class="color94bbea svgShape"/><rect width="227.78" height="13.49" x="691.5" y="1556.83" fill="#94b4ea" class="color94bbea svgShape"/><rect width="57.28" height="57.28" x="568.87" y="1527.72" fill="#6d99e2" class="color6da8e2 svgShape"/></g><g fill="#000000" class="color000 svgShape"><path fill="#1351b7" d="M558.23,1098.41H400.71c-6.43,0-11.64-5.21-11.64-11.64V946.88c0-6.43,5.21-11.64,11.64-11.64h157.52    c6.43,0,11.64,5.21,11.64,11.64v139.89C569.87,1093.2,564.65,1098.41,558.23,1098.41z" class="color1375b7 svgShape"/><path fill="#ffffff" d="M551.53,1090.43H400.19c-6.14,0-11.12-4.98-11.12-11.12V946.37c0-6.14,4.98-11.12,11.12-11.12h151.33    c6.14,0,11.12,4.98,11.12,11.12v132.94C562.65,1085.45,557.67,1090.43,551.53,1090.43z" class="colorfff svgShape"/><path fill="#386dc6" d="M509.33 1007.16l-16.12 28.52-33.47-59.51-70.46 105.19c.55 5.65 5.16 10.11 10.95 10.11h151.26c6.16 0 11.16-5 11.16-11.16v-15.61L509.33 1007.16zM537.23 972.3c0 7.45-6.04 13.49-13.49 13.49-7.45 0-13.49-6.04-13.49-13.49 0-7.45 6.04-13.49 13.49-13.49C531.19 958.8 537.23 964.84 537.23 972.3z" class="color3885c6 svgShape"/></g><g fill="#000000" class="color000 svgShape"><path fill="#1351b7" d="M1073.99,1367.69h-97.66c-3.65,0-6.61-2.96-6.61-6.61v-72.64c0-3.65,2.96-6.61,6.61-6.61h97.66    c3.65,0,6.61,2.96,6.61,6.61v72.64C1080.61,1364.73,1077.65,1367.69,1073.99,1367.69z" class="color1375b7 svgShape"/><path fill="#ffffff" d="M1069.86,1363.49h-93.82c-3.49,0-6.32-2.83-6.32-6.32v-69.03c0-3.49,2.83-6.32,6.32-6.32h93.82    c3.49,0,6.32,2.83,6.32,6.32v69.03C1076.18,1360.66,1073.35,1363.49,1069.86,1363.49z" class="colorfff svgShape"/><path fill="#386dc6" d="M1043.48 1319.66l-9.89 15.01-20.53-31.32-43.22 55.36c.34 2.97 3.16 5.32 6.72 5.32h92.77c3.78 0 6.84-2.63 6.84-5.87v-8.21L1043.48 1319.66zM1057.83 1301.32c0 3.92-3.09 7.1-6.9 7.1-3.81 0-6.9-3.18-6.9-7.1 0-3.92 3.09-7.1 6.9-7.1C1054.75 1294.22 1057.83 1297.4 1057.83 1301.32z" class="color3885c6 svgShape"/></g><g fill="#000000" class="color000 svgShape"><rect width="150.05" height="111.23" x="397.97" y="767.27" fill="#b0c3e2" class="colorb0dfe2 svgShape"/><rect width="146.6" height="106.47" x="397.97" y="767.27" fill="#ffffff" class="colorfff svgShape"/><path fill="#2d579d" d="M421.7 821.95l33.4-16.21v6.34l-26.5 12.33v.14l26.5 12.4v6.27l-33.4-16.21V821.95zM459.96 846.05l17.2-51.09h6.06l-17.2 51.09H459.96zM520.84 827.17l-33.4 16.07v-6.27l26.92-12.4v-.14l-26.92-12.4v-6.27l33.4 16.07V827.17z" class="color2d4c9d svgShape"/></g><g fill="#000000" class="color000 svgShape"><path fill="#216734" d="M1543.23,1202.53H658.91c-11.59,0-20.98-9.39-20.98-20.98V637.42c0-11.59,9.39-20.98,20.98-20.98h884.32    c11.59,0,20.98,9.39,20.98,20.98v544.14C1564.21,1193.14,1554.82,1202.53,1543.23,1202.53z" class="color213267 svgShape"/><rect width="892.93" height="539.36" x="654.61" y="631.84" fill="#229240" class="color224192 svgShape"/><path fill="#2d579d" d="M835.45,1147.46H688.5c-4.15,0-7.51-3.36-7.51-7.51V656.03c0-4.15,3.36-7.51,7.51-7.51h146.94    c4.15,0,7.51,3.36,7.51,7.51v483.92C842.96,1144.1,839.59,1147.46,835.45,1147.46z" class="color2d4c9d svgShape"/><path fill="#ffffff" d="M768.3 692.58h-64.21c-1.45 0-2.63-1.18-2.63-2.63v-5.48c0-1.45 1.18-2.63 2.63-2.63h64.21c1.45 0 2.63 1.18 2.63 2.63v5.48C770.93 691.4 769.76 692.58 768.3 692.58zM802.82 716.95h-98.73c-1.45 0-2.63-1.18-2.63-2.63v-5.48c0-1.45 1.18-2.63 2.63-2.63h98.73c1.45 0 2.63 1.18 2.63 2.63v5.48C805.45 715.77 804.27 716.95 802.82 716.95zM784.9 741.32h-80.81c-1.45 0-2.63-1.18-2.63-2.63v-5.48c0-1.45 1.18-2.63 2.63-2.63h80.81c1.45 0 2.63 1.18 2.63 2.63v5.48C787.54 740.14 786.36 741.32 784.9 741.32zM742.12 765.69h-38.27c-1.32 0-2.38-1.07-2.38-2.38v-5.97c0-1.32 1.07-2.38 2.38-2.38h38.27c1.32 0 2.38 1.07 2.38 2.38v5.97C744.5 764.62 743.43 765.69 742.12 765.69zM756.07 790.05h-51.98c-1.45 0-2.63-1.18-2.63-2.63v-5.48c0-1.45 1.18-2.63 2.63-2.63h51.98c1.45 0 2.63 1.18 2.63 2.63v5.48C758.7 788.88 757.52 790.05 756.07 790.05zM779.66 814.42h-75.57c-1.45 0-2.63-1.18-2.63-2.63v-5.48c0-1.45 1.18-2.63 2.63-2.63h75.57c1.45 0 2.63 1.18 2.63 2.63v5.48C782.29 813.25 781.12 814.42 779.66 814.42zM756.07 838.79h-51.98c-1.45 0-2.63-1.18-2.63-2.63v-5.48c0-1.45 1.18-2.63 2.63-2.63h51.98c1.45 0 2.63 1.18 2.63 2.63v5.48C758.7 837.61 757.52 838.79 756.07 838.79zM805.88 863.16H704.09c-1.45 0-2.63-1.18-2.63-2.63v-5.48c0-1.45 1.18-2.63 2.63-2.63h101.79c1.45 0 2.63 1.18 2.63 2.63v5.48C808.51 861.98 807.33 863.16 805.88 863.16zM768.74 887.53h-64.65c-1.45 0-2.63-1.18-2.63-2.63v-5.48c0-1.45 1.18-2.63 2.63-2.63h64.65c1.45 0 2.63 1.18 2.63 2.63v5.48C771.37 886.35 770.19 887.53 768.74 887.53zM808.5 911.9H704.09c-1.45 0-2.63-1.18-2.63-2.63v-5.48c0-1.45 1.18-2.63 2.63-2.63H808.5c1.45 0 2.63 1.18 2.63 2.63v5.48C811.13 910.72 809.95 911.9 808.5 911.9zM775.29 936.27h-71.2c-1.45 0-2.63-1.18-2.63-2.63v-5.48c0-1.45 1.18-2.63 2.63-2.63h71.2c1.45 0 2.63 1.18 2.63 2.63v5.48C777.92 935.09 776.75 936.27 775.29 936.27zM744.45 960.64h-40.55c-1.35 0-2.45-1.1-2.45-2.45v-5.84c0-1.35 1.1-2.45 2.45-2.45h40.55c1.35 0 2.45 1.1 2.45 2.45v5.84C746.9 959.54 745.81 960.64 744.45 960.64zM997.12 692.58H885.28c-1.45 0-2.63-1.18-2.63-2.63v-5.48c0-1.45 1.18-2.63 2.63-2.63h111.84c1.45 0 2.63 1.18 2.63 2.63v5.48C999.75 691.4 998.57 692.58 997.12 692.58zM953.86 713.64h-70.76c-1.45 0-2.63-1.18-2.63-2.63v-5.48c0-1.45 1.18-2.63 2.63-2.63h70.77c1.45 0 2.63 1.18 2.63 2.63v5.48C956.49 712.47 955.31 713.64 953.86 713.64zM988.38 737.19h-70.77c-1.45 0-2.63-1.18-2.63-2.63v-5.48c0-1.45 1.18-2.63 2.63-2.63h70.77c1.45 0 2.63 1.18 2.63 2.63v5.48C991.01 736.01 989.83 737.19 988.38 737.19zM1046.49 758.66h-93.92c-1.45 0-2.63-1.18-2.63-2.63v-5.48c0-1.45 1.18-2.63 2.63-2.63h93.92c1.45 0 2.63 1.18 2.63 2.63v5.48C1049.12 757.49 1047.94 758.66 1046.49 758.66zM1025.52 780.14h-74.26c-1.45 0-2.63-1.18-2.63-2.63v-5.48c0-1.45 1.18-2.63 2.63-2.63h74.26c1.45 0 2.63 1.18 2.63 2.63v5.48C1028.15 778.96 1026.97 780.14 1025.52 780.14zM996.9 845.81h-81.03c-1.45 0-2.63-1.18-2.63-2.63v-5.48c0-1.45 1.18-2.63 2.63-2.63h81.03c1.45 0 2.63 1.18 2.63 2.63v5.48C999.53 844.64 998.35 845.81 996.9 845.81zM1054.57 890.42h-67.05c-1.45 0-2.63-1.18-2.63-2.63v-5.48c0-1.45 1.18-2.63 2.63-2.63h67.05c1.45 0 2.63 1.18 2.63 2.63v5.48C1057.21 889.24 1056.03 890.42 1054.57 890.42z" class="colorfff svgShape"/><path fill="#7990b5" d="M1095.28,912.73h-74.84c-1.45,0-2.63-1.18-2.63-2.63v-5.48c0-1.45,1.18-2.63,2.63-2.63h74.84     c1.45,0,2.63,1.18,2.63,2.63v5.48C1097.92,911.55,1096.74,912.73,1095.28,912.73z" class="color9d79b5 svgShape"/><path fill="#ffffff" d="M1061.2 957.33h-74.84c-1.45 0-2.63-1.18-2.63-2.63v-5.48c0-1.45 1.18-2.63 2.63-2.63h74.84c1.45 0 2.63 1.18 2.63 2.63v5.48C1063.83 956.15 1062.66 957.33 1061.2 957.33zM1042.12 1001.94h-88.53c-1.45 0-2.63-1.18-2.63-2.63v-5.48c0-1.45 1.18-2.63 2.63-2.63h88.53c1.45 0 2.63 1.18 2.63 2.63v5.48C1044.75 1000.76 1043.58 1001.94 1042.12 1001.94z" class="colorfff svgShape"/><path fill="#f4968e" d="M1149.61,1001.94h-88.53c-1.45,0-2.63-1.18-2.63-2.63v-5.48c0-1.45,1.18-2.63,2.63-2.63h88.53     c1.45,0,2.63,1.18,2.63,2.63v5.48C1152.24,1000.76,1151.06,1001.94,1149.61,1001.94z" class="colorf48e8e svgShape"/><path fill="#7990b5" d="M1280.26,1001.94h-111.69c-1.45,0-2.63-1.18-2.63-2.63v-5.48c0-1.45,1.18-2.63,2.63-2.63h111.69     c1.45,0,2.63,1.18,2.63,2.63v5.48C1282.89,1000.76,1281.71,1001.94,1280.26,1001.94z" class="color9d79b5 svgShape"/><path fill="#ffffff" d="M1117.49 935.03h-97.71c-1.45 0-2.63-1.18-2.63-2.63v-5.48c0-1.45 1.18-2.63 2.63-2.63h97.71c1.45 0 2.63 1.18 2.63 2.63v5.48C1120.13 933.85 1118.95 935.03 1117.49 935.03zM1390.37 935.03h-210.66c-1.45 0-2.63-1.18-2.63-2.63v-5.48c0-1.45 1.18-2.63 2.63-2.63h210.66c1.45 0 2.63 1.18 2.63 2.63v5.48C1393 933.85 1391.82 935.03 1390.37 935.03z" class="colorfff svgShape"/><path fill="#7990b5" d="M1308.51,912.73h-74.84c-1.45,0-2.63-1.18-2.63-2.63v-5.48c0-1.45,1.18-2.63,2.63-2.63h74.84     c1.45,0,2.63,1.18,2.63,2.63v5.48C1311.15,911.55,1309.97,912.73,1308.51,912.73z" class="color9d79b5 svgShape"/><path fill="#f4968e" d="M1222.29,912.73h-109.26c-1.45,0-2.63-1.18-2.63-2.63v-5.48c0-1.45,1.18-2.63,2.63-2.63h109.26     c1.45,0,2.63,1.18,2.63,2.63v5.48C1224.92,911.55,1223.74,912.73,1222.29,912.73z" class="colorf48e8e svgShape"/><path fill="#ffffff" d="M1243.34,890.42h-67.05c-1.45,0-2.63-1.18-2.63-2.63v-5.48c0-1.45,1.18-2.63,2.63-2.63h67.05     c1.45,0,2.63,1.18,2.63,2.63v5.48C1245.97,889.24,1244.79,890.42,1243.34,890.42z" class="colorfff svgShape"/><path fill="#f4968e" d="M1152.23,890.42h-76.88c-1.45,0-2.63-1.18-2.63-2.63v-5.48c0-1.45,1.18-2.63,2.63-2.63h76.88     c1.45,0,2.63,1.18,2.63,2.63v5.48C1154.86,889.24,1153.69,890.42,1152.23,890.42z" class="colorf48e8e svgShape"/><path fill="#ffffff" d="M1080.57,868.12H951.69c-1.45,0-2.63-1.18-2.63-2.63v-5.48c0-1.45,1.18-2.63,2.63-2.63h128.88     c1.45,0,2.63,1.18,2.63,2.63v5.48C1083.2,866.94,1082.03,868.12,1080.57,868.12z" class="colorfff svgShape"/><path fill="#1d5bc2" d="M1135.58,868.12h-33.54c-1.24,0-2.24-1-2.24-2.24v-6.26c0-1.24,1-2.24,2.24-2.24h33.54     c1.24,0,2.24,1,2.24,2.24v6.26C1137.82,867.12,1136.82,868.12,1135.58,868.12z" class="color1d9bc2 svgShape"/><path fill="#ffffff" d="M1001.05 979.64h-47.17c-1.45 0-2.63-1.18-2.63-2.63v-5.48c0-1.45 1.18-2.63 2.63-2.63h47.17c1.45 0 2.63 1.18 2.63 2.63v5.48C1003.68 978.46 1002.5 979.64 1001.05 979.64zM1042.12 1021.35h-55.76c-1.45 0-2.63-1.18-2.63-2.63v-5.48c0-1.45 1.18-2.63 2.63-2.63h55.76c1.45 0 2.63 1.18 2.63 2.63v5.48C1044.75 1020.17 1043.58 1021.35 1042.12 1021.35zM1006.29 1043.66h-52.7c-1.45 0-2.63-1.18-2.63-2.63v-5.48c0-1.45 1.18-2.63 2.63-2.63h52.7c1.45 0 2.63 1.18 2.63 2.63v5.48C1008.92 1042.48 1007.75 1043.66 1006.29 1043.66zM1003.82 1065.96h-52.71c-1.45 0-2.63-1.18-2.63-2.63v-5.48c0-1.45 1.18-2.63 2.63-2.63h52.71c1.45 0 2.63 1.18 2.63 2.63v5.48C1006.45 1064.78 1005.27 1065.96 1003.82 1065.96zM1063.97 1087.85h-77.61c-1.45 0-2.63-1.18-2.63-2.63v-5.48c0-1.45 1.18-2.63 2.63-2.63h77.61c1.45 0 2.63 1.18 2.63 2.63v5.48C1066.6 1086.67 1065.42 1087.85 1063.97 1087.85zM1195.93 1109.74H986.36c-1.45 0-2.63-1.18-2.63-2.63v-5.48c0-1.45 1.18-2.63 2.63-2.63h209.57c1.45 0 2.63 1.18 2.63 2.63v5.48C1198.56 1108.56 1197.38 1109.74 1195.93 1109.74z" class="colorfff svgShape"/><path fill="#f4968e" d="M1086.27,1087.85h102.23c1.45,0,2.63-1.18,2.63-2.63v-5.48c0-1.45-1.18-2.63-2.63-2.63h-102.23     c-1.45,0-2.63,1.18-2.63,2.63v5.48C1083.64,1086.67,1084.82,1087.85,1086.27,1087.85z" class="colorf48e8e svgShape"/><path fill="#ffffff" d="M1245.36,1109.74h145.01c1.45,0,2.63-1.18,2.63-2.63v-5.48c0-1.45-1.18-2.63-2.63-2.63h-145.01     c-1.45,0-2.63,1.18-2.63,2.63v5.48C1242.73,1108.56,1243.9,1109.74,1245.36,1109.74z" class="colorfff svgShape"/><path fill="#fbe093" d="M1207.31,1087.85h56.35c1.45,0,2.63-1.18,2.63-2.63v-5.48c0-1.45-1.18-2.63-2.63-2.63h-56.35     c-1.45,0-2.63,1.18-2.63,2.63v5.48C1204.68,1086.67,1205.85,1087.85,1207.31,1087.85z" class="colorfbf393 svgShape"/><path fill="#f4968e" d="M1117.71,1065.96h-91.3c-1.45,0-2.63-1.18-2.63-2.63v-5.48c0-1.45,1.18-2.63,2.63-2.63h91.3     c1.45,0,2.63,1.18,2.63,2.63v5.48C1120.35,1064.78,1119.17,1065.96,1117.71,1065.96z" class="colorf48e8e svgShape"/><path fill="#2bb951" d="M1202.04,1065.96h-67.27c-1.45,0-2.63-1.18-2.63-2.63v-5.48c0-1.45,1.18-2.63,2.63-2.63h67.27     c1.45,0,2.63,1.18,2.63,2.63v5.48C1204.68,1064.78,1203.5,1065.96,1202.04,1065.96z" class="color2bb99b svgShape"/><path fill="#1d5bc2" d="M1257.61,1065.96h-29.77c-1.17,0-2.12-0.95-2.12-2.12v-6.5c0-1.17,0.95-2.12,2.12-2.12h29.77     c1.17,0,2.12,0.95,2.12,2.12v6.5C1259.73,1065.01,1258.78,1065.96,1257.61,1065.96z" class="color1d9bc2 svgShape"/><path fill="#ffffff" d="M1387.32,1021.35h-323.19c-3.14,0-5.68-2.4-5.68-5.37l0,0c0-2.97,2.54-5.37,5.68-5.37h323.19     c3.14,0,5.68,2.4,5.68,5.37l0,0C1393,1018.95,1390.46,1021.35,1387.32,1021.35z" class="colorfff svgShape"/><path fill="#1d5bc2" d="M1290.31,890.42h-28.82c-1.45,0-2.63-1.18-2.63-2.63v-5.48c0-1.45,1.18-2.63,2.63-2.63h28.82     c1.45,0,2.63,1.18,2.63,2.63v5.48C1292.94,889.24,1291.76,890.42,1290.31,890.42z" class="color1d9bc2 svgShape"/><path fill="#ffffff" d="M1163.16,935.03h-28.82c-1.45,0-2.63-1.18-2.63-2.63v-5.48c0-1.45,1.18-2.63,2.63-2.63h28.82     c1.45,0,2.63,1.18,2.63,2.63v5.48C1165.79,933.85,1164.61,935.03,1163.16,935.03z" class="colorfff svgShape"/><path fill="#1d5bc2" d="M1355.99,912.73h-26.92c-1.45,0-2.63-1.18-2.63-2.63v-5.48c0-1.45,1.18-2.63,2.63-2.63h26.92     c1.45,0,2.63,1.18,2.63,2.63v5.48C1358.63,911.55,1357.45,912.73,1355.99,912.73z" class="color1d9bc2 svgShape"/><path fill="#ffffff" d="M1216.03 845.81h-191.8c-1.45 0-2.63-1.18-2.63-2.63v-5.48c0-1.45 1.18-2.63 2.63-2.63h191.8c1.45 0 2.63 1.18 2.63 2.63v5.48C1218.66 844.64 1217.48 845.81 1216.03 845.81zM967.84 825.16h-51.98c-1.45 0-2.63-1.18-2.63-2.63v-5.48c0-1.45 1.18-2.63 2.63-2.63h51.98c1.45 0 2.63 1.18 2.63 2.63v5.48C970.47 823.98 969.29 825.16 967.84 825.16z" class="colorfff svgShape"/><path fill="#f7d981" d="M1294.22,780.14h-32.71c-1.22,0-2.21-0.99-2.21-2.21v-6.31c0-1.22,0.99-2.21,2.21-2.21h32.71     c1.22,0,2.21,0.99,2.21,2.21v6.31C1296.43,779.15,1295.44,780.14,1294.22,780.14z" class="colorf7f081 svgShape"/><path fill="#2bb951" d="M1389.91,713.64h-32.71c-1.22,0-2.21-0.99-2.21-2.21v-6.31c0-1.22,0.99-2.21,2.21-2.21h32.71     c1.22,0,2.21,0.99,2.21,2.21v6.31C1392.13,712.65,1391.14,713.64,1389.91,713.64z" class="color2bb99b svgShape"/><path fill="#f4968e" d="M1392.12 780.14h-85.62c-1.45 0-2.63-1.18-2.63-2.63v-5.48c0-1.45 1.18-2.63 2.63-2.63h85.62c1.45 0 2.63 1.18 2.63 2.63v5.48C1394.75 778.96 1393.57 780.14 1392.12 780.14zM1241.37 780.14h-189.61c-1.45 0-2.63-1.18-2.63-2.63v-5.48c0-1.45 1.18-2.63 2.63-2.63h189.61c1.45 0 2.63 1.18 2.63 2.63v5.48C1244 778.96 1242.82 780.14 1241.37 780.14z" class="colorf48e8e svgShape"/><path fill="#ffffff" d="M1152.23,801.62H951.69c-1.45,0-2.63-1.18-2.63-2.63v-5.48c0-1.45,1.18-2.63,2.63-2.63h200.54     c1.45,0,2.63,1.18,2.63,2.63v5.48C1154.86,800.44,1153.69,801.62,1152.23,801.62z" class="colorfff svgShape"/><path fill="#f4968e" d="M1133.44 758.66h-65.96c-1.45 0-2.63-1.18-2.63-2.63v-5.48c0-1.45 1.18-2.63 2.63-2.63h65.96c1.45 0 2.63 1.18 2.63 2.63v5.48C1136.08 757.49 1134.9 758.66 1133.44 758.66zM1209.47 713.64H987.52c-1.45 0-2.63-1.18-2.63-2.63v-5.48c0-1.45 1.18-2.63 2.63-2.63h221.95c1.45 0 2.63 1.18 2.63 2.63v5.48C1212.1 712.47 1210.93 713.64 1209.47 713.64z" class="colorf48e8e svgShape"/><path fill="#ffffff" d="M1305.16,713.64h-69.02c-1.45,0-2.63-1.18-2.63-2.63v-5.48c0-1.45,1.18-2.63,2.63-2.63h69.02     c1.45,0,2.63,1.18,2.63,2.63v5.48C1307.8,712.47,1306.62,713.64,1305.16,713.64z" class="colorfff svgShape"/><g fill="#000000" class="color000 svgShape"><path fill="#ffffff" d="M678.48 1186.67c0 2.34-2 4.23-4.48 4.23-2.47 0-4.48-1.9-4.48-4.23 0-2.34 2.01-4.23 4.48-4.23C676.48 1182.43 678.48 1184.33 678.48 1186.67zM693.52 1186.67c0 2.34-2.01 4.23-4.48 4.23-2.47 0-4.48-1.9-4.48-4.23 0-2.34 2-4.23 4.48-4.23C691.51 1182.43 693.52 1184.33 693.52 1186.67zM708.55 1186.67c0 2.34-2 4.23-4.48 4.23-2.47 0-4.48-1.9-4.48-4.23 0-2.34 2.01-4.23 4.48-4.23C706.55 1182.43 708.55 1184.33 708.55 1186.67z" class="colorfff svgShape"/></g></g><g fill="#000000" class="color000 svgShape"><rect width="190.21" height="12.21" x="1386.78" y="1639.82" fill="#a5b8d7" transform="rotate(90 1481.885 1645.927)" class="colora5c0d7 svgShape"/><rect width="190.21" height="4.46" x="1382.9" y="1643.7" fill="#8395b4" transform="rotate(90 1478.01 1645.927)" class="color8394b4 svgShape"/><polygon fill="#8395b4" points="1488.57 1599.42 1498.28 1553.67 1465.49 1553.67 1475.2 1599.42" class="color8394b4 svgShape"/><polygon fill="#a5b8d7" points="1413.23 1751.81 1550.54 1751.81 1550.54 1748.04 1495.38 1738.84 1468.39 1738.84 1413.23 1748.04" class="colora5c0d7 svgShape"/><polygon fill="#a5b8d7" points="1465.17 1739.88 1498.6 1739.88 1492.39 1700.87 1471.38 1700.87" class="colora5c0d7 svgShape"/><polygon fill="#8395b4" points="1492.39 1700.87 1471.38 1700.87 1465.17 1739.88 1413.23 1748.04 1504.77 1748.04 1488.57 1741.03 1484.2 1704.33" class="color8394b4 svgShape"/><rect width="23.75" height="35.62" x="1511.27" y="1491.39" fill="#8395b4" transform="rotate(-180 1523.14 1509.204)" class="color8394b4 svgShape"/><path fill="#3d5944" d="M1393.62,1542.7h176.53l0,0c0-9.53-7.73-17.26-17.26-17.26h-142     C1401.35,1525.44,1393.62,1533.17,1393.62,1542.7L1393.62,1542.7z" class="color3d4359 svgShape"/><path fill="#324938" d="M1410.89,1525.44h74.24c-9.53,0-17.26,7.73-17.26,17.26h-74.24     C1393.62,1533.17,1401.35,1525.44,1410.89,1525.44z" class="color323749 svgShape"/><path fill="#324938" d="M1569.87,1539.68c0.17,0.98,0.28,1.99,0.28,3.02h-176.53c0-1.03,0.11-2.04,0.28-3.02H1569.87z" class="color323749 svgShape"/><rect width="190.34" height="23.31" x="1386.72" y="1542.01" fill="#3d5944" transform="rotate(-180 1481.886 1553.667)" class="color3d4359 svgShape"/><rect width="123.01" height="23.31" x="1386.72" y="1542.01" fill="#324938" transform="rotate(-180 1448.22 1553.667)" class="color323749 svgShape"/><rect width="190.34" height="2.81" x="1386.72" y="1542.01" fill="#324938" transform="rotate(-180 1481.886 1543.416)" class="color323749 svgShape"/><path fill="#324938" d="M1451.61,1401.89c0,73.92,33.72,103.08,75.3,103.08c41.59,0,75.31-29.16,75.31-103.08      c0-73.92-33.72-164.59-75.31-164.59C1485.33,1237.29,1451.61,1327.97,1451.61,1401.89z" class="color323749 svgShape"/><path fill="#3d5944" d="M1444.06,1400.86c0,71.46,32.59,99.65,72.8,99.65c40.21,0,72.8-28.19,72.8-99.65      c0-71.46-32.59-159.12-72.8-159.12C1476.65,1241.74,1444.06,1329.4,1444.06,1400.86z" class="color3d4359 svgShape"/><path fill="#324938" d="M1508.52,1590.6c8.64,0,25.78-5.88,27.97-6.65c0.53-0.19,0.81-0.77,0.63-1.3c-0.19-0.53-0.78-0.8-1.3-0.63     c-6.66,2.33-25.02,7.97-29.85,6.22c-4-1.46-4.49-15.4-3.85-23.84c0.04-0.56-0.38-1.05-0.94-1.09c-0.61,0.02-1.05,0.38-1.09,0.94     c-0.18,2.39-1.57,23.44,5.19,25.9C1506.11,1590.47,1507.21,1590.6,1508.52,1590.6z" class="color323749 svgShape"/><path fill="#324938" d="M1541.6,1575.01c-4.45,1.17-11.03,5.91-10.11,9.37c0.91,3.46,8.97,4.32,13.42,3.15     c4.45-1.17,7.31-4.93,6.4-8.38C1550.39,1575.68,1546.05,1573.83,1541.6,1575.01z" class="color323749 svgShape"/><path fill="#151c17" d="M1484.79,1133.93c0,0,14.61-7.56,25.73,21.92c11.13,29.48,11.7,75.42,7.69,91.08     c0,0,32.31,34.79,5.91,57.52c0,0-36.38,38.27-38.78,48.12c-0.94-2.31-16.55-30.42-41.85-31.99c-25.3-1.56-87.65-67.06-54.4-77.24     c0,0-2.48,10.59,8.87,8.05c11.35-2.55,4.2-41.61,4.31-55.43c0.12-13.82,8.44-47.86,32.63-62.31     C1459.1,1119.21,1486.96,1120.23,1484.79,1133.93z" class="color1c1715 svgShape"/><path fill="#e2c36a" d="M1288.77,1362.67c0,0-23.58,7.46-26.73,8.63c-12.3,4.58-11.36,8.36-11.27,9.59c0,0-4.29,6.22-3.57,7.23       c1.22,1.72,2.43-0.24,8.58-6.53c1.37-1.4,5.2-4.74,5.89-4.25c0.69,0.49-3.06,3.09-5.34,5.15c-1.92,1.74-6.19,11.11-4.19,11.7       c1.9,0.56,5.7-7.01,7.78-9.18c1.55-1.62,6.08-4.64,6.95-4.07c0.88,0.57-3.66,4.91-4.39,5.98c-0.73,1.08-4.39,6.7-2.93,7.8       c1.29,0.97,4.12-3.43,7.65-7.2c2.63-2.8,11.53-7.64,12.72-7.68c1.39-0.05,0.02,3.43-1.83,6.09c-1.86,2.66-3.13,6.87-1.11,7.3       c2.02,0.43,5.45-7.48,9.79-12.7s4.94-12.09,4.94-12.09S1290.1,1362.72,1288.77,1362.67z" class="colore2a36a svgShape"/><path fill="#e2c36a" d="M1288.77,1362.67c2.32-0.79,14.71-1.01,23.95,0.05l-0.63,13.44l-22.26-5.24L1288.77,1362.67z" class="colore2a36a svgShape"/><path fill="#e5675d" d="M1413.09,1259.42c23.82,7.69,9.58,131.18-10.58,142.09c-19.03,11.61-74.04-16.94-104.77-26.88     c0,0-4.76-7.84-3.92-14.55c18.69-0.71,77.35,12.87,84.06,12.03C1384.6,1371.26,1389.35,1251.76,1413.09,1259.42z" class="colore55daa svgShape"/><path fill="#e2c36a" d="M1375.69,1728.08c0,0,1.89,7.27,1.65,15.03l10.18-2.24l-0.44-12.79H1375.69z" class="colore2a36a svgShape"/><path fill="#e2c36a" d="M1355.36,1748.02c0.14,2.06,32.81,0.87,32.81,0.87l-0.64-8.02h-10.3      C1377.22,1740.87,1355.22,1745.96,1355.36,1748.02z" class="colore2a36a svgShape"/><path fill="#2d3d31" d="M1388.26,1748.83l-0.45-4.47c0,0-1.92,2.49-11.91,2.49c-8.79,0-9.78-3.15-9.78-3.15      c-8.24,2.37-12.84,2.77-11.67,4.46C1355.95,1750.35,1388.26,1748.83,1388.26,1748.83z" class="color2d313d svgShape"/><path fill="#d35d53" d="M1387.09,1728.08l0.33,10.71c0,0-4.73-2.95-10.12,0c0,0-0.72-7.92-1.61-10.71H1387.09z" class="colord38753 svgShape"/><path fill="#e2c36a" d="M1328.06,1728.08c0,0,1.89,7.27,1.64,15.03l10.18-2.24l-0.44-12.79H1328.06z" class="colore2a36a svgShape"/><path fill="#e2c36a" d="M1307.72,1748.02c0.14,2.06,32.81,0.87,32.81,0.87l-0.64-8.02h-10.3      C1329.58,1740.87,1307.58,1745.96,1307.72,1748.02z" class="colore2a36a svgShape"/><path fill="#2d3d31" d="M1340.62,1748.83l-0.45-4.47c0,0-1.92,2.49-11.91,2.49c-8.8,0-9.78-3.15-9.78-3.15      c-8.24,2.37-12.84,2.77-11.67,4.46C1308.31,1750.35,1340.62,1748.83,1340.62,1748.83z" class="color2d313d svgShape"/><path fill="#d35d53" d="M1339.45,1728.08l0.33,10.71c0,0-4.73-2.95-10.12,0c0,0-0.72-7.92-1.61-10.71H1339.45z" class="colord38753 svgShape"/><path fill="#47915b" d="M1392.68,1447.54c0,0,63.72,19.04,54.34,77.73h-164.74c0,0-4.8-25.32,5.68-36.72     C1298.35,1477.25,1392.68,1447.54,1392.68,1447.54z" class="color476291 svgShape"/><path fill="#47915b" d="M1282.69,1525.27c0,0,21.72,64.83,44,208.51h16.57c0,0,11.75-107.22,9.23-136.15     c-2.52-28.94-23.72-74.63-23.72-74.63S1297.37,1515.85,1282.69,1525.27z" class="color476291 svgShape"/><path fill="#3e8751" d="M1391.59,1525.27l-62.2-0.37c0,0,21.92,45.78,23.1,72.73c1.18,26.96-9.23,136.15-9.23,136.15h-6.9     c0,0,5.47-115.84,3.57-134.51c-1.9-18.67-26.2-80.07-24.93-84.18c1.27-4.11,79.12-25.95,79.12-25.95L1391.59,1525.27z" class="color3e5c87 svgShape"/><polygon fill="#3e8751" points="1392.68 1447.54 1522.82 1447.54 1429.81 1494.47" class="color3e5c87 svgShape"/><path fill="#5776aa" d="M1522.82,1447.54c0,0,18.59,31.09,4.13,77.73h-192.86c0,0-3.91-25.77,7.04-36.72     C1356.38,1473.3,1468.31,1460.45,1522.82,1447.54z" class="color5775aa svgShape"/><path fill="#5776aa" d="M1334.08,1525.27c0,0,20.38,46.62,39.13,208.51h16.63c0,0,13.65-107.22,11.69-136.15     c-1.95-28.94-20.23-72.36-20.23-72.36S1348.94,1515.85,1334.08,1525.27z" class="color5775aa svgShape"/><path fill="#47915b" d="M1526.95,1525.27h-145.64c0,0,18.94,47.68,20.23,72.36c1.63,31.23-11.69,136.15-11.69,136.15h-6.17     c0,0,8.86-107.77,6.08-134.83c-2.78-27.06-26.02-79.44-22.06-84.97c3.96-5.54,105.74-11.06,164.45-30.84     C1532.15,1483.14,1534.04,1507.7,1526.95,1525.27z" class="color476291 svgShape"/><path fill="#ff8277" d="M1421.29,1369.86c0,28.34-9.25,45.87-30.83,77.77c42.38,14.47,87.11,13.19,133.61,0     c-9.93-27.48-25.04-49.95-41.93-69.54c-0.12-0.13-0.27-0.32-0.37-0.43c-0.2-0.23-0.37-0.43-0.5-0.58     c-0.14-0.16-0.36-0.41-0.36-0.41c-8.82-15.97,18.52-34.26,29.31-65.28c11-31.61,6.18-48.1,6.18-48.1     c-39.85-17.86-63.21-21.98-108.55-3.43l-1.71,27.48c0,0-12.29,21.45-10.91,31.07     C1396.62,1328.04,1421.29,1354.75,1421.29,1369.86z" class="colorff77c4 svgShape"/><path fill="#ed7065" d="M1390.46,1447.63c4.01-13.44,30.83-34,30.83-77.77c0-17.54-24.69-38.25-26.04-51.69     c9.37,4.01,48.09,16.1,109.72,5.02c-11.87,31.23-26.56,39.63-24.04,53.49c0,0,0.21,0.24,0.35,0.4c0.13,0.15,0.3,0.34,0.5,0.58     c0.1,0.11,0.25,0.3,0.37,0.43c16.89,19.6,32,42.06,41.93,69.54c-22.77,6.46-45.1,10.01-66.95,10.31     C1435.52,1457.9,1411.03,1454.65,1390.46,1447.63z" class="colored65b2 svgShape"/><path fill="#f4d784" d="M1483.78,1185.32c0,0-10.82,40.64-1.54,68.79l-35.03,0.07l-11.26,5c0,0,7.02-20.31,5.58-43.94     C1440.47,1197.93,1483.78,1185.32,1483.78,1185.32z" class="colorf4be84 svgShape"/><path fill="#d1544a" d="M1440.58,1238.01c0.9-6.72,1.46-14.51,0.95-22.76c-1.06-17.32,42.25-29.93,42.25-29.93     s-10.37,39.12-1.99,67.19C1462.11,1249.81,1448.17,1242.87,1440.58,1238.01z" class="colord17a4a svgShape"/><path fill="#db5d52" d="M1439.82,1387.47c0.06-3.88-1.9-13.23-3.98-23.14c-2.96-14.12-6.32-30.13-5.64-38     c1.14-13.36,14.58-51.3,15.15-52.91l1.77,0.63c-0.14,0.39-13.93,39.32-15.05,52.44c-0.65,7.6,2.68,23.46,5.61,37.46     c2.19,10.45,4.09,19.47,4.02,23.55c-0.37,23.79-5.59,45.72-16.23,68.41c-0.66-0.09-1.32-0.13-1.97-0.23     C1434.2,1433.04,1439.46,1411.18,1439.82,1387.47z" class="colordb52a3 svgShape"/><path fill="#f4d784" d="M1371.04,1370.98c-8.34,2.08-18.91,3.08-19.65,6.52c-1.63,7.47,10.24,12.21,16.27,10.54       c5.87-2.02,10.93-9.99,10.93-9.99S1379.3,1368.93,1371.04,1370.98z" class="colorf4be84 svgShape"/><path fill="#f4d784" d="M1335.53 1387.7c-1.04-.71 4.14-7.79 5.8-8.88 1.33-.87 2.7-2.11 15.5-4.71l-4.52 6.57c0 0-7.97.53-9.06.97C1342.14 1382.1 1339.71 1387.84 1335.53 1387.7zM1344.86 1401.68c-1.8-.21.44-8.12 1.38-9.85 1.18-2.18.86-3.21 8.56-13.77l1.24 7.7c0 0-6.06 6.86-6.57 7.92C1348.96 1394.74 1347.63 1400.5 1344.86 1401.68zM1350.98 1403c-1.73-.2.43-7.8 1.32-9.45 1.13-2.09.83-3.08 8.22-13.22l1.19 7.39c0 0-5.81 6.59-6.31 7.6C1354.92 1396.33 1353.64 1401.86 1350.98 1403zM1358.93 1400.04c-1.46-.17.36-6.6 1.12-8 .96-1.77.7-2.61 6.96-11.19l1.01 6.26c0 0-4.92 5.58-5.34 6.43C1362.26 1394.4 1361.18 1399.07 1358.93 1400.04zM1377.33 1378.54l12.87 1.4.28-12.03c0 0-7.84.56-19.45 3.07L1377.33 1378.54z" class="colorf4be84 svgShape"/><path fill="#ff8277" d="M1516.42,1263.3c23.82,7.69,16.01,135.13-4.15,146.04c-26.83,16.65-89.46-16.62-126.54-26.88     c0,0-4.76-7.84-3.92-14.55c30.24-5.87,99.12,12.87,105.83,12.03C1494.35,1379.1,1492.68,1255.63,1516.42,1263.3z" class="colorff77c4 svgShape"/><path fill="#e5675d" d="M1510.59,1403.18c15.82-8.57,23.95-88.73,15.24-126.62c11.34,34.45,3.19,123.72-13.55,132.78     c-26.83,16.65-89.46-16.62-126.54-26.88c0,0-1.57-2.79-2.75-6.37C1420.23,1386.71,1484.02,1419.66,1510.59,1403.18z" class="colore55daa svgShape"/><polygon fill="#db5d52" points="1491.97 1253.58 1462.26 1283.11 1453.66 1270.6 1445.45 1277.64 1439.98 1269.43 1430.21 1279.59 1429.73 1252.21 1447.21 1254.19" class="colordb52a3 svgShape"/><polygon fill="#ed7065" points="1491.97 1253.58 1478.66 1233.06 1447.21 1254.19 1461.28 1275.88" class="colored65b2 svgShape"/><polygon fill="#ed7065" points="1440.61 1237.9 1447.21 1254.19 1431.68 1272.92 1429.73 1252.21" class="colored65b2 svgShape"/><path fill="#fde396" d="M1485.39,1226.51c0,0-17.2,13.34-31.25,8.19c-14.06-5.15-26.52-18.75-30.37-32.36     c-3.85-13.61,2.4-40.92,11.86-50.63c9.46-9.72,44.6-16.1,54.47-3.44C1499.97,1160.93,1503.81,1211.97,1485.39,1226.51z" class="colorfdc596 svgShape"/><path fill="#194424" d="M1504.93,1270.19c0,0,14.1,5.46,22.11-5.42c8.01-10.88-5.43-17.43-5.43-17.43s8.74,11.01-4,12.39     c-12.75,1.38-12.83-20.02-8.35-31.83c12.93-34.1,5.44-56.53-0.55-68.74c-5.98-12.22-16.63-21.16-16.63-21.16l-7.29-4.06     l-5.05,12.38c0,0,9.18,14.02,13.83,26.96c4.65,12.93,6.62,29.55-4.26,50.96C1478.42,1245.65,1475.69,1266.69,1504.93,1270.19z" class="color442b19 svgShape"/><path fill="#265131" d="M1479.74,1146.31l5.05-12.38l0,0l0,0c0,0,14.6-7.56,25.73,21.92c3.82,10.13,5.82,22.28,6.64,34.5     c-5,18.33-19.15,39.45-26.86,57.4c-9.73,22.66,20.04,16.6,20.04,16.6s-9.92,16.79-24.84,3.86c-16.4-14.22-2.1-37.69,4.16-49.97     c6.26-12.29,5.21-35.56-0.8-48.79C1482.87,1156.2,1479.74,1146.31,1479.74,1146.31z" class="color513826 svgShape"/><path fill="#194424" d="M1479.74,1146.31c0,0-33.33-8.83-50.06,31.51c-16.73,40.35,7.29,58.93,3.06,71.37     c-4.23,12.44-15.57,14.23-25.32,1.43c0,0,11.98,7.72,13.76-1c1.78-8.72-18.12-21.49-16.31-54.77     c0.64-11.69,2.53-21.75,4.72-29.89c5.12-12.02,13.24-24.1,25.31-31.31c24.19-14.44,52.05-13.43,49.88,0.27L1479.74,1146.31z" class="color442b19 svgShape"/><g fill="#000000" class="color000 svgShape"><polygon fill="#d0d9e9" points="1257.65 1751.81 1276.63 1751.81 1223.48 1433.85 1204.5 1433.85" class="colord0d1e9 svgShape"/><polygon fill="#a7b8d3" points="1251.44 1751.81 1270.42 1751.81 1217.27 1433.85 1198.29 1433.85" class="colora7a7d3 svgShape"/></g><g fill="#000000" class="color000 svgShape"><polygon fill="#d0d9e9" points="1070.67 1751.81 1051.69 1751.81 1104.84 1433.85 1123.82 1433.85" class="colord0d1e9 svgShape"/><polygon fill="#a7b8d3" points="1065.75 1751.81 1046.77 1751.81 1099.92 1433.85 1118.9 1433.85" class="colora7a7d3 svgShape"/></g><g fill="#000000" class="color000 svgShape"><polygon fill="#d0d9e9" points="1726.2 1751.81 1745.18 1751.81 1692.03 1433.85 1673.05 1433.85" class="colord0d1e9 svgShape"/><polygon fill="#a7b8d3" points="1731.12 1751.81 1750.1 1751.81 1696.96 1433.85 1677.98 1433.85" class="colora7a7d3 svgShape"/></g><g fill="#000000" class="color000 svgShape"><polygon fill="#d0d9e9" points="1561.74 1751.81 1542.76 1751.81 1595.91 1433.85 1614.89 1433.85" class="colord0d1e9 svgShape"/><polygon fill="#a7b8d3" points="1557.01 1751.81 1538.03 1751.81 1591.18 1433.85 1610.16 1433.85" class="colora7a7d3 svgShape"/></g><g fill="#000000" class="color000 svgShape"><path fill="#a7b7d1" d="M1735.41,1440.29h-675.96c-7,0-12.68-6.96-12.68-15.55v0c0-8.59,5.68-15.55,12.68-15.55h675.96     c7,0,12.68,6.96,12.68,15.55l0,0C1748.09,1433.32,1742.42,1440.29,1735.41,1440.29z" class="colora7a7d1 svgShape"/><path fill="#d0d9e9" d="M1735.41,1409.18h-675.96c-7,0-12.68,6.96-12.68,15.55v0c0,1.42,0.17,2.79,0.46,4.09h700.41     c0.29-1.31,0.46-2.67,0.46-4.09C1748.09,1416.14,1742.42,1409.18,1735.41,1409.18z" class="colord0d1e9 svgShape"/></g><g fill="#000000" class="color000 svgShape"><polygon fill="#8395b4" points="1143.06 1397.88 1295.51 1397.93 1263.49 1279.69 1111.04 1279.65" class="color8394b4 svgShape"/><rect width="9.17" height="224.39" x="1251.48" y="1292.04" fill="#a5b8d7" transform="rotate(-89.931 1256.07 1404.236)" class="colora5c0d7 svgShape"/><polygon fill="#a5b8d7" points="1142.95 1397.73 1291.89 1397.92 1260.51 1282.01 1111.57 1281.82" class="colora5c0d7 svgShape"/><path fill="#8395b4" d="M1187.49,1338.58c1.87,5.64,8.44,10.22,14.68,10.23c6.23,0.01,9.77-4.56,7.89-10.2     c-1.87-5.64-8.44-10.22-14.68-10.23C1189.15,1328.38,1185.62,1332.94,1187.49,1338.58z" class="color8394b4 svgShape"/><polygon fill="#a5b8d7" points="1291.89 1397.92 1260.51 1282.01 1111.57 1281.82" opacity=".2" class="colora5c0d7 svgShape"/><rect width="9.17" height="72.33" x="1327.52" y="1368.17" fill="#8395b4" transform="rotate(-89.939 1332.101 1404.333)" class="color8394b4 svgShape"/><rect width="4.03" height="27.94" x="1260.8" y="1385.96" fill="#8395b4" transform="rotate(-89.927 1262.818 1399.927)" class="color8394b4 svgShape"/><rect width="4.03" height="23.91" x="1163.14" y="1387.85" fill="#8395b4" transform="rotate(-89.928 1165.152 1399.803)" class="color8394b4 svgShape"/><polygon fill="#bacff2" points="1259.53 1283.48 1111.96 1283.29 1111.57 1281.82 1260.51 1282.01 1291.89 1397.92 1290.51 1397.92" class="colorbad6f2 svgShape"/></g><g fill="#000000" class="color000 svgShape"><path fill="#ea4335" d="M1682.03,1382.42v-4.89h-113.95c-5.86,0-10.6,7.01-10.6,15.65v0.1c0,8.64,4.75,15.65,10.6,15.65h113.95      v-4.89C1678.49,1393.01,1682.03,1382.42,1682.03,1382.42z" class="colore75669 svgShape"/><path fill="#c9584f" d="M1593.01,1377.53h8.24c-3.4,2.94-5.72,8.84-5.72,15.65v0.11c0,6.81,2.32,12.71,5.72,15.65h-8.24      c-5.86,0-10.6-7.01-10.6-15.65v-0.1C1582.41,1384.54,1587.16,1377.53,1593.01,1377.53z" opacity=".46" class="colorc94f64 svgShape"/><path fill="#bc473d" d="M1682.03,1377.53h-55.88c-4.68,0-8.48,5.6-8.48,12.51v6.37c0,6.91,3.8,12.51,8.48,12.51h55.88v-4.89      c-3.55-11.03,0-21.62,0-21.62V1377.53z" class="colorbc3d5c svgShape"/><path fill="#edeef0" d="M1626.75,1382.42c-3.22,0-5.84,3.86-5.84,8.62v4.39c0,4.76,2.61,8.62,5.84,8.62h55.28      c-3.1-10.81,0-21.62,0-21.62H1626.75z" class="coloredf0ee svgShape"/><path fill="#dddee0" d="M1682.03,1382.42h-55.28c-3.22,0-5.84,3.86-5.84,8.62v2.19l59.74,0      C1680.72,1387.03,1682.03,1382.42,1682.03,1382.42z" opacity=".83" class="colordde0dd svgShape"/><path fill="#fbbc05" d="M1560.21,1357.23v-3.74h119.27c6.13,0,11.1,5.37,11.1,11.99v0.07c0,6.62-4.97,11.99-11.1,11.99h-119.27      v-3.74C1563.92,1365.34,1560.21,1357.23,1560.21,1357.23z" class="colorf89e1b svgShape"/><path fill="#cf3528" d="M1560.21,1353.48h58.49c4.9,0,8.87,4.29,8.87,9.59v4.88c0,5.29-3.97,9.59-8.87,9.59h-58.49v-3.74      c3.71-8.45,0-16.56,0-16.56V1353.48z" class="colorcf7a28 svgShape"/><path fill="#edeef0" d="M1618.08,1357.23c3.37,0,6.11,2.96,6.11,6.6v3.36c0,3.65-2.74,6.6-6.11,6.6h-57.86      c3.25-8.28,0-16.56,0-16.56H1618.08z" class="coloredf0ee svgShape"/><path fill="#dddee0" d="M1560.21,1357.23h57.86c3.37,0,6.11,2.96,6.11,6.6v1.68h-62.53      C1561.59,1360.76,1560.21,1357.23,1560.21,1357.23z" opacity=".83" class="colordde0dd svgShape"/><path fill="#a0271d" d="M1616.2,1363.07c0,0-0.59,0.79-0.66,2.62c-0.07,1.83-0.88,3.97-0.88,3.97l-1.91-2.06l-2.06,2.06      c0,0,0.66-2.54,0.66-3.89c0-1.35,1.03-2.7,1.03-2.7H1616.2z" class="colora01d3b svgShape"/><g fill="#000000" class="color000 svgShape"><path fill="#34a853" d="M1565.86,1336.48v-3.16h100.7c5.17,0,9.37,4.53,9.37,10.12v0.06c0,5.59-4.2,10.12-9.37,10.12h-100.7v-3.16      C1568.99,1343.33,1565.86,1336.48,1565.86,1336.48z" class="color0ea954 svgShape"/><path fill="#009728" d="M1565.86,1333.32h49.38c4.14,0,7.49,3.62,7.49,8.09v4.12c0,4.47-3.35,8.09-7.49,8.09h-49.38v-3.16      c3.13-7.14,0-13.98,0-13.98V1333.32z" class="color009748 svgShape"/><path fill="#edeef0" d="M1614.71,1336.48c2.85,0,5.16,2.5,5.16,5.57v2.84c0,3.08-2.31,5.57-5.16,5.57h-48.85      c2.74-6.99,0-13.98,0-13.98H1614.71z" class="coloredf0ee svgShape"/><path fill="#dddee0" d="M1565.86,1336.48h48.85c2.85,0,5.16,2.5,5.16,5.57v1.42h-52.8      C1567.02,1339.47,1565.86,1336.48,1565.86,1336.48z" opacity=".83" class="colordde0dd svgShape"/><path fill="#254f95" d="M1613.13,1341.42c0,0-0.5,0.67-0.56,2.21c-0.06,1.54-0.74,3.35-0.74,3.35l-1.61-1.74l-1.74,1.74      c0,0,0.56-2.14,0.56-3.28c0-1.14,0.87-2.28,0.87-2.28H1613.13z" class="color253d95 svgShape"/></g></g></g><g fill="#000000" class="color000 svgShape"><path fill="#fde396" d="M432.73,1241.33c0,0,14.93,3.07,28.43,9.25c13.51,6.18,29.03,16.8,36.96-9.4      c8-26.41-7.47-20.9-16.27-19.48c-7.98,1.29-10.47,5.13-20.87,2.49c-10.77-2.73-26.48-4.59-26.48-4.59L432.73,1241.33z" class="colorfdc596 svgShape"/><path fill="#3472d8" d="M463.37,1223.11c0,0-61.66-16.93-78.01-16.89c0,0-15.29-55.85-31.28-74.44      c-15.99-18.59-74.28-33.97-53.84,1.68c20.44,35.65,45.85,96.13,72.86,108.49c27.01,12.35,53.84-1.68,89.03,10.65L463.37,1223.11      z" class="color346ed8 svgShape"/><path fill="#2d589f" d="M462.53,1243.23l-0.4,9.38c-35.19-12.33-62.02,1.7-89.03-10.65c-27.01-12.35-52.43-72.83-72.86-108.49      c-7.27-12.69-4.55-18.89,2.66-20.81c1.95,16.45,46.39,92.1,60.43,106.03c14.04,13.94,33.76,15.44,53.49,16.95      C430.84,1236.71,451.65,1240.9,462.53,1243.23z" class="color2d4f9f svgShape"/><path fill="#d1544a" d="M251.46,1118.02l3.68-20.14l44.53-2.72l4.99,25.02C304.66,1120.17,284.46,1153.07,251.46,1118.02z" class="colord17a4a svgShape"/><path fill="#223a28" d="M292.44,1696.31l-1.51,18.82c0,0,21.24,7.3,24.84,3.49c3.6-3.81,7.2-13.2,7.2-13.2l0-13.47L292.44,1696.31z     " class="color22313a svgShape"/><polygon fill="#223a28" points="209.99 1692.96 211.69 1713.31 240.16 1706.43 240.11 1688.13" class="color22313a svgShape"/><path fill="#3f5244" d="M207.69,1348.96c0,0,0,53.35,3.6,83.84c3.6,30.49,10.81,106.71,7.2,129.57     c-3.31,21.01-12.71,112.84-14.21,139.41c-0.17,2.95,2.1,5.4,4.89,5.32c10.82-0.3,35.34-1.62,38.14-7.54     c3.6-7.62,21.62-121.95,25.22-144.81c3.6-22.87,13.8-82.56,13.8-82.56s0.61,71.12,0.61,93.99v134.81c0,3.31,2.71,5.87,5.81,5.46     c9.84-1.29,25.43-0.61,33.38-3.41c0,0,11.24-91.13,14.84-133.05c3.6-41.92,4.07-198.72-6.29-215.92     C324.32,1336.88,207.69,1348.96,207.69,1348.96z" class="color3f4752 svgShape"/><path fill="#2f4034" d="M204.29 1701.78c-.17 2.95 2.1 5.4 4.89 5.32 2.35-.06 5.36-.18 8.64-.38 4.47-42.97 20.98-165.68 24.09-191.99 2.69-22.78-9.67-119.31-16.09-166.7-10.94.45-18.13.92-18.13.92s0 53.35 3.6 83.84c3.6 30.49 10.81 106.71 7.2 129.57C215.19 1583.39 205.79 1675.21 204.29 1701.78zM286.33 1472.2c2.05-18.94 4.38-38.19 6.02-45.11 0 0 3.6 87.65 10.81 114.33 0 0-7.2 141-3.6 148.63 2.83 5.99 18.98 9.62 25.77 10.9-.49.12-.99.24-1.51.36-.67.16-1.33.31-2.04.47-.76.16-1.56.32-2.35.48-1.44.29-2.91.57-4.43.84-.73.13-1.44.26-2.18.39-.88.15-1.77.3-2.65.44-.79.13-1.57.26-2.36.38-.83.13-1.64.26-2.46.38-.83.13-1.65.25-2.46.37-.74.11-1.48.22-2.2.32-.88.13-1.72.24-2.55.36-.58.08-1.18.17-1.73.24-1.31.18-2.56.35-3.65.49-3.1.41-5.81-2.16-5.81-5.46v-134.81C286.95 1543.32 286.33 1472.19 286.33 1472.2L286.33 1472.2z" class="color2f3740 svgShape"/><path fill="#f6f6f6" d="M202.23,1369.13c-0.01-9.07,2.9-22.87,13.63-30.45c16.91-11.95,114.6-67.42,33.56-220.68     c-0.55-1.04-0.47-1.64,0.38-3.16c0,0,36.41,15.72,54.04-2.21c0,0,72.51,56.25,34.82,244.25L202.23,1369.13z" class="colorf6f6f6 svgShape"/><linearGradient id="b" x1="-2173.53" x2="-2121.145" y1="1232.206" y2="1232.206" gradientTransform="translate(2441.035)" gradientUnits="userSpaceOnUse"><stop offset="0" stop-color="#f7a8a1" class="stopColorf7a1ab svgShape"/><stop offset=".233" stop-color="#f9958d" class="stopColorf98d98 svgShape"/><stop offset=".737" stop-color="#fd7266" class="stopColorfd6673 svgShape"/><stop offset="1" stop-color="#ff6457" class="stopColorff5765 svgShape"/></linearGradient><path fill="url(#b)" d="M267.5,1127.43l20.89,10.76     c0,0,35.95,101.89-12.94,169.3l7.28,37.34l29.83-25.54c0,0,24.09-123.25-15.1-178.26c0,0,8.4-12.36,0.46-21.47L267.5,1127.43z"/><path fill="#3472d8" d="M249.98,1114.33c0,0-0.31,0.04-0.9,0.13c-1.64,0.26-3.26,0.6-4.85,0.98c-9.25,3.29-33.67,14.45-36.63,41.29     c-3.67,33.19,11.66,105.54,7.02,128.44c-4.61,22.74-26.01,61.12-24.2,92.73c14.47-2.2,51.32,1.42,62.15-14.54     c9.63-14.2,11.79-65.96,19.86-97.08c1.51-3.99,2.84-8.09,3.93-12.34C295.35,1179.81,249.98,1114.33,249.98,1114.33z" class="color346ed8 svgShape"/><path fill="#2d589f" d="M228.2,1295.24c9.39-22.47-0.07-77.54-7.83-123.8c-0.63-3.76-0.95-7.37-0.99-10.84     c-0.22-17.77,8.68-33.89,22.76-44.37c-10.39,4.1-31.77,15.49-34.53,40.5c-3.67,33.19,11.66,105.54,7.02,128.44     c-2.18,10.74-8.09,24.98-13.54,40.33c-0.14,0.4-0.29,0.8-0.43,1.21c-0.74,2.09-1.46,4.2-2.16,6.33     c-0.09,0.26-0.18,0.52-0.26,0.78c-0.78,2.38-1.53,4.77-2.24,7.17c-0.09,0.3-0.17,0.6-0.25,0.9c-0.58,1.99-1.13,3.99-1.64,5.99     c-0.19,0.75-0.36,1.5-0.54,2.25c-0.38,1.57-0.73,3.13-1.05,4.7c-0.18,0.87-0.34,1.73-0.5,2.59c-0.27,1.48-0.51,2.95-0.72,4.42     c-0.12,0.87-0.25,1.73-0.35,2.59c-0.18,1.55-0.3,3.08-0.4,4.61c-0.05,0.74-0.12,1.48-0.15,2.22c-0.08,2.24-0.09,4.47,0.03,6.65     c4.96-0.75,12.56-0.83,20.83-1.24c-2.4-21.07,2.44-48.18,5.48-62.28c0,0,13.93-15.51,31.32-16.93     C248.05,1297.45,236.94,1293.79,228.2,1295.24z" class="color2d4f9f svgShape"/><polygon fill="#9cb6e2" points="246.17 1114.87 278.51 1141.68 283.66 1122.27 257.76 1114.82" class="color9cd6e2 svgShape"/><path fill="#9cb6e2" d="M303.84,1112.62l-18.95,8.87l17.91,21.04C302.8,1142.53,311.49,1121.01,303.84,1112.62z" class="color9cd6e2 svgShape"/><path fill="#3472d8" d="M355.39,1171.74c0,0-1.67-13.4-3.95-31.45c-0.67-5.26-6.34-17.69-15.23-21.09     c-12.09-4.62-18.7-4.72-32.37-6.57c0,0,33.74,134.8,31.14,237.42c-1.85,9.02-1.02,16.02-1.02,21.38c0,0,10.91-2.99,23.39,1.4     c16.18,5.69-1.47-56.39-4.82-68.98C361.72,1254.9,360.78,1222.66,355.39,1171.74z" class="color346ed8 svgShape"/><path fill="#2d3d31" d="M207.69,1714.81c0,0,28.82-11.43,36.02-7.62c0,0,0,7.62,3.6,11.43c3.6,3.81,25.22,26.68,21.62,30.49     c-3.6,3.81-39.63,7.62-61.24,0V1714.81z" class="color2d313d svgShape"/><path fill="#fde396" d="M253.28,1281.85c0.54-0.45,5.85,0.69,7.16,0.98l0-0.01c0,0,9.05-5.6,14.55-2.25     c5.49,3.34,13.39-2.11,15.98-0.8c2.59,1.3,3.01,2.45,2.6,4.28c-0.41,1.83-3.82,2.37-7.42,3.73c-3.6,1.36-7.13,4.65-7.13,4.65     s5.04-3.84,7.62-3.45c2.9,0.45,8.98-0.19,8.98-0.19s6.07-8.23,9.75-6.5c3.67,1.72-3.54,12.39-8.26,14.86     c-4.73,2.47-19.47,4.39-22.31,4.28c-2.72-0.1-13.24-3.16-14.87-4.33c-0.91,0.35-6.15,2.36-6.9,1.74     C252.19,1298.16,252.66,1282.37,253.28,1281.85z" class="colorfdc596 svgShape"/><path fill="#3472d8" d="M256.82,1302.18c5.23,1.11,6.13-28.26,6.13-28.26s-60.17-6.64-63.48-16.7     c-3.32-10.07,38.63-86.68,39.82-92.18c0.82-3.79,6.32-16.71-1.67-27.77c-5.04-6.98-13.54-8.43-19.92-3.8     c-4.5,3.27-8.58,7.1-11.89,11.58c-20.27,27.51-52.52,125.41-45.62,132.21c7.89,7.77,57.33,18.92,57.33,18.92     S250.5,1300.84,256.82,1302.18z" class="color346ed8 svgShape"/><path fill="#2d3d31" d="M289.48,1713.42c-1.36-0.11-2.53,1.03-2.53,2.47v31.63c0,0-3.6,3.81,18.01,3.81c21.61,0,79.25,0,82.86-3.81     c3.6-3.81,0-7.62-18.01-15.24c-18.01-7.62-37.83-20.96-45.03-28.58c0,0-14.41,0-10.81,11.43     C313.97,1715.12,310.63,1715.12,289.48,1713.42z" class="color2d313d svgShape"/><path fill="#172e1d" d="M329.37,1251.11c0,0-7.16,8.98,9.3,11.19l67.85,21.69l6.05-9.86L329.37,1251.11z" class="color24172e svgShape"/><path fill="#28372c" d="M331.06,1249.71l101.74-43.4l-25.6,75.18l-75.83-24.75C328.07,1255.67,327.87,1251.07,331.06,1249.71z" class="color283037 svgShape"/><path fill="#35483a" d="M338.25,1249.11l91.6-39.07l-23.05,67.69l-68.27-22.28C335.55,1254.48,335.37,1250.34,338.25,1249.11z" class="color354048 svgShape"/><path fill="#172e1d" d="M441.09,1175.46l85.69-43.97c4.72-2.42,10.1,1.82,8.85,6.97l-20.06,82.44l-110.87,62.05l30.35-100.25      C436,1179.57,438.18,1176.95,441.09,1175.46z" class="color24172e svgShape"/><path fill="#587660" d="M442.92,1176.5l85.69-43.97c4.72-2.42,10.1,1.82,8.85,6.97l-20.06,82.44l-110.87,62.05l30.35-100.25      C437.83,1180.61,440.01,1177.99,442.92,1176.5z" class="color586976 svgShape"/><g fill="#000000" class="color000 svgShape"><path fill="#fde396" d="M319.14,1034.5c0,0,1.41,21.49,1.54,33.01c0.13,11.52,0.77,37.9-22.23,42c-23,4.1-36.28-7.08-44.82-11.89     c0,0-27.95-23.79-24.2-31.51c3.75-7.73,7.33-30.81,30.38-31.08C282.86,1034.77,319.14,1034.5,319.14,1034.5z" class="colorfdc596 svgShape"/><path fill="#1e522c" d="M287.56,1000.86c-5.32-2.01-10.62-4.12-15.59-6.24c-8.4-3.59-17.92-3.9-26.34-0.39     c-17.43,7.28-22.49,23.94-22.49,23.94l-7.59,7.77c-7.59,7.77-2.79,30.63,7.02,42.43c18.34,22.06,32.22,30.11,32.22,30.11     c0.97-0.01,0.95-0.76,0.3-1.92c-1.48-5.28-0.56-9.01-0.56-9.01c-17.41-3.88-19.47-19.73-12.54-22.46     c6.93-2.74,13.28,10.43,13.28,10.43l0.86-4.73c1.28-12.51-5.8-26.04-5.8-26.04s0.42,0.2,1.19,0.52c0.04,0.05,0.06,0.1,0.1,0.15     c0,0,6.35,6.87,16.15,6.41c0,0-1.55-1.24-3.53-2.93c7.73,1.39,17.94,1.82,28.7-1.61c0,0-7.57-0.53-13.36-2.56     c7.26-0.74,15.55-2.09,24.48-4.43c30.64-8.03,34.26-28.85,34.26-28.85C321.68,1010.46,307.42,1008.36,287.56,1000.86z" class="color221e52 svgShape"/></g></g><g fill="#000000" class="color000 svgShape"><path fill="#46b163" d="M1771.1,1686.13c0,0,3.17-18.09,0.1-29.58c-3.07-11.49,15.04-19.51,2.26-33.27c0,0,0.12,9.42-10.32,6.11    c0,0,7.51-22.06-13.27-31.56c0,0,7.85,24.01-3,21.63c-10.86-2.39,1.22-18.47-11.83-25.68c-13.05-7.21-26.66-1.33-16.54,16.12    c10.12,17.45,8.33,21.3-9.04,13.91c0,0-2.84,13.53,7.86,23.33C1728.01,1656.94,1758.62,1687.03,1771.1,1686.13z" class="color82b146 svgShape"/><path fill="#3e9e58" d="M1766.78,1690.53c0,0,1.4-28.6,10.5-43.48c9.1-14.87-0.97-27.53-7.13-31.42    c-6.16-3.89,10.86-47.67,0.09-48.56c-10.77-0.89-28.34-1.92-21.1,26.97c7.25,28.9,12.44,25.53,9.22,53.56    C1755.14,1675.63,1757.02,1688.45,1766.78,1690.53z" class="color7e9e3e svgShape"/><path fill="#46b163" d="M1759.42,1688.71c0,0,19.17-20.49,26.12-54.8s33.94-11.41,24.82,7.7    C1801.23,1660.72,1791.24,1689.38,1759.42,1688.71z" class="color82b146 svgShape"/><path fill="#d0d9e9" d="M1723.82,1698.73h86.63c0.78,0,1.42-0.63,1.42-1.42v-19.26c0-0.78-0.64-1.42-1.42-1.42h-86.63     c-0.78,0-1.42,0.64-1.42,1.42v19.26C1722.4,1698.09,1723.04,1698.73,1723.82,1698.73z" class="colord0d1e9 svgShape"/><polygon fill="#d0d9e9" points="1790.9 1751.59 1802.87 1698.73 1731.41 1698.73 1744.86 1751.59" class="colord0d1e9 svgShape"/><path fill="#a7b8d3" d="M1750.31,1748.12c6.63,1.3,39.62,3.68,39.62,3.68h-45.07l-13.46-52.86h56.06c0,0-50.42,3.03-48.91,7.15     C1740.08,1710.21,1743.68,1746.82,1750.31,1748.12z" class="colora7a7d3 svgShape"/></g></svg>