<svg xmlns="http://www.w3.org/2000/svg" enable-background="new 0 0 5500 4000" viewBox="0 0 5500 4000" class="d-none"><path fill="#34a853" d="M1860.855,3420.1h-388.889c-70.757,0-139.397-13.858-204.016-41.189&#10;&#9;&#9;&#9;c-62.414-26.398-118.466-64.19-166.601-112.325c-48.134-48.135-85.926-104.188-112.324-166.601&#10;&#9;&#9;&#9;c-27.332-64.619-41.19-133.261-41.19-204.017v-871.503c0-1.104,0.896-2,2-2s2,0.896,2,2v871.503&#10;&#9;&#9;&#9;c0,286.802,233.33,520.132,520.131,520.132h388.889c286.802,0,520.132-233.33,520.132-520.132V1484.747&#10;&#9;&#9;&#9;c0-66.032,12.933-130.089,38.439-190.394c24.636-58.246,59.904-110.555,104.825-155.476c44.92-44.92,97.23-80.189,155.477-104.825&#10;&#9;&#9;&#9;c60.304-25.507,124.362-38.439,190.394-38.439h1106.026c76.612,0,150.934,15.005,220.9,44.599&#10;&#9;&#9;&#9;c67.579,28.583,128.27,69.502,180.388,121.621c52.119,52.118,93.038,112.81,121.621,180.388&#10;&#9;&#9;&#9;c29.594,69.966,44.599,144.288,44.599,220.9v1085.049c0,1.104-0.896,2-2,2s-2-0.896-2-2V1563.12&#10;&#9;&#9;&#9;c0-310.719-252.788-563.507-563.508-563.507H2870.122c-267.504,0-485.135,217.63-485.135,485.134v1411.221&#10;&#9;&#9;&#9;c0,70.756-13.858,139.397-41.19,204.017c-26.398,62.413-64.19,118.466-112.324,166.601&#10;&#9;&#9;&#9;c-48.135,48.135-104.188,85.927-166.601,112.325C2000.253,3406.241,1931.612,3420.1,1860.855,3420.1z" class="color036 svgShape"/><rect width="894.044" height="1237.211" x="1939.346" y="777.954" fill="#ffffff" class="colorfff svgShape"/><path fill="#34a853" d="M2833.391,2017.165h-894.044c-1.104,0-2-0.896-2-2V777.954c0-1.104,0.896-2,2-2h894.044&#10;&#9;&#9;&#9;&#9;&#9;c1.104,0,2,0.896,2,2v1237.211C2835.391,2016.27,2834.495,2017.165,2833.391,2017.165z M1941.347,2013.165h890.044V779.954&#10;&#9;&#9;&#9;&#9;&#9;h-890.044V2013.165z" class="color036 svgShape"/><rect width="80.401" height="291.473" x="2091.611" y="1651.103" fill="#ea4335" class="colore74c3c svgShape"/><path fill="#34a853" d="M2172.012,1944.576h-80.401c-1.104,0-2-0.896-2-2v-291.473c0-1.104,0.896-2,2-2h80.401&#10;&#9;&#9;&#9;&#9;&#9;&#9;c1.104,0,2,0.896,2,2v291.473C2174.012,1943.68,2173.116,1944.576,2172.012,1944.576z M2093.61,1940.576h76.401v-287.473&#10;&#9;&#9;&#9;&#9;&#9;&#9;h-76.401V1940.576z" class="color036 svgShape"/><rect width="80.401" height="176.512" x="2267.426" y="1766.064" fill="#4285f4" class="color06c svgShape"/><path fill="#34a853" d="M2347.828,1944.576h-80.401c-1.104,0-2-0.896-2-2v-176.512c0-1.104,0.896-2,2-2h80.401&#10;&#9;&#9;&#9;&#9;&#9;&#9;c1.104,0,2,0.896,2,2v176.512C2349.828,1943.68,2348.932,1944.576,2347.828,1944.576z M2269.426,1940.576h76.401v-172.512&#10;&#9;&#9;&#9;&#9;&#9;&#9;h-76.401V1940.576z" class="color036 svgShape"/><rect width="80.401" height="390.848" x="2443.242" y="1551.728" fill="#ea4335" class="colore74c3c svgShape"/><path fill="#34a853" d="M2523.644,1944.576h-80.401c-1.104,0-2-0.896-2-2v-390.848c0-1.104,0.896-2,2-2h80.401&#10;&#9;&#9;&#9;&#9;&#9;&#9;c1.104,0,2,0.896,2,2v390.848C2525.644,1943.68,2524.748,1944.576,2523.644,1944.576z M2445.242,1940.576h76.401v-386.848&#10;&#9;&#9;&#9;&#9;&#9;&#9;h-76.401V1940.576z" class="color036 svgShape"/><g fill="#000000" class="color000 svgShape"><rect width="80.401" height="279.477" x="2619.058" y="1663.098" fill="#4285f4" class="color06c svgShape"/><path fill="#34a853" d="M2699.459,1944.576h-80.401c-1.104,0-2-0.896-2-2v-279.478c0-1.104,0.896-2,2-2h80.401&#10;&#9;&#9;&#9;&#9;&#9;&#9;c1.104,0,2,0.896,2,2v279.478C2701.459,1943.68,2700.564,1944.576,2699.459,1944.576z M2621.058,1940.576h76.401v-275.478&#10;&#9;&#9;&#9;&#9;&#9;&#9;h-76.401V1940.576z" class="color036 svgShape"/></g><path fill="#34a853" d="M2729.679,1944.576h-668.032c-1.104,0-2-0.896-2-2s0.896-2,2-2h668.032c1.104,0,2,0.896,2,2&#10;&#9;&#9;&#9;&#9;&#9;S2730.783,1944.576,2729.679,1944.576z" class="color036 svgShape"/><g fill="#000000" class="color000 svgShape"><path fill="#34a853" d="M2775.59 960.972h-288.804c-1.104 0-2-.896-2-2s.896-2 2-2h288.804c1.104 0 2 .896 2 2S2776.694 960.972 2775.59 960.972zM2775.59 1003.421h-288.804c-1.104 0-2-.896-2-2s.896-2 2-2h288.804c1.104 0 2 .896 2 2S2776.694 1003.421 2775.59 1003.421zM2775.59 1045.87h-288.804c-1.104 0-2-.896-2-2s.896-2 2-2h288.804c1.104 0 2 .896 2 2S2776.694 1045.87 2775.59 1045.87zM2775.59 1088.318h-288.804c-1.104 0-2-.896-2-2s.896-2 2-2h288.804c1.104 0 2 .896 2 2S2776.694 1088.318 2775.59 1088.318zM2775.59 1130.767h-288.804c-1.104 0-2-.896-2-2s.896-2 2-2h288.804c1.104 0 2 .896 2 2S2776.694 1130.767 2775.59 1130.767zM2631.188 1173.216h-144.402c-1.104 0-2-.896-2-2s.896-2 2-2h144.402c1.104 0 2 .896 2 2S2632.292 1173.216 2631.188 1173.216zM2775.59 1368.286h-778.442c-1.104 0-2-.896-2-2s.896-2 2-2h778.442c1.104 0 2 .896 2 2S2776.694 1368.286 2775.59 1368.286zM2775.59 1410.735h-778.442c-1.104 0-2-.896-2-2s.896-2 2-2h778.442c1.104 0 2 .896 2 2S2776.694 1410.735 2775.59 1410.735zM2554.184 1453.184h-335.631c-1.104 0-2-.896-2-2s.896-2 2-2h335.631c1.104 0 2 .896 2 2S2555.289 1453.184 2554.184 1453.184z" class="color036 svgShape"/></g><g fill="#000000" class="color000 svgShape"><path fill="#4285f4" d="M2195.455,1067.434l187.532,64.48c-27.462,79.87-103.072,133.828-187.532,133.828&#10;&#9;&#9;&#9;&#9;&#9;&#9;c-108.788,0-198.308-89.519-198.308-198.308c0-108.788,89.519-198.308,198.308-198.308c16.78,0,33.492,2.13,49.736,6.338&#10;&#9;&#9;&#9;&#9;&#9;&#9;L2195.455,1067.434z" class="color06c svgShape"/><path fill="#34a853" d="M2195.456,1267.742c-53.149,0-103.353-20.934-141.364-58.944&#10;&#9;&#9;&#9;&#9;&#9;&#9;c-38.011-38.011-58.944-88.214-58.944-141.364c0-53.149,20.933-103.353,58.944-141.364&#10;&#9;&#9;&#9;&#9;&#9;&#9;c38.011-38.01,88.214-58.944,141.364-58.944c16.938,0,33.84,2.154,50.237,6.402c1.069,0.277,1.711,1.368,1.435,2.438&#10;&#9;&#9;&#9;&#9;&#9;&#9;l-49.271,190.178l185.782,63.879c0.501,0.172,0.914,0.537,1.147,1.014c0.232,0.477,0.267,1.026,0.094,1.528&#10;&#9;&#9;&#9;&#9;&#9;&#9;C2357.078,1213.418,2280.955,1267.742,2195.456,1267.742z M2195.456,871.126c-108.245,0-196.308,88.063-196.308,196.308&#10;&#9;&#9;&#9;&#9;&#9;&#9;s88.063,196.308,196.308,196.308c83.127,0,157.208-52.39,184.98-130.589l-185.631-63.827c-0.987-0.339-1.548-1.382-1.286-2.393&#10;&#9;&#9;&#9;&#9;&#9;&#9;l49.231-190.023C2227.29,873.071,2211.389,871.126,2195.456,871.126z" class="color036 svgShape"/><g fill="#000000" class="color000 svgShape"><path fill="#ea4335" d="M2195.455,1067.434l73.836-184.049c75.033,30.101,124.472,103.204,124.472,184.049&#10;&#9;&#9;&#9;&#9;&#9;&#9;c0,14.944-1.689,29.841-5.036,44.406L2195.455,1067.434z" class="colore74c3c svgShape"/><path fill="#34a853" d="M2388.728,1113.84c-0.149,0-0.3-0.017-0.448-0.051l-193.272-44.406&#10;&#9;&#9;&#9;&#9;&#9;&#9;c-0.57-0.131-1.054-0.504-1.325-1.022s-0.301-1.129-0.083-1.671l73.835-184.049c0.412-1.026,1.577-1.523,2.601-1.111&#10;&#9;&#9;&#9;&#9;&#9;&#9;c37.188,14.918,68.753,40.414,91.286,73.731s34.442,72.106,34.442,112.174c0,15.072-1.711,30.163-5.086,44.854&#10;&#9;&#9;&#9;&#9;&#9;&#9;c-0.119,0.517-0.438,0.966-0.888,1.247C2389.468,1113.736,2389.1,1113.84,2388.728,1113.84z M2198.183,1066.008l189.034,43.432&#10;&#9;&#9;&#9;&#9;&#9;&#9;c3.018-13.781,4.547-27.902,4.547-42.006c0-78.74-48.691-151.395-121.365-181.439L2198.183,1066.008z" class="color036 svgShape"/></g></g><g fill="#000000" class="color000 svgShape"><rect width="894.044" height="1237.211" x="3046.817" y="448.829" fill="#ffffff" class="colorfff svgShape"/><path fill="#34a853" d="M3940.861,1688.04h-894.045c-1.104,0-2-0.896-2-2V448.829c0-1.104,0.896-2,2-2h894.045&#10;&#9;&#9;&#9;&#9;&#9;c1.104,0,2,0.896,2,2V1686.04C3942.861,1687.145,3941.966,1688.04,3940.861,1688.04z M3048.816,1684.04h890.045V450.829&#10;&#9;&#9;&#9;&#9;&#9;h-890.045V1684.04z" class="color036 svgShape"/><path fill="#34a853" d="M3883.06 1053.567h-778.441c-1.104 0-2-.896-2-2s.896-2 2-2h778.441c1.104 0 2 .896 2 2S3884.164 1053.567 3883.06 1053.567zM3883.06 1096.016h-778.441c-1.104 0-2-.896-2-2s.896-2 2-2h778.441c1.104 0 2 .896 2 2S3884.164 1096.016 3883.06 1096.016zM3883.06 1138.464h-778.441c-1.104 0-2-.896-2-2s.896-2 2-2h778.441c1.104 0 2 .896 2 2S3884.164 1138.464 3883.06 1138.464zM3883.06 1180.913h-778.441c-1.104 0-2-.896-2-2s.896-2 2-2h778.441c1.104 0 2 .896 2 2S3884.164 1180.913 3883.06 1180.913zM3883.06 1223.362h-778.441c-1.104 0-2-.896-2-2s.896-2 2-2h778.441c1.104 0 2 .896 2 2S3884.164 1223.362 3883.06 1223.362zM3883.06 1265.811h-264.317c-1.104 0-2-.896-2-2s.896-2 2-2h264.317c1.104 0 2 .896 2 2S3884.164 1265.811 3883.06 1265.811zM3883.06 1382.144h-778.441c-1.104 0-2-.896-2-2s.896-2 2-2h778.441c1.104 0 2 .896 2 2S3884.164 1382.144 3883.06 1382.144zM3883.06 1424.593h-778.441c-1.104 0-2-.896-2-2s.896-2 2-2h778.441c1.104 0 2 .896 2 2S3884.164 1424.593 3883.06 1424.593zM3883.06 1467.042h-778.441c-1.104 0-2-.896-2-2s.896-2 2-2h778.441c1.104 0 2 .896 2 2S3884.164 1467.042 3883.06 1467.042zM3883.06 1509.49h-778.441c-1.104 0-2-.896-2-2s.896-2 2-2h778.441c1.104 0 2 .896 2 2S3884.164 1509.49 3883.06 1509.49zM3883.06 1551.939h-778.441c-1.104 0-2-.896-2-2s.896-2 2-2h778.441c1.104 0 2 .896 2 2S3884.164 1551.939 3883.06 1551.939zM3626.986 1594.388h-264.317c-1.104 0-2-.896-2-2s.896-2 2-2h264.317c1.104 0 2 .896 2 2S3628.091 1594.388 3626.986 1594.388z" class="color036 svgShape"/><g fill="#000000" class="color000 svgShape"><polygon fill="#ea4335" points="3883.06 714.744 3841.471 861.173 3772.127 763.11 3702.783 861.173 3606.822 642.634 3510.861 861.173 3469.185 757.193 3426.808 861.173 3349.759 622.255 3285.318 774.318 3230.333 680.458 3173.247 777.119 3104.618 558.926 3104.618 920.01 3883.06 920.01" class="colore74c3c svgShape"/><path fill="#34a853" d="M3883.06,922.01h-778.441c-1.104,0-2-0.896-2-2V558.926c0-0.987,0.721-1.827,1.696-1.977&#10;&#9;&#9;&#9;&#9;&#9;c0.968-0.155,1.915,0.434,2.212,1.376l67.281,213.91l54.804-92.795c0.359-0.609,1.015-0.983,1.722-0.983&#10;&#9;&#9;&#9;&#9;&#9;c0.001,0,0.002,0,0.004,0c0.708,0.001,1.363,0.377,1.722,0.989l52.972,90.423l62.887-148.395&#10;&#9;&#9;&#9;&#9;&#9;c0.326-0.769,1.077-1.255,1.931-1.218c0.835,0.037,1.559,0.589,1.814,1.384l75.364,233.694l40.306-98.898&#10;&#9;&#9;&#9;&#9;&#9;c0.308-0.753,1.04-1.245,1.853-1.245c0.002,0,0.004,0,0.006,0c0.815,0.002,1.547,0.5,1.851,1.256l39.904,99.559l94.046-214.177&#10;&#9;&#9;&#9;&#9;&#9;c0.319-0.727,1.037-1.196,1.831-1.196s1.512,0.469,1.831,1.196l94.539,215.301l67.302-95.175&#10;&#9;&#9;&#9;&#9;&#9;c0.375-0.53,0.983-0.845,1.633-0.845s1.258,0.315,1.633,0.845l66.93,94.648l40.446-142.406c0.272-0.96,1.208-1.57,2.2-1.435&#10;&#9;&#9;&#9;&#9;&#9;c0.988,0.138,1.724,0.983,1.724,1.981V920.01C3885.06,921.114,3884.164,922.01,3883.06,922.01z M3106.618,918.01h774.441&#10;&#9;&#9;&#9;&#9;&#9;V729.105l-37.665,132.614c-0.21,0.741-0.827,1.295-1.587,1.425c-0.76,0.134-1.524-0.188-1.97-0.816l-67.711-95.753&#10;&#9;&#9;&#9;&#9;&#9;l-67.711,95.753c-0.416,0.588-1.108,0.91-1.834,0.835c-0.718-0.073-1.34-0.525-1.63-1.186l-94.13-214.369l-94.13,214.369&#10;&#9;&#9;&#9;&#9;&#9;c-0.324,0.737-1.093,1.223-1.863,1.195c-0.806-0.013-1.524-0.508-1.824-1.255l-39.836-99.387l-40.51,99.398&#10;&#9;&#9;&#9;&#9;&#9;c-0.316,0.777-1.073,1.272-1.927,1.244c-0.84-0.032-1.57-0.584-1.828-1.385l-75.4-233.805l-62.345,147.116&#10;&#9;&#9;&#9;&#9;&#9;c-0.296,0.696-0.958,1.167-1.713,1.215c-0.742,0.05-1.473-0.332-1.854-0.985l-53.266-90.925l-55.357,93.733&#10;&#9;&#9;&#9;&#9;&#9;c-0.401,0.681-1.162,1.061-1.95,0.97c-0.784-0.09-1.442-0.633-1.68-1.387l-64.721-205.769V918.01z" class="color036 svgShape"/></g></g><g fill="#000000" class="color000 svgShape"><rect width="894.044" height="1237.211" x="4154.287" y="1109.729" fill="#ffffff" class="colorfff svgShape"/><path fill="#34a853" d="M5048.331,2348.94h-894.044c-1.104,0-2-0.896-2-2V1109.729c0-1.104,0.896-2,2-2h894.044&#10;&#9;&#9;&#9;&#9;&#9;c1.104,0,2,0.896,2,2V2346.94C5050.331,2348.045,5049.436,2348.94,5048.331,2348.94z M4156.287,2344.94h890.044V1111.729&#10;&#9;&#9;&#9;&#9;&#9;h-890.044V2344.94z" class="color036 svgShape"/><path fill="#34a853" d="M4990.53 1778.141h-778.442c-1.104 0-2-.896-2-2s.896-2 2-2h778.442c1.104 0 2 .896 2 2S4991.635 1778.141 4990.53 1778.141zM4990.53 1820.589h-778.442c-1.104 0-2-.896-2-2s.896-2 2-2h778.442c1.104 0 2 .896 2 2S4991.635 1820.589 4990.53 1820.589zM4990.53 1863.038h-778.442c-1.104 0-2-.896-2-2s.896-2 2-2h778.442c1.104 0 2 .896 2 2S4991.635 1863.038 4990.53 1863.038zM4990.53 1905.487h-778.442c-1.104 0-2-.896-2-2s.896-2 2-2h778.442c1.104 0 2 .896 2 2S4991.635 1905.487 4990.53 1905.487zM4990.53 1947.936h-778.442c-1.104 0-2-.896-2-2s.896-2 2-2h778.442c1.104 0 2 .896 2 2S4991.635 1947.936 4990.53 1947.936zM4990.53 1990.385h-778.442c-1.104 0-2-.896-2-2s.896-2 2-2h778.442c1.104 0 2 .896 2 2S4991.635 1990.385 4990.53 1990.385zM4990.53 2032.833h-778.442c-1.104 0-2-.896-2-2s.896-2 2-2h778.442c1.104 0 2 .896 2 2S4991.635 2032.833 4990.53 2032.833zM4990.53 2075.282h-778.442c-1.104 0-2-.896-2-2s.896-2 2-2h778.442c1.104 0 2 .896 2 2S4991.635 2075.282 4990.53 2075.282zM4990.53 2117.73h-778.442c-1.104 0-2-.896-2-2s.896-2 2-2h778.442c1.104 0 2 .896 2 2S4991.635 2117.73 4990.53 2117.73zM4734.456 2160.18h-264.317c-1.104 0-2-.896-2-2s.896-2 2-2h264.317c1.104 0 2 .896 2 2S4735.561 2160.18 4734.456 2160.18z" class="color036 svgShape"/><g fill="#000000" class="color000 svgShape"><rect width="120.462" height="346.02" x="4318.915" y="1326.649" fill="#4285f4" class="color06c svgShape"/><path fill="#34a853" d="M4439.377,1674.669h-120.462c-1.104,0-2-0.896-2-2v-346.02c0-1.104,0.896-2,2-2h120.462&#10;&#9;&#9;&#9;&#9;&#9;&#9;c1.104,0,2,0.896,2,2v346.02C4441.377,1673.773,4440.481,1674.669,4439.377,1674.669z M4320.915,1670.669h116.462v-342.02&#10;&#9;&#9;&#9;&#9;&#9;&#9;h-116.462V1670.669z" class="color036 svgShape"/><rect width="120.462" height="267.57" x="4541.656" y="1405.099" fill="#ea4335" class="colore74c3c svgShape"/><path fill="#34a853" d="M4662.118,1674.669h-120.462c-1.104,0-2-0.896-2-2v-267.57c0-1.104,0.896-2,2-2h120.462&#10;&#9;&#9;&#9;&#9;&#9;&#9;c1.104,0,2,0.896,2,2v267.57C4664.118,1673.773,4663.223,1674.669,4662.118,1674.669z M4543.656,1670.669h116.462v-263.57&#10;&#9;&#9;&#9;&#9;&#9;&#9;h-116.462V1670.669z" class="color036 svgShape"/><g fill="#000000" class="color000 svgShape"><rect width="120.462" height="179.314" x="4765.218" y="1493.355" fill="#4285f4" class="color06c svgShape"/><path fill="#34a853" d="M4885.68,1674.669h-120.461c-1.104,0-2-0.896-2-2v-179.314c0-1.104,0.896-2,2-2h120.461&#10;&#9;&#9;&#9;&#9;&#9;&#9;c1.104,0,2,0.896,2,2v179.314C4887.68,1673.773,4886.784,1674.669,4885.68,1674.669z M4767.219,1670.669h116.461v-175.314&#10;&#9;&#9;&#9;&#9;&#9;&#9;h-116.461V1670.669z" class="color036 svgShape"/></g><g fill="#000000" class="color000 svgShape"><path fill="#ea4335" d="M4885.68,1403.243c-0.232,0-0.469-0.041-0.7-0.127l-446.303-166.706&#10;&#9;&#9;&#9;&#9;&#9;&#9;c-1.034-0.386-1.56-1.539-1.174-2.573c0.387-1.035,1.536-1.561,2.574-1.174l446.303,166.706&#10;&#9;&#9;&#9;&#9;&#9;&#9;c1.034,0.386,1.56,1.539,1.174,2.573C4887.253,1402.746,4886.49,1403.243,4885.68,1403.243z" class="colore74c3c svgShape"/><path fill="#ea4335" d="M4470.52,1283.005c-0.641,0-1.271-0.307-1.657-0.877l-31.553-46.509&#10;&#9;&#9;&#9;&#9;&#9;&#9;c-0.401-0.591-0.456-1.352-0.145-1.995s0.942-1.071,1.655-1.123l56.054-4.071c1.093-0.082,2.059,0.748,2.14,1.85&#10;&#9;&#9;&#9;&#9;&#9;&#9;c0.08,1.102-0.749,2.06-1.851,2.14l-52.599,3.82l29.608,43.642c0.62,0.914,0.382,2.158-0.532,2.778&#10;&#9;&#9;&#9;&#9;&#9;&#9;C4471.297,1282.893,4470.906,1283.005,4470.52,1283.005z" class="colore74c3c svgShape"/></g></g></g><g fill="#000000" class="color000 svgShape"><path fill="#4285f4" d="M1033.854,3551.171h1150.678c67.977-157.29-36.166-265.087-219.246-236.674&#10;&#9;&#9;&#9;&#9;&#9;c-54.439-320.744-498.417-318.917-555.43,0C1127.776,3262.063,993.658,3386.573,1033.854,3551.171z" class="color06c svgShape"/><path fill="#34a853" d="M1033.854,3553.172c-0.922,0-1.724-0.63-1.943-1.525c-8.459-34.639-9.323-67.541-2.569-97.792&#10;&#9;&#9;&#9;&#9;&#9;c6.776-30.351,21.027-57.175,42.357-79.729c30.81-32.576,74.546-54.727,129.994-65.835&#10;&#9;&#9;&#9;&#9;&#9;c58.812-11.783,128.301-10.477,206.554,3.875c13.764-74.577,49.798-136.599,104.292-179.47&#10;&#9;&#9;&#9;&#9;&#9;c49.602-39.022,112.745-60.317,177.827-60.069c64.484,0.282,126.693,21.852,175.167,60.732&#10;&#9;&#9;&#9;&#9;&#9;c53.334,42.779,88.366,104.595,101.39,178.864c94.54-14.219,171.711,7.385,211.946,59.396&#10;&#9;&#9;&#9;&#9;&#9;c35.349,45.695,38.012,109.743,7.5,180.346c-0.316,0.731-1.038,1.206-1.836,1.206L1033.854,3553.172z M1286.809,3304.289&#10;&#9;&#9;&#9;&#9;&#9;c-93.521,0-166.886,24.669-212.204,72.586c-41.333,43.703-55.218,104.846-39.176,172.297l1147.786-0.001&#10;&#9;&#9;&#9;&#9;&#9;c29.361-68.727,26.708-130.871-7.51-175.104c-39.591-51.18-116.174-72.174-210.112-57.593c-1.079,0.163-2.095-0.563-2.278-1.642&#10;&#9;&#9;&#9;&#9;&#9;c-27.809-163.845-157.134-237.697-272.966-238.206c-0.408-0.001-0.817-0.002-1.226-0.002&#10;&#9;&#9;&#9;&#9;&#9;c-117.035,0-247.854,73.522-277.298,238.225c-0.094,0.525-0.393,0.99-0.831,1.293c-0.439,0.304-0.979,0.419-1.503,0.322&#10;&#9;&#9;&#9;&#9;&#9;C1365.661,3308.316,1324.585,3304.289,1286.809,3304.289z" class="color036 svgShape"/><path fill="#4285f4" d="M490.718,2881.805h836.628c49.424-114.362-26.296-192.738-159.408-172.08&#10;&#9;&#9;&#9;&#9;&#9;c-39.581-233.205-362.386-231.876-403.839,0C559.007,2671.602,461.492,2762.13,490.718,2881.805z" class="color06c svgShape"/><path fill="#34a853" d="M1327.346,2883.805H490.718c-0.922,0-1.724-0.63-1.943-1.525&#10;&#9;&#9;&#9;&#9;&#9;c-12.372-50.66-2.051-96.678,29.062-129.574c22.48-23.77,54.377-39.928,94.804-48.027c42.697-8.556,93.101-7.64,149.85,2.718&#10;&#9;&#9;&#9;&#9;&#9;c10.106-54.113,36.333-99.132,75.928-130.282c35.919-28.259,81.592-43.794,128.693-43.794c0.315,0,0.625,0.001,0.94,0.002&#10;&#9;&#9;&#9;&#9;&#9;c47.008,0.207,92.359,15.931,127.699,44.277c38.756,31.086,64.256,75.959,73.822,129.855&#10;&#9;&#9;&#9;&#9;&#9;c68.697-10.203,124.785,5.59,154.086,43.469c25.828,33.389,27.789,80.151,5.522,131.675&#10;&#9;&#9;&#9;&#9;&#9;C1328.866,2883.33,1328.144,2883.805,1327.346,2883.805z M492.295,2879.805h833.732c21.114-49.646,19.165-94.51-5.532-126.434&#10;&#9;&#9;&#9;&#9;&#9;c-28.661-37.05-84.151-52.239-152.251-41.669c-1.082,0.16-2.096-0.563-2.278-1.642&#10;&#9;&#9;&#9;&#9;&#9;c-20.166-118.815-113.941-172.37-197.932-172.739c-0.291-0.001-0.597-0.002-0.888-0.002&#10;&#9;&#9;&#9;&#9;&#9;c-84.869,0-179.725,53.312-201.079,172.758c-0.094,0.525-0.393,0.99-0.831,1.293c-0.438,0.304-0.976,0.423-1.503,0.321&#10;&#9;&#9;&#9;&#9;&#9;c-110.565-20.552-196.862-5.011-242.99,43.762C490.907,2787.001,480.83,2831.111,492.295,2879.805z" class="color036 svgShape"/><g fill="#000000" class="color000 svgShape"><path fill="#4285f4" d="M1894.839,2881.805h836.628c49.424-114.362-26.296-192.738-159.408-172.08&#10;&#9;&#9;&#9;&#9;&#9;c-39.581-233.205-362.386-231.876-403.839,0C1963.128,2671.602,1865.614,2762.13,1894.839,2881.805z" class="color06c svgShape"/><path fill="#34a853" d="M2731.468,2883.805h-836.628c-0.922,0-1.724-0.63-1.943-1.525&#10;&#9;&#9;&#9;&#9;&#9;c-12.372-50.66-2.051-96.678,29.062-129.574c22.48-23.77,54.377-39.928,94.804-48.027c42.697-8.556,93.101-7.64,149.85,2.718&#10;&#9;&#9;&#9;&#9;&#9;c10.106-54.113,36.333-99.132,75.928-130.282c35.919-28.259,81.592-43.794,128.692-43.794c0.315,0,0.625,0.001,0.94,0.002&#10;&#9;&#9;&#9;&#9;&#9;c47.008,0.207,92.359,15.932,127.699,44.277c38.756,31.086,64.256,75.959,73.822,129.855&#10;&#9;&#9;&#9;&#9;&#9;c68.696-10.203,124.785,5.59,154.086,43.469c25.828,33.389,27.79,80.151,5.522,131.675&#10;&#9;&#9;&#9;&#9;&#9;C2732.987,2883.33,2732.266,2883.805,2731.468,2883.805z M1896.417,2879.805h833.733c21.114-49.646,19.165-94.51-5.532-126.435&#10;&#9;&#9;&#9;&#9;&#9;c-28.661-37.049-84.155-52.238-152.252-41.668c-1.083,0.16-2.096-0.563-2.278-1.642&#10;&#9;&#9;&#9;&#9;&#9;c-20.166-118.815-113.941-172.37-197.931-172.739c-0.296-0.001-0.592-0.002-0.889-0.002&#10;&#9;&#9;&#9;&#9;&#9;c-84.865,0-179.726,53.318-201.079,172.758c-0.094,0.525-0.393,0.99-0.831,1.293c-0.438,0.304-0.977,0.423-1.503,0.321&#10;&#9;&#9;&#9;&#9;&#9;c-110.565-20.552-196.862-5.011-242.99,43.762C1895.028,2787.001,1884.951,2831.111,1896.417,2879.805z" class="color036 svgShape"/></g></g><g fill="#000000" class="color000 svgShape"><rect width="1373.83" height="887.956" x="3587.299" y="2574.603" fill="#4285f4" class="color06c svgShape"/><path fill="#34a853" d="M4961.129,3464.559h-1373.83c-1.104,0-2-0.896-2-2v-887.956c0-1.104,0.896-2,2-2h1373.83&#10;&#9;&#9;&#9;&#9;&#9;c1.104,0,2,0.896,2,2v887.956C4963.129,3463.663,4962.233,3464.559,4961.129,3464.559z M3589.299,3460.559h1369.83v-883.956&#10;&#9;&#9;&#9;&#9;&#9;h-1369.83V3460.559z" class="color036 svgShape"/><rect width="1304.654" height="825.835" x="3621.887" y="2605.663" fill="#34a853" class="color036 svgShape"/><path fill="#34a853" d="M4926.541,3433.498H3621.887c-1.104,0-2-0.896-2-2v-825.835c0-1.104,0.896-2,2-2h1304.654&#10;&#9;&#9;&#9;&#9;&#9;c1.104,0,2,0.896,2,2v825.835C4928.541,3432.603,4927.646,3433.498,4926.541,3433.498z M3623.887,3429.498h1300.654v-821.835&#10;&#9;&#9;&#9;&#9;&#9;H3623.887V3429.498z" class="color036 svgShape"/><rect width="1279.075" height="799.038" x="3634.676" y="2619.061" fill="#d1d7e0" class="colord1d8e0 svgShape"/><path fill="#34a853" d="M4913.752,3420.1H3634.677c-1.104,0-2-0.896-2-2v-799.038c0-1.104,0.896-2,2-2h1279.075&#10;&#9;&#9;&#9;&#9;&#9;c1.104,0,2,0.896,2,2V3418.1C4915.752,3419.204,4914.856,3420.1,4913.752,3420.1z M3636.677,3416.1h1275.075v-795.038H3636.677&#10;&#9;&#9;&#9;&#9;&#9;V3416.1z" class="color036 svgShape"/><g fill="#000000" class="color000 svgShape"><path fill="#34a853" d="M5117.407,3462.559H3431.021c-8.612,0-15.594,6.981-15.594,15.593v39.219&#10;&#9;&#9;&#9;&#9;&#9;c0,18.668,15.133,33.801,33.801,33.801h1649.97c18.667,0,33.801-15.133,33.801-33.801v-39.219&#10;&#9;&#9;&#9;&#9;&#9;C5133,3469.54,5126.019,3462.559,5117.407,3462.559z" class="color036 svgShape"/><path fill="#34a853" d="M5099.199,3553.172H3449.229c-19.74,0-35.801-16.061-35.801-35.802v-39.218&#10;&#9;&#9;&#9;&#9;&#9;c0-9.701,7.893-17.594,17.594-17.594h1686.385c9.701,0,17.594,7.893,17.594,17.594v39.218&#10;&#9;&#9;&#9;&#9;&#9;C5135,3537.111,5118.939,3553.172,5099.199,3553.172z M3431.021,3464.559c-7.496,0-13.594,6.099-13.594,13.594v39.218&#10;&#9;&#9;&#9;&#9;&#9;c0,17.535,14.266,31.802,31.801,31.802h1649.971c17.535,0,31.801-14.267,31.801-31.802v-39.218&#10;&#9;&#9;&#9;&#9;&#9;c0-7.495-6.098-13.594-13.594-13.594H3431.021z" class="color036 svgShape"/></g><g fill="#000000" class="color000 svgShape"><path fill="#34a853" d="M4283.896,3307.431h-555.366c-1.104,0-2-0.896-2-2v-573.7c0-1.104,0.896-2,2-2s2,0.896,2,2&#10;&#9;&#9;&#9;&#9;&#9;&#9;v571.7h553.366c1.104,0,2,0.896,2,2S4285,3307.431,4283.896,3307.431z" class="color036 svgShape"/><path fill="#ea4335" d="M3728.529,3307.431c-0.501,0-1.003-0.188-1.391-0.563c-0.794-0.768-0.814-2.034-0.047-2.827&#10;&#9;&#9;&#9;&#9;&#9;&#9;l116.714-120.565c0.646-0.668,1.67-0.805,2.469-0.322l95.018,57.219l169.058-435.086c0.299-0.769,1.039-1.275,1.864-1.275&#10;&#9;&#9;&#9;&#9;&#9;&#9;h98.929l71.316-73.67c0.767-0.794,2.035-0.814,2.827-0.046c0.794,0.768,0.814,2.034,0.046,2.827l-71.905,74.279&#10;&#9;&#9;&#9;&#9;&#9;&#9;c-0.376,0.39-0.895,0.609-1.437,0.609h-98.408l-169.422,436.025c-0.214,0.55-0.659,0.978-1.218,1.168&#10;&#9;&#9;&#9;&#9;&#9;&#9;c-0.56,0.191-1.172,0.127-1.679-0.18l-95.69-57.624l-115.607,119.422C3729.574,3307.227,3729.052,3307.431,3728.529,3307.431z" class="colore74c3c svgShape"/><path fill="#ea4335" d="M4276.652,2775.297c-0.113,0-0.229-0.01-0.346-0.029c-1.088-0.19-1.816-1.226-1.627-2.314&#10;&#9;&#9;&#9;&#9;&#9;&#9;l6.721-38.558l-42.101,10.241c-1.072,0.263-2.155-0.396-2.416-1.471c-0.261-1.073,0.397-2.155,1.471-2.416l45.068-10.963&#10;&#9;&#9;&#9;&#9;&#9;&#9;c0.655-0.16,1.348,0.023,1.84,0.483c0.492,0.461,0.719,1.139,0.604,1.804l-7.245,41.566&#10;&#9;&#9;&#9;&#9;&#9;&#9;C4278.451,2774.612,4277.606,2775.297,4276.652,2775.297z" class="colore74c3c svgShape"/><g fill="#000000" class="color000 svgShape"><path fill="#ffffff" d="M4819.898 2815.917H4432.56c-1.104 0-2-.896-2-2s.896-2 2-2h387.339c1.104 0 2 .896 2 2S4821.003 2815.917 4819.898 2815.917zM4819.898 2867.083H4432.56c-1.104 0-2-.896-2-2s.896-2 2-2h387.339c1.104 0 2 .896 2 2S4821.003 2867.083 4819.898 2867.083zM4819.898 2918.249H4432.56c-1.104 0-2-.896-2-2s.896-2 2-2h387.339c1.104 0 2 .896 2 2S4821.003 2918.249 4819.898 2918.249zM4819.898 2969.415H4432.56c-1.104 0-2-.896-2-2s.896-2 2-2h387.339c1.104 0 2 .896 2 2S4821.003 2969.415 4819.898 2969.415zM4819.898 3020.581H4432.56c-1.104 0-2-.896-2-2s.896-2 2-2h387.339c1.104 0 2 .896 2 2S4821.003 3020.581 4819.898 3020.581zM4819.898 3071.746H4432.56c-1.104 0-2-.896-2-2s.896-2 2-2h387.339c1.104 0 2 .896 2 2S4821.003 3071.746 4819.898 3071.746zM4819.898 3122.912H4432.56c-1.104 0-2-.896-2-2s.896-2 2-2h387.339c1.104 0 2 .896 2 2S4821.003 3122.912 4819.898 3122.912zM4819.898 3174.078H4432.56c-1.104 0-2-.896-2-2s.896-2 2-2h387.339c1.104 0 2 .896 2 2S4821.003 3174.078 4819.898 3174.078zM4819.898 3225.244h-155.909c-1.104 0-2-.896-2-2s.896-2 2-2h155.909c1.104 0 2 .896 2 2S4821.003 3225.244 4819.898 3225.244z" class="colorfff svgShape"/></g></g></g><g fill="#000000" class="color000 svgShape"><rect width="1165.67" height="255.79" x="367" y="777.954" fill="#d1d7e0" class="colord1d8e0 svgShape"/><path fill="#34a853" d="M1532.67,1035.744H367c-1.104,0-2-0.896-2-2v-255.79c0-1.104,0.896-2,2-2h1165.67&#10;&#9;&#9;&#9;&#9;&#9;&#9;c1.104,0,2,0.896,2,2v255.79C1534.67,1034.849,1533.775,1035.744,1532.67,1035.744z M369,1031.744h1161.67v-251.79H369&#10;&#9;&#9;&#9;&#9;&#9;&#9;V1031.744z" class="color036 svgShape"/><path fill="#fbbc05" d="M495.447,952.782h-48.265c-10.984,0-19.888-8.904-19.888-19.888v-48.265&#10;&#9;&#9;&#9;&#9;&#9;&#9;c0-10.984,8.904-19.888,19.888-19.888h48.265c10.984,0,19.888,8.904,19.888,19.888v48.265&#10;&#9;&#9;&#9;&#9;&#9;&#9;C515.335,943.878,506.431,952.782,495.447,952.782z" class="colorf39c12 svgShape"/><path fill="#34a853" d="M495.447,954.782h-48.265c-12.069,0-21.888-9.819-21.888-21.888v-48.265&#10;&#9;&#9;&#9;&#9;&#9;&#9;c0-12.069,9.819-21.888,21.888-21.888h48.265c12.069,0,21.889,9.819,21.889,21.888v48.265&#10;&#9;&#9;&#9;&#9;&#9;&#9;C517.335,944.963,507.516,954.782,495.447,954.782z M447.182,866.74c-9.864,0-17.888,8.024-17.888,17.888v48.265&#10;&#9;&#9;&#9;&#9;&#9;&#9;c0,9.864,8.024,17.888,17.888,17.888h48.265c9.864,0,17.889-8.024,17.889-17.888v-48.265c0-9.864-8.025-17.888-17.889-17.888&#10;&#9;&#9;&#9;&#9;&#9;&#9;H447.182z" class="color036 svgShape"/><g fill="#000000" class="color000 svgShape"><path fill="#ea4335" d="M642.183,952.782h-48.265c-10.984,0-19.888-8.904-19.888-19.888v-48.265&#10;&#9;&#9;&#9;&#9;&#9;&#9;c0-10.984,8.904-19.888,19.888-19.888h48.265c10.984,0,19.888,8.904,19.888,19.888v48.265&#10;&#9;&#9;&#9;&#9;&#9;&#9;C662.072,943.878,653.167,952.782,642.183,952.782z" class="colore74c3c svgShape"/><path fill="#34a853" d="M642.183,954.782h-48.265c-12.069,0-21.889-9.819-21.889-21.888v-48.265&#10;&#9;&#9;&#9;&#9;&#9;&#9;c0-12.069,9.819-21.888,21.889-21.888h48.265c12.069,0,21.889,9.819,21.889,21.888v48.265&#10;&#9;&#9;&#9;&#9;&#9;&#9;C664.072,944.963,654.252,954.782,642.183,954.782z M593.918,866.74c-9.864,0-17.889,8.024-17.889,17.888v48.265&#10;&#9;&#9;&#9;&#9;&#9;&#9;c0,9.864,8.025,17.888,17.889,17.888h48.265c9.864,0,17.889-8.024,17.889-17.888v-48.265c0-9.864-8.025-17.888-17.889-17.888&#10;&#9;&#9;&#9;&#9;&#9;&#9;H593.918z" class="color036 svgShape"/></g><g fill="#000000" class="color000 svgShape"><path fill="#fbbc05" d="M1449.71,931.428H746.688c-12.519,0-22.667-10.148-22.667-22.667&#10;&#9;&#9;&#9;&#9;&#9;&#9;c0-12.519,10.148-22.667,22.667-22.667h703.022c12.519,0,22.667,10.148,22.667,22.667&#10;&#9;&#9;&#9;&#9;&#9;&#9;C1472.377,921.28,1462.229,931.428,1449.71,931.428z" class="colorf39c12 svgShape"/><path fill="#34a853" d="M1449.71,933.428H746.688c-13.602,0-24.667-11.065-24.667-24.667s11.065-24.667,24.667-24.667&#10;&#9;&#9;&#9;&#9;&#9;&#9;h703.022c13.602,0,24.667,11.065,24.667,24.667S1463.312,933.428,1449.71,933.428z M746.688,888.094&#10;&#9;&#9;&#9;&#9;&#9;&#9;c-11.396,0-20.667,9.271-20.667,20.667s9.271,20.667,20.667,20.667h703.022c11.396,0,20.667-9.271,20.667-20.667&#10;&#9;&#9;&#9;&#9;&#9;&#9;s-9.271-20.667-20.667-20.667H746.688z" class="color036 svgShape"/></g><g fill="#000000" class="color000 svgShape"><rect width="1165.67" height="255.79" x="367" y="1125.25" fill="#4285f4" class="color06c svgShape"/><path fill="#34a853" d="M1532.67,1383.04H367c-1.104,0-2-0.896-2-2v-255.79c0-1.104,0.896-2,2-2h1165.67&#10;&#9;&#9;&#9;&#9;&#9;&#9;c1.104,0,2,0.896,2,2v255.79C1534.67,1382.144,1533.775,1383.04,1532.67,1383.04z M369,1379.04h1161.67v-251.79H369V1379.04z" class="color036 svgShape"/><path fill="#ea4335" d="M495.447,1300.077h-48.265c-10.984,0-19.888-8.904-19.888-19.888v-48.265&#10;&#9;&#9;&#9;&#9;&#9;&#9;c0-10.984,8.904-19.888,19.888-19.888h48.265c10.984,0,19.888,8.904,19.888,19.888v48.265&#10;&#9;&#9;&#9;&#9;&#9;&#9;C515.335,1291.173,506.431,1300.077,495.447,1300.077z" class="colore74c3c svgShape"/><path fill="#34a853" d="M495.447,1302.078h-48.265c-12.069,0-21.888-9.819-21.888-21.889v-48.265&#10;&#9;&#9;&#9;&#9;&#9;&#9;c0-12.069,9.819-21.888,21.888-21.888h48.265c12.069,0,21.889,9.819,21.889,21.888v48.265&#10;&#9;&#9;&#9;&#9;&#9;&#9;C517.335,1292.258,507.516,1302.078,495.447,1302.078z M447.182,1214.036c-9.864,0-17.888,8.024-17.888,17.888v48.265&#10;&#9;&#9;&#9;&#9;&#9;&#9;c0,9.864,8.024,17.889,17.888,17.889h48.265c9.864,0,17.889-8.025,17.889-17.889v-48.265c0-9.864-8.025-17.888-17.889-17.888&#10;&#9;&#9;&#9;&#9;&#9;&#9;H447.182z" class="color036 svgShape"/><g fill="#000000" class="color000 svgShape"><path fill="#fbbc05" d="M642.183,1300.077h-48.265c-10.984,0-19.888-8.904-19.888-19.888v-48.265&#10;&#9;&#9;&#9;&#9;&#9;&#9;c0-10.984,8.904-19.888,19.888-19.888h48.265c10.984,0,19.888,8.904,19.888,19.888v48.265&#10;&#9;&#9;&#9;&#9;&#9;&#9;C662.072,1291.173,653.167,1300.077,642.183,1300.077z" class="colorf39c12 svgShape"/><path fill="#34a853" d="M642.183,1302.078h-48.265c-12.069,0-21.889-9.819-21.889-21.889v-48.265&#10;&#9;&#9;&#9;&#9;&#9;&#9;c0-12.069,9.819-21.888,21.889-21.888h48.265c12.069,0,21.889,9.819,21.889,21.888v48.265&#10;&#9;&#9;&#9;&#9;&#9;&#9;C664.072,1292.258,654.252,1302.078,642.183,1302.078z M593.918,1214.036c-9.864,0-17.889,8.024-17.889,17.888v48.265&#10;&#9;&#9;&#9;&#9;&#9;&#9;c0,9.864,8.025,17.889,17.889,17.889h48.265c9.864,0,17.889-8.025,17.889-17.889v-48.265c0-9.864-8.025-17.888-17.889-17.888&#10;&#9;&#9;&#9;&#9;&#9;&#9;H593.918z" class="color036 svgShape"/></g><g fill="#000000" class="color000 svgShape"><path fill="#fbbc05" d="M1449.71,1278.724H746.688c-12.519,0-22.667-10.148-22.667-22.667&#10;&#9;&#9;&#9;&#9;&#9;&#9;c0-12.519,10.148-22.667,22.667-22.667h703.022c12.519,0,22.667,10.148,22.667,22.667&#10;&#9;&#9;&#9;&#9;&#9;&#9;C1472.377,1268.575,1462.229,1278.724,1449.71,1278.724z" class="colorf39c12 svgShape"/><path fill="#34a853" d="M1449.71,1280.724H746.688c-13.602,0-24.667-11.065-24.667-24.667s11.065-24.667,24.667-24.667&#10;&#9;&#9;&#9;&#9;&#9;&#9;h703.022c13.602,0,24.667,11.066,24.667,24.667S1463.312,1280.724,1449.71,1280.724z M746.688,1235.389&#10;&#9;&#9;&#9;&#9;&#9;&#9;c-11.396,0-20.667,9.271-20.667,20.667s9.271,20.667,20.667,20.667h703.022c11.396,0,20.667-9.271,20.667-20.667&#10;&#9;&#9;&#9;&#9;&#9;&#9;s-9.271-20.667-20.667-20.667H746.688z" class="color036 svgShape"/></g></g><g fill="#000000" class="color000 svgShape"><rect width="1165.67" height="255.79" x="367" y="1472.545" fill="#d1d7e0" class="colord1d8e0 svgShape"/><path fill="#34a853" d="M1532.67,1730.335H367c-1.104,0-2-0.896-2-2v-255.79c0-1.104,0.896-2,2-2h1165.67&#10;&#9;&#9;&#9;&#9;&#9;&#9;c1.104,0,2,0.896,2,2v255.79C1534.67,1729.439,1533.775,1730.335,1532.67,1730.335z M369,1726.335h1161.67v-251.79H369&#10;&#9;&#9;&#9;&#9;&#9;&#9;V1726.335z" class="color036 svgShape"/><path fill="#fbbc05" d="M495.447,1647.373h-48.265c-10.984,0-19.888-8.904-19.888-19.888v-48.265&#10;&#9;&#9;&#9;&#9;&#9;&#9;c0-10.984,8.904-19.888,19.888-19.888h48.265c10.984,0,19.888,8.904,19.888,19.888v48.265&#10;&#9;&#9;&#9;&#9;&#9;&#9;C515.335,1638.469,506.431,1647.373,495.447,1647.373z" class="colorf39c12 svgShape"/><path fill="#34a853" d="M495.447,1649.373h-48.265c-12.069,0-21.888-9.819-21.888-21.889v-48.265&#10;&#9;&#9;&#9;&#9;&#9;&#9;c0-12.069,9.819-21.888,21.888-21.888h48.265c12.069,0,21.889,9.819,21.889,21.888v48.265&#10;&#9;&#9;&#9;&#9;&#9;&#9;C517.335,1639.554,507.516,1649.373,495.447,1649.373z M447.182,1561.331c-9.864,0-17.888,8.024-17.888,17.888v48.265&#10;&#9;&#9;&#9;&#9;&#9;&#9;c0,9.864,8.024,17.889,17.888,17.889h48.265c9.864,0,17.889-8.025,17.889-17.889v-48.265c0-9.864-8.025-17.888-17.889-17.888&#10;&#9;&#9;&#9;&#9;&#9;&#9;H447.182z" class="color036 svgShape"/><g fill="#000000" class="color000 svgShape"><path fill="#ea4335" d="M642.183,1647.373h-48.265c-10.984,0-19.888-8.904-19.888-19.888v-48.265&#10;&#9;&#9;&#9;&#9;&#9;&#9;c0-10.984,8.904-19.888,19.888-19.888h48.265c10.984,0,19.888,8.904,19.888,19.888v48.265&#10;&#9;&#9;&#9;&#9;&#9;&#9;C662.072,1638.469,653.167,1647.373,642.183,1647.373z" class="colore74c3c svgShape"/><path fill="#34a853" d="M642.183,1649.373h-48.265c-12.069,0-21.889-9.819-21.889-21.889v-48.265&#10;&#9;&#9;&#9;&#9;&#9;&#9;c0-12.069,9.819-21.888,21.889-21.888h48.265c12.069,0,21.889,9.819,21.889,21.888v48.265&#10;&#9;&#9;&#9;&#9;&#9;&#9;C664.072,1639.554,654.252,1649.373,642.183,1649.373z M593.918,1561.331c-9.864,0-17.889,8.024-17.889,17.888v48.265&#10;&#9;&#9;&#9;&#9;&#9;&#9;c0,9.864,8.025,17.889,17.889,17.889h48.265c9.864,0,17.889-8.025,17.889-17.889v-48.265c0-9.864-8.025-17.888-17.889-17.888&#10;&#9;&#9;&#9;&#9;&#9;&#9;H593.918z" class="color036 svgShape"/></g><g fill="#000000" class="color000 svgShape"><path fill="#fbbc05" d="M1449.71,1626.019H746.688c-12.519,0-22.667-10.148-22.667-22.667s10.148-22.667,22.667-22.667&#10;&#9;&#9;&#9;&#9;&#9;&#9;h703.022c12.519,0,22.667,10.148,22.667,22.667S1462.229,1626.019,1449.71,1626.019z" class="colorf39c12 svgShape"/><path fill="#34a853" d="M1449.71,1628.019H746.688c-13.602,0-24.667-11.065-24.667-24.667s11.065-24.667,24.667-24.667&#10;&#9;&#9;&#9;&#9;&#9;&#9;h703.022c13.602,0,24.667,11.065,24.667,24.667S1463.312,1628.019,1449.71,1628.019z M746.688,1582.685&#10;&#9;&#9;&#9;&#9;&#9;&#9;c-11.396,0-20.667,9.271-20.667,20.667s9.271,20.667,20.667,20.667h703.022c11.396,0,20.667-9.271,20.667-20.667&#10;&#9;&#9;&#9;&#9;&#9;&#9;s-9.271-20.667-20.667-20.667H746.688z" class="color036 svgShape"/></g></g><g fill="#000000" class="color000 svgShape"><rect width="66.688" height="242.141" x="916.491" y="1728.335" fill="#34a853" class="color036 svgShape"/><path fill="#34a853" d="M983.179,1972.477h-66.688c-1.104,0-2-0.896-2-2v-242.142c0-1.104,0.896-2,2-2h66.688&#10;&#9;&#9;&#9;&#9;&#9;&#9;c1.104,0,2,0.896,2,2v242.142C985.179,1971.581,984.284,1972.477,983.179,1972.477z M918.491,1968.477h62.688v-238.142h-62.688&#10;&#9;&#9;&#9;&#9;&#9;&#9;V1968.477z" class="color036 svgShape"/><g fill="#000000" class="color000 svgShape"><circle cx="949.835" cy="1970.476" r="53.989" fill="#34a853" class="color036 svgShape"/><path fill="#34a853" d="M949.835,2026.465c-30.873,0-55.989-25.116-55.989-55.988c0-30.873,25.117-55.989,55.989-55.989&#10;&#9;&#9;&#9;&#9;&#9;&#9;c30.872,0,55.989,25.117,55.989,55.989C1005.824,2001.349,980.708,2026.465,949.835,2026.465z M949.835,1918.487&#10;&#9;&#9;&#9;&#9;&#9;&#9;c-28.667,0-51.989,23.322-51.989,51.989c0,28.667,23.322,51.988,51.989,51.988c28.667,0,51.989-23.322,51.989-51.988&#10;&#9;&#9;&#9;&#9;&#9;&#9;C1001.824,1941.81,978.502,1918.487,949.835,1918.487z" class="color036 svgShape"/></g></g></g><g fill="#000000" class="color000 svgShape"><path fill="#ea4335" d="M1643.381,2695.044c-80.888,0-156.935-31.499-214.13-88.695&#10;&#9;&#9;&#9;&#9;&#9;c-57.196-57.196-88.696-133.242-88.696-214.13v-116.977c0-1.104,0.896-2,2-2s2,0.896,2,2v116.977&#10;&#9;&#9;&#9;&#9;&#9;c0,164.772,134.053,298.825,298.826,298.825c164.773,0,298.825-134.053,298.825-298.825v-116.977c0-1.104,0.896-2,2-2&#10;&#9;&#9;&#9;&#9;&#9;s2,0.896,2,2v116.977c0,80.888-31.5,156.934-88.695,214.13C1800.314,2663.545,1724.269,2695.044,1643.381,2695.044z" class="colore74c3c svgShape"/><path fill="#ea4335" d="M1998.118,2366.974c-0.679,0-1.341-0.346-1.716-0.97l-52.196-86.878l-52.196,86.878&#10;&#9;&#9;&#9;&#9;&#9;c-0.568,0.946-1.797,1.253-2.744,0.685c-0.947-0.569-1.253-1.798-0.685-2.745l53.91-89.731c0.361-0.602,1.012-0.97,1.714-0.97&#10;&#9;&#9;&#9;&#9;&#9;s1.353,0.368,1.714,0.97l53.91,89.731c0.569,0.947,0.263,2.176-0.685,2.745&#10;&#9;&#9;&#9;&#9;&#9;C1998.824,2366.882,1998.469,2366.974,1998.118,2366.974z" class="colore74c3c svgShape"/><g fill="#000000" class="color000 svgShape"><path fill="#ea4335" d="M2889.773,2695.044c-1.104,0-2-0.896-2-2v-222.71c0-83.913,32.678-162.805,92.014-222.141&#10;&#9;&#9;&#9;&#9;&#9;c59.337-59.336,138.228-92.014,222.142-92.014h236.817c83.914,0,162.805,32.678,222.142,92.014&#10;&#9;&#9;&#9;&#9;&#9;c59.336,59.336,92.014,138.228,92.014,222.141c0,1.104-0.896,2-2,2s-2-0.896-2-2c0-171.02-139.135-310.154-310.155-310.154&#10;&#9;&#9;&#9;&#9;&#9;h-236.817c-171.021,0-310.155,139.135-310.155,310.154v222.71C2891.773,2694.148,2890.878,2695.044,2889.773,2695.044z" class="colore74c3c svgShape"/><path fill="#ea4335" d="M3750.901,2472.478c-0.702,0-1.353-0.368-1.715-0.97l-53.911-89.731&#10;&#9;&#9;&#9;&#9;&#9;c-0.568-0.947-0.262-2.176,0.685-2.745c0.946-0.567,2.175-0.263,2.745,0.685l52.196,86.878l52.195-86.878&#10;&#9;&#9;&#9;&#9;&#9;c0.569-0.947,1.799-1.252,2.745-0.685c0.946,0.569,1.253,1.798,0.685,2.745l-53.91,89.731&#10;&#9;&#9;&#9;&#9;&#9;C3752.254,2472.109,3751.604,2472.478,3750.901,2472.478z" class="colore74c3c svgShape"/></g></g></svg>