<svg xmlns="http://www.w3.org/2000/svg" viewBox="0 0 556.58 197.68"><defs><style>.cls-1{fill:#1ccb97;}.cls-2{fill:#373643;}</style></defs><g id="Layer_2" data-name="Layer 2"><g id="Layer_1-2" data-name="Layer 1"><path class="cls-1" d="M528.47,53.21c-.39,6.95-.71,13.91-1.2,20.85-.43,6.07-4.24,9.22-10.21,8.64s-8.13-3.64-7.56-10.2c.8-9.13,1.41-18.29,2.53-27.39-9.4.23-18.81.1-28.22-.17-6.61-.19-9.66-3.32-9.53-9.35s3.32-9.1,9.84-8.86c13.71.5,27.41,1.28,41.11,1.72,3.75.12,5,1.38,4.56,5.16-.7,6.51-.95,13.06-1.39,19.6Z"/><path class="cls-1" d="M555.19,26.5c-.4,7-.72,13.9-1.2,20.84-.43,6.08-4.24,9.22-10.21,8.64s-8.14-3.64-7.56-10.2c.8-9.13,1.4-18.28,2.53-27.38-9.4.23-18.82.1-28.22-.17-6.61-.19-9.67-3.32-9.53-9.36s3.32-9.1,9.84-8.86c13.71.5,27.4,1.28,41.11,1.73,3.75.12,5,1.38,4.56,5.16-.71,6.5-1,13.06-1.39,19.59Z"/><path class="cls-2" d="M71.34,58.17c3.93,0,7.6,2.22,7.6,6.81v39.87C78.94,127.67,63.2,143,39.47,143S0,127.67,0,104.85V64.72c0-4.33,3.67-6.55,7.61-6.55s7.86,2.09,7.86,6.68v40c0,14.55,9.58,24.39,23.87,24.39,14.55,0,24.26-9.84,24.26-24.39V65.12C63.6,60.39,67.4,58.17,71.34,58.17Z"/><path class="cls-2" d="M100.57,58.17c3.8,0,7.73,2.22,7.73,7.08V135c0,4.46-3.93,6.69-7.73,6.69S93,139.6,93,135V65.25C93,60.39,96.63,58.17,100.57,58.17Z"/><path class="cls-2" d="M149.21,134.62V64.85c0-4.46,3.8-6.68,7.74-6.68,3.67,0,7.6,2.22,7.6,6.68v63.73h43c5.12,0,7.87,3.41,7.87,6.56,0,3.41-2.75,6.56-7.87,6.56H157.08C151.44,141.7,149.21,139.21,149.21,134.62Z"/><path class="cls-2" d="M252.8,143c-25.7,0-43-17.18-43-43s17.31-43.14,43-43.14,42.62,17.3,42.62,43.14S278.37,143,252.8,143Zm27.27-43c0-17.84-10.88-29.77-27.27-29.77S225.26,82.16,225.26,100s11,29.63,27.54,29.63S280.07,117.7,280.07,100Z"/><path class="cls-2" d="M378.15,127c-8,9.31-21.63,16-34,16-25.83,0-42.62-17.7-42.09-43.8,0-25.44,17-42.35,42.48-42.35,11.54,0,23.61,4.19,31.34,12.45,7.48,7.87-3.54,16.92-11.14,8.92a27.68,27.68,0,0,0-20.2-8.39c-16.39,0-27.4,12.06-27.4,29.76.26,17.58,11,30.16,27.14,30.16a28.87,28.87,0,0,0,21-9.57V106.82H346.16c-5,0-7.22-3.15-7.22-6.3,0-3.41,2.36-6.69,7.22-6.69h26.09c6,0,7.87,2.89,7.87,7.09V121.5A7.9,7.9,0,0,1,378.15,127Z"/><path class="cls-2" d="M400.57,58.17c3.8,0,7.73,2.22,7.73,7.08V135c0,4.46-3.93,6.69-7.73,6.69S393,139.6,393,135V65.25C393,60.39,396.63,58.17,400.57,58.17Z"/><path class="cls-2" d="M489.47,69.84c7.08,8-4.06,16.26-10.88,8.91-6.56-7.08-13.77-8.52-21.9-8.52C440,70.23,429,81.77,429,99c0,18.49,11.28,30.68,28.32,30.68,8.26,0,17.18-4.72,22.16-10.75,7.09-8.52,18.36-1,11.94,7.87C484.22,136.84,469.93,143,457.08,143c-25.83,0-43.14-17.57-43.14-44.06,0-25.31,18.62-42.09,42.88-42.09C469.67,56.86,481,60.26,489.47,69.84Z"/><path class="cls-2" d="M26.09,171.8,35.46,195l9.38-23.16h2.25L36.54,197.26h-2.2L23.79,171.8Z"/><path class="cls-2" d="M60.92,171.48c5.62,0,9.37,3.14,10.78,7V171.8h2.11v25.46H71.7v-6.71c-1.41,3.89-5.2,7.08-10.78,7.08-7.13,0-12.28-5.11-12.28-13.12S53.79,171.48,60.92,171.48Zm.28,1.82c-6.14,0-10.41,4.18-10.41,11.21s4.27,11.25,10.41,11.25c6,0,10.5-4.36,10.5-11.25S67.15,173.3,61.2,173.3Z"/><path class="cls-2" d="M79.72,162.57h2.11v34.69H79.72Z"/><path class="cls-2" d="M109.3,197.26h-2.11v-5.53c-1.46,4-5.16,6-9.33,6-5.67,0-10.31-3.38-10.31-11.06V171.8h2.06v14.68c0,6.23,3.42,9.37,8.53,9.37,5.3,0,9-3.33,9-10.41V171.8h2.11Z"/><path class="cls-2" d="M126.27,197.63c-7.13,0-12.38-5-12.38-13.12s5.16-13,12.38-13c7.64,0,11.86,5.43,11.86,11.34a19.15,19.15,0,0,1-.1,2.53h-22c.18,7.08,5,10.45,10.22,10.45,5,0,8.62-2.67,9.46-6.89h2.21C137,193.93,132.78,197.63,126.27,197.63Zm-10.22-14h20c.32-7.08-4.64-10.36-9.8-10.36S116.28,176.58,116.05,183.62Z"/><path class="cls-2" d="M165.13,171.48c5.62,0,9.37,3.14,10.78,7V171.8H178v25.46h-2.11v-6.71c-1.41,3.89-5.2,7.08-10.78,7.08-7.13,0-12.28-5.11-12.28-13.12S158,171.48,165.13,171.48Zm.28,1.82c-6.14,0-10.41,4.18-10.41,11.21s4.27,11.25,10.41,11.25c6,0,10.5-4.36,10.5-11.25S171.36,173.3,165.41,173.3Z"/><path class="cls-2" d="M203.62,182.49c0-6.19-3.43-9.37-8.54-9.37-5.29,0-9,3.32-9,10.4v13.74h-2.11V171.8H186v5.39c1.5-3.93,5.15-5.9,9.37-5.9,5.67,0,10.27,3.42,10.27,11.06v14.91h-2.06Z"/><path class="cls-2" d="M222.32,171.48c5.34,0,9.28,3,10.78,7V162.57h2.11v34.69H233.1v-6.75c-1.4,4-5.2,7.12-10.78,7.12-7.13,0-12.28-5.11-12.28-13.12S215.19,171.48,222.32,171.48Zm.28,1.82c-6.14,0-10.41,4.18-10.41,11.21s4.27,11.25,10.41,11.25c6,0,10.5-4.36,10.5-11.25S228.55,173.3,222.6,173.3Z"/><path class="cls-2" d="M251.86,164.3a1.78,1.78,0,1,1,3.56,0,1.78,1.78,0,1,1-3.56,0Zm.7,7.5h2.11v25.46h-2.11Z"/><path class="cls-2" d="M280.31,182.49c0-6.19-3.42-9.37-8.53-9.37-5.3,0-9,3.32-9,10.4v13.74h-2.11V171.8h2.11v5.39c1.5-3.93,5.16-5.9,9.38-5.9,5.67,0,10.26,3.42,10.26,11.06v14.91h-2.06Z"/><path class="cls-2" d="M307.73,182.49c0-6.19-3.42-9.37-8.53-9.37-5.3,0-9.05,3.32-9.05,10.4v13.74h-2.1V171.8h2.1v5.39c1.5-3.93,5.16-5.9,9.38-5.9,5.67,0,10.27,3.42,10.27,11.06v14.91h-2.07Z"/><path class="cls-2" d="M326.67,197.63c-7.12,0-12.51-5-12.51-13.12s5.48-13,12.61-13,12.51,4.92,12.51,13S333.8,197.63,326.67,197.63Zm0-1.87c5.35,0,10.5-3.52,10.5-11.25s-5.11-11.21-10.45-11.21-10.41,3.52-10.41,11.21S321.33,195.76,326.67,195.76Z"/><path class="cls-2" d="M343.17,171.8,352.55,195l9.37-23.16h2.25l-10.54,25.46h-2.21L340.88,171.8Z"/><path class="cls-2" d="M378,171.48c5.63,0,9.38,3.14,10.79,7V171.8h2.11v25.46h-2.11v-6.71c-1.41,3.89-5.21,7.08-10.79,7.08-7.12,0-12.28-5.11-12.28-13.12S370.88,171.48,378,171.48Zm.29,1.82c-6.15,0-10.41,4.18-10.41,11.21s4.26,11.25,10.41,11.25c5.95,0,10.5-4.36,10.5-11.25S384.24,173.3,378.29,173.3Z"/><path class="cls-2" d="M397.83,173.63H394V171.8h3.84v-6.47h2.11v6.47h7.55v1.83h-7.55v16.83c0,3.84,1.27,4.92,4.69,4.92h2.86v1.88H404.3c-4.36,0-6.47-1.78-6.47-6.8Z"/><path class="cls-2" d="M410.58,164.3a1.79,1.79,0,1,1,3.57,0,1.79,1.79,0,1,1-3.57,0Zm.71,7.5h2.11v25.46h-2.11Z"/><path class="cls-2" d="M430.55,197.63c-7.12,0-12.51-5-12.51-13.12s5.48-13,12.61-13,12.51,4.92,12.51,13S437.68,197.63,430.55,197.63Zm0-1.87c5.35,0,10.5-3.52,10.5-11.25s-5.11-11.21-10.45-11.21-10.41,3.52-10.41,11.21S425.21,195.76,430.55,195.76Z"/><path class="cls-2" d="M467.49,182.49c0-6.19-3.42-9.37-8.53-9.37-5.3,0-9,3.32-9,10.4v13.74H447.8V171.8h2.11v5.39c1.5-3.93,5.16-5.9,9.38-5.9,5.67,0,10.26,3.42,10.26,11.06v14.91h-2.06Z"/></g></g></svg>